<?xml version="1.0" encoding="UTF-8" standalone="no"?>
<!DOCTYPE svg PUBLIC "-//W3C//DTD SVG 1.1//EN" "http://www.w3.org/Graphics/SVG/1.1/DTD/svg11.dtd">
<!-- Created with Vectornator (http://vectornator.io/) -->
<!-- Funchan like ？？ -->
<svg height="100%" stroke-miterlimit="10" style="fill-rule:nonzero;clip-rule:evenodd;stroke-linecap:round;stroke-linejoin:round;" version="1.1" viewBox="0 0 1024 1024" width="100%" xml:space="preserve" xmlns="http://www.w3.org/2000/svg" xmlns:xlink="http://www.w3.org/1999/xlink">
<defs/>
<g id="confused">
<path d="M307.568 102.731L774.223 104.169L771.516 485.957C771.516 485.957 770.847 628.976 745.838 750.452C719.858 876.643 680.927 958.731 680.927 958.731L188.074 946.35C188.074 946.35 233.181 905.305 254.196 865.28C294.964 787.636 297.491 717.371 297.491 717.371L307.568 102.731Z" fill="#094f6a" fill-rule="nonzero" opacity="1" stroke="#ffffff" stroke-linecap="round" stroke-linejoin="round" stroke-width="12.7"/>
<path d="M123.915 666.697L109.622 636.945C109.622 636.945 141.612 670.071 167.579 523.732C193.547 377.394 213.491 51.5903 213.491 51.5903L859.619 48.0171C859.619 48.0171 917.829 187.615 889.405 580.983C877.075 751.618 847.784 732.233 847.784 732.233L829.206 705.417C829.206 705.417 851.205 693.873 859.926 543.805C876.792 253.586 837.218 104.182 837.218 104.182L246.89 103.255C246.89 103.255 235.692 402.643 204.948 543.503C174.204 684.364 123.915 666.697 123.915 666.697Z" fill="#094f6a" fill-rule="nonzero" opacity="1" stroke="#ffffff" stroke-linecap="round" stroke-linejoin="round" stroke-width="12.7"/>
<path d="M524.807 565.447L520.321 617.857L516.601 661.326" fill="none" opacity="1" stroke="#ffffff" stroke-linecap="round" stroke-linejoin="round" stroke-width="12.7"/>
<g opacity="1">
<path d="M610.613 105.217L746.985 105.217L746.985 166.622L610.613 166.622L610.613 105.217Z" fill="none" opacity="1" stroke="#ffffff" stroke-linecap="round" stroke-linejoin="round" stroke-width="12.7"/>
<g opacity="1">
<path d="M631.08 115.417L631.348 155.283" fill="none" opacity="1" stroke="#ffffff" stroke-linecap="round" stroke-linejoin="round" stroke-width="5.56"/>
<path d="M633.061 135.401L648.585 115.521L633.061 135.401Z" fill="none" opacity="1" stroke="#ffffff" stroke-linecap="round" stroke-linejoin="round" stroke-width="5.56"/>
<path d="M638.881 135.514L650.323 155.016" fill="none" opacity="1" stroke="#ffffff" stroke-linecap="round" stroke-linejoin="round" stroke-width="5.56"/>
</g>
<path d="M726.337 120.855C726.337 120.855 719.039 110.982 712.504 119.745C703.909 131.27 736.025 143.032 727.069 152.489C717.04 163.079 707.597 146.994 707.597 146.994" fill="none" opacity="1" stroke="#ffffff" stroke-linecap="round" stroke-linejoin="round" stroke-width="5.56"/>
<g opacity="1">
<path d="M670.664 116.044L670.795 135.505L670.932 155.91" fill="none" opacity="1" stroke="#ffffff" stroke-linecap="round" stroke-linejoin="round" stroke-width="5.56"/>
<path d="M670.76 115.967L693.351 115.7" fill="none" opacity="1" stroke="#ffffff" stroke-linecap="round" stroke-linejoin="round" stroke-width="5.56"/>
<path d="M671.611 132.157L687.036 132.208" fill="none" opacity="1" stroke="#ffffff" stroke-linecap="round" stroke-linejoin="round" stroke-width="5.56"/>
</g>
</g>
<path d="M318.698 291.703" fill="none" opacity="1" stroke="#ffffff" stroke-linecap="round" stroke-linejoin="round" stroke-width="12.7"/>
<path d="M382.611 286.407C381.231 278.086 386.644 270.258 394.701 268.922C402.757 267.585 410.407 273.248 411.787 281.569C413.167 289.889 407.754 297.718 399.697 299.054C391.641 300.39 383.991 294.728 382.611 286.407Z" fill="#ffffff" fill-rule="nonzero" opacity="1" stroke="#ffffff" stroke-linecap="round" stroke-linejoin="round" stroke-width="12.7"/>
<path d="M339.673 191.586C339.673 191.586 341.744 129.532 390.439 149.329C429.352 165.149 393.092 200.899 381.177 223.78C375.557 234.57 383.069 244.788 383.069 244.788" fill="none" opacity="1" stroke="#ffffff" stroke-linecap="round" stroke-linejoin="round" stroke-width="25"/>
<path d="M445.818 273.539C447.637 265.303 455.576 260.054 463.551 261.816C471.526 263.577 476.516 271.682 474.697 279.918C472.877 288.154 464.938 293.402 456.963 291.641C448.989 289.879 443.998 281.775 445.818 273.539Z" fill="#ffffff" fill-rule="nonzero" opacity="1" stroke="#ffffff" stroke-linecap="round" stroke-linejoin="round" stroke-width="12.7"/>
<path d="M441.293 169.547C441.293 169.547 466.332 112.732 504.147 149.244C534.366 178.421 487.398 198.09 467.817 214.885C458.582 222.806 461.747 235.086 461.747 235.086" fill="none" opacity="1" stroke="#ffffff" stroke-linecap="round" stroke-linejoin="round" stroke-width="25"/>
<path d="M454.043 426.134C452.643 417.279 458.137 408.947 466.315 407.525C474.493 406.104 482.259 412.13 483.659 420.985C485.06 429.841 479.566 438.172 471.387 439.594C463.209 441.016 455.444 434.99 454.043 426.134Z" fill="#ffffff" fill-rule="nonzero" opacity="1" stroke="#ffffff" stroke-linecap="round" stroke-linejoin="round" stroke-width="12.7"/>
<path d="M602.782 438.508C601.716 429.155 605.895 420.355 612.114 418.854C618.334 417.352 624.239 423.716 625.304 433.069C626.369 442.422 622.191 451.222 615.972 452.724C609.752 454.225 603.847 447.861 602.782 438.508Z" fill="#ffffff" fill-rule="nonzero" opacity="1" stroke="#ffffff" stroke-linecap="round" stroke-linejoin="round" stroke-width="12.7"/>
<path d="M420.24 764.736C420.24 764.736 457.198 754.702 502.912 759.5C548.625 764.297 603.093 783.928 603.093 783.928" fill="none" opacity="1" stroke="#ffffff" stroke-linecap="round" stroke-linejoin="round" stroke-width="12.7"/>
<path d="M496.73 345.881L424.203 380.025L364.048 408.345" fill="none" opacity="1" stroke="#ffffff" stroke-linecap="round" stroke-linejoin="round" stroke-width="12.7"/>
<path d="M610.471 356.228L667.454 400.243L714.717 436.749" fill="none" opacity="1" stroke="#ffffff" stroke-linecap="round" stroke-linejoin="round" stroke-width="12.7"/>
</g>
</svg>
