<?xml version="1.0" encoding="UTF-8" standalone="no"?>
<!DOCTYPE svg PUBLIC "-//W3C//DTD SVG 1.1//EN" "http://www.w3.org/Graphics/SVG/1.1/DTD/svg11.dtd">
<!-- Created with Vectornator (http://vectornator.io/) -->
<!-- Funchan like ðŸ‘ -->
<svg height="100%" stroke-miterlimit="10" style="fill-rule:nonzero;clip-rule:evenodd;stroke-linecap:round;stroke-linejoin:round;" version="1.1" viewBox="0 0 1024 1024" width="100%" xml:space="preserve" xmlns="http://www.w3.org/2000/svg" xmlns:xlink="http://www.w3.org/1999/xlink">
<defs/>
<g id="thumbs-up">
<path d="M253.155 110.767L719.81 112.205L717.103 493.993C717.103 493.993 716.434 637.012 691.425 758.488C665.445 884.679 626.514 966.767 626.514 966.767L133.661 954.386C133.661 954.386 178.768 913.341 199.783 873.316C240.551 795.672 243.078 725.407 243.078 725.407L253.155 110.767Z" fill="#094f6a" fill-rule="nonzero" opacity="1" stroke="#ffffff" stroke-linecap="round" stroke-linejoin="round" stroke-width="12.7"/>
<path d="M471.113 478.309L472.161 567.781" fill="none" opacity="1" stroke="#ffffff" stroke-linecap="round" stroke-linejoin="round" stroke-width="12.7"/>
<path d="M707.015 868.661C721.912 805.802 765.792 758.681 805.023 763.413C844.255 768.144 863.982 822.937 849.085 885.796C834.188 948.654 790.309 995.776 751.077 991.044C734.626 989.06 721.604 978.272 713.127 961.778C708.019 951.839 675.253 910.866 673.699 897.849C672.144 884.833 701.716 905.359 702.804 893.925C703.585 885.727 704.975 877.269 707.015 868.661Z" fill="#094f6a" fill-rule="nonzero" opacity="1" stroke="#ffffff" stroke-linecap="round" stroke-linejoin="round" stroke-width="12.7"/>
<g opacity="1">
<path d="M556.2 113.253L692.572 113.253L692.572 174.658L556.2 174.658L556.2 113.253Z" fill="none" opacity="1" stroke="#ffffff" stroke-linecap="round" stroke-linejoin="round" stroke-width="12.7"/>
<g opacity="1">
<path d="M576.667 123.453L576.935 163.319" fill="none" opacity="1" stroke="#ffffff" stroke-linecap="round" stroke-linejoin="round" stroke-width="5.56"/>
<path d="M578.648 143.437L594.172 123.557L578.648 143.437Z" fill="none" opacity="1" stroke="#ffffff" stroke-linecap="round" stroke-linejoin="round" stroke-width="5.56"/>
<path d="M584.468 143.55L595.91 163.052" fill="none" opacity="1" stroke="#ffffff" stroke-linecap="round" stroke-linejoin="round" stroke-width="5.56"/>
</g>
<path d="M671.924 128.891C671.924 128.891 664.626 119.018 658.091 127.781C649.496 139.306 681.612 151.068 672.656 160.525C662.627 171.115 653.184 155.03 653.184 155.03" fill="none" opacity="1" stroke="#ffffff" stroke-linecap="round" stroke-linejoin="round" stroke-width="5.56"/>
<g opacity="1">
<path d="M616.251 124.08L616.382 143.541L616.519 163.946" fill="none" opacity="1" stroke="#ffffff" stroke-linecap="round" stroke-linejoin="round" stroke-width="5.56"/>
<path d="M616.347 124.003L638.938 123.736" fill="none" opacity="1" stroke="#ffffff" stroke-linecap="round" stroke-linejoin="round" stroke-width="5.56"/>
<path d="M617.198 140.193L632.623 140.244" fill="none" opacity="1" stroke="#ffffff" stroke-linecap="round" stroke-linejoin="round" stroke-width="5.56"/>
</g>
</g>
<g opacity="1">
<path d="M776.445 786.811L814.82 794.518C814.82 794.518 804.944 809.993 795.564 817.31C786.183 824.627 777.714 822.086 777.714 822.086" fill="#094f6a" fill-rule="nonzero" opacity="1" stroke="#ffffff" stroke-linecap="round" stroke-linejoin="round" stroke-width="5.56"/>
<g opacity="1">
<path d="M760.293 842.26L771.715 847.312" fill="#094f6a" fill-rule="nonzero" opacity="1" stroke="#ffffff" stroke-linecap="round" stroke-linejoin="round" stroke-width="5.56"/>
<path d="M800.816 851.743C800.816 851.743 780.204 868.199 772.553 871.113C760.915 875.545 754.264 869.471 754.264 869.471" fill="#094f6a" fill-rule="nonzero" opacity="1" stroke="#ffffff" stroke-linecap="round" stroke-linejoin="round" stroke-width="5.56"/>
</g>
</g>
<g opacity="1">
<path d="M770.378 886.368L808.753 894.075C808.753 894.075 798.878 909.549 789.497 916.867C780.116 924.184 771.647 921.643 771.647 921.643" fill="#094f6a" fill-rule="nonzero" opacity="1" stroke="#ffffff" stroke-linecap="round" stroke-linejoin="round" stroke-width="5.56"/>
<g opacity="1">
<path d="M754.226 941.816L765.648 946.869" fill="#094f6a" fill-rule="nonzero" opacity="1" stroke="#ffffff" stroke-linecap="round" stroke-linejoin="round" stroke-width="5.56"/>
<path d="M794.749 951.299C794.749 951.299 774.137 967.756 766.486 970.669C754.849 975.102 748.198 969.028 748.198 969.028" fill="#094f6a" fill-rule="nonzero" opacity="1" stroke="#ffffff" stroke-linecap="round" stroke-linejoin="round" stroke-width="5.56"/>
</g>
</g>
<g opacity="1">
<path d="M78.3781 780.128L54.6905 741.595C54.6905 741.595 86.6805 774.721 112.648 628.382C138.616 482.044 159.078 59.626 159.078 59.626L816.998 63.9814C816.998 63.9814 803.198 80.4579 802.064 474.85C801.734 589.338 856.651 567.17 856.651 567.17L851.487 632.241C851.487 632.241 764.209 653.61 758.326 505.434C752.225 351.751 760.808 113.805 760.808 113.805L192.477 111.291C192.477 111.291 180.761 507.293 150.017 648.153C119.273 789.014 78.3781 780.128 78.3781 780.128Z" fill="#094f6a" fill-rule="nonzero" opacity="1" stroke="#ffffff" stroke-linecap="round" stroke-linejoin="round" stroke-width="12.7"/>
<g opacity="1">
<path d="M841.755 570.287L836.596 639.014C836.596 639.014 882.528 663.259 913.116 647.988C943.705 632.716 944.732 614.144 941.703 583.671C939.741 563.937 914.409 558.092 914.409 558.092C914.409 558.092 936.444 496.104 901.828 499.376C873.237 502.079 896.673 527.382 872.946 555.463C849.218 583.544 841.755 570.287 841.755 570.287Z" fill="#094f6a" fill-rule="nonzero" opacity="1" stroke="#ffffff" stroke-linecap="round" stroke-linejoin="round" stroke-width="12.7"/>
<path d="M889.416 533.971C889.416 533.971 894.775 529.056 898.065 520.71C901.355 512.365 900.178 503.804 900.178 503.804" fill="none" opacity="1" stroke="#ffffff" stroke-linecap="square" stroke-linejoin="round" stroke-width="7.62"/>
</g>
</g>
<path d="M359.142 673.75C359.142 673.75 402.108 739.165 464.107 738.506C526.105 737.847 607.136 671.115 607.136 671.115" fill="none" opacity="1" stroke="#ffffff" stroke-linecap="round" stroke-linejoin="round" stroke-width="12.7"/>
<path d="M362.114 399.013C362.114 380.726 375.786 365.902 392.652 365.902C409.518 365.902 423.19 380.726 423.19 399.013C423.19 417.3 409.518 432.124 392.652 432.124C375.786 432.124 362.114 417.3 362.114 399.013Z" fill="#ffffff" fill-rule="nonzero" opacity="1" stroke="none"/>
<path d="M550.869 404.107C550.869 385.82 564.541 370.996 581.407 370.996C598.273 370.996 611.945 385.82 611.945 404.107C611.945 422.393 598.273 437.218 581.407 437.218C564.541 437.218 550.869 422.393 550.869 404.107Z" fill="#ffffff" fill-rule="nonzero" opacity="1" stroke="none"/>
</g>
</svg>
