<?xml version="1.0" encoding="UTF-8" standalone="no"?>
<!DOCTYPE svg PUBLIC "-//W3C//DTD SVG 1.1//EN" "http://www.w3.org/Graphics/SVG/1.1/DTD/svg11.dtd">
<!-- Created with Vectornator (http://vectornator.io/) -->
<svg height="100%" stroke-miterlimit="10" style="fill-rule:nonzero;clip-rule:evenodd;stroke-linecap:round;stroke-linejoin:round;" version="1.1" viewBox="0 0 1024 1024" width="100%" xml:space="preserve" xmlns="http://www.w3.org/2000/svg" xmlns:xlink="http://www.w3.org/1999/xlink">
<defs>
<clipPath id="TextBounds">
<rect height="379.908" width="461.162" x="314.091" y="217.785"/>
</clipPath>
<clipPath id="TextBounds_2">
<rect height="128.896" width="471.892" x="305.021" y="616.963"/>
</clipPath>
</defs>
<g id="main">
<g opacity="1">
<path d="M325.119 114.631L791.774 116.07L789.068 497.858C789.068 497.858 788.399 640.877 763.39 762.353C737.41 888.543 698.479 970.632 698.479 970.632L205.626 958.25C205.626 958.25 250.732 917.206 271.748 877.181C312.516 799.536 315.043 729.272 315.043 729.272L325.119 114.631Z" fill="#aa7754" fill-rule="nonzero" opacity="1" stroke="#f3f4e1" stroke-linecap="butt" stroke-linejoin="round" stroke-width="12.7"/>
<path d="M141.467 678.597L127.173 648.845C127.173 648.845 159.164 681.971 185.131 535.633C211.099 389.294 231.043 63.4907 231.043 63.4907L877.171 59.9175C877.171 59.9175 935.381 199.515 906.956 592.883C894.626 763.518 865.336 744.134 865.336 744.134L846.758 717.317C846.758 717.317 868.757 705.774 877.478 555.705C894.344 265.486 854.77 116.082 854.77 116.082L264.442 115.155C264.442 115.155 253.243 414.543 222.499 555.404C191.755 696.264 141.467 678.597 141.467 678.597Z" fill="#aa7754" fill-rule="nonzero" opacity="1" stroke="#f3f4e1" stroke-linecap="butt" stroke-linejoin="round" stroke-width="12.7"/>
<g opacity="1">
<path d="M628.165 117.118L764.537 117.118L764.537 178.523L628.165 178.523L628.165 117.118Z" fill="#aa7754" fill-rule="nonzero" opacity="1" stroke="#f3f4e1" stroke-linecap="round" stroke-linejoin="round" stroke-width="12.7"/>
<g opacity="1">
<path d="M648.632 127.317L648.9 167.183" fill="#aa7754" fill-rule="nonzero" opacity="1" stroke="#f3f4e1" stroke-linecap="round" stroke-linejoin="round" stroke-width="5.56"/>
<path d="M650.613 147.302L666.137 127.421L650.613 147.302Z" fill="#aa7754" fill-rule="nonzero" opacity="1" stroke="#f3f4e1" stroke-linecap="round" stroke-linejoin="round" stroke-width="5.56"/>
<path d="M656.433 147.415L667.875 166.916" fill="#aa7754" fill-rule="nonzero" opacity="1" stroke="#f3f4e1" stroke-linecap="round" stroke-linejoin="round" stroke-width="5.56"/>
</g>
<path d="M743.888 132.756C743.888 132.756 736.591 122.882 730.056 131.645C721.461 143.17 753.577 154.933 744.621 164.389C734.592 174.98 725.149 158.894 725.149 158.894" fill="#aa7754" fill-rule="nonzero" opacity="1" stroke="#f3f4e1" stroke-linecap="round" stroke-linejoin="round" stroke-width="5.56"/>
<g opacity="1">
<path d="M688.216 127.945L688.347 147.406L688.484 167.811" fill="#aa7754" fill-rule="nonzero" opacity="1" stroke="#f3f4e1" stroke-linecap="round" stroke-linejoin="round" stroke-width="5.56"/>
<path d="M688.312 127.867L710.903 127.6" fill="#aa7754" fill-rule="nonzero" opacity="1" stroke="#f3f4e1" stroke-linecap="round" stroke-linejoin="round" stroke-width="5.56"/>
<path d="M689.163 144.058L704.588 144.109" fill="#aa7754" fill-rule="nonzero" opacity="1" stroke="#f3f4e1" stroke-linecap="round" stroke-linejoin="round" stroke-width="5.56"/>
</g>
</g>
</g>
<path d="M325.119 114.631L791.774 116.07L789.068 497.858C789.068 497.858 788.399 640.877 763.39 762.353C737.41 888.543 698.479 970.632 698.479 970.632L205.626 958.25C205.626 958.25 250.732 917.206 271.748 877.181C312.516 799.536 315.043 729.272 315.043 729.272L325.119 114.631Z" fill="#aa7754" fill-rule="nonzero" opacity="1" stroke="#f3f4e1" stroke-linecap="butt" stroke-linejoin="round" stroke-width="12.7"/>
<path d="M141.467 678.597L127.173 648.845C127.173 648.845 159.164 681.971 185.131 535.633C211.099 389.294 231.043 63.4907 231.043 63.4907L877.171 59.9175C877.171 59.9175 935.381 199.515 906.956 592.883C894.626 763.518 865.336 744.134 865.336 744.134L846.758 717.317C846.758 717.317 868.757 705.774 877.478 555.705C894.344 265.486 854.77 116.082 854.77 116.082L264.442 115.155C264.442 115.155 253.243 414.543 222.499 555.404C191.755 696.264 141.467 678.597 141.467 678.597Z" fill="#aa7754" fill-rule="nonzero" opacity="1" stroke="#f3f4e1" stroke-linecap="butt" stroke-linejoin="round" stroke-width="12.7"/>
<g opacity="1">
<path d="M628.165 117.118L764.537 117.118L764.537 178.523L628.165 178.523L628.165 117.118Z" fill="#aa7754" fill-rule="nonzero" opacity="1" stroke="#f3f4e1" stroke-linecap="round" stroke-linejoin="round" stroke-width="12.7"/>
<g opacity="1">
<path d="M648.632 127.317L648.9 167.183" fill="#aa7754" fill-rule="nonzero" opacity="1" stroke="#f3f4e1" stroke-linecap="round" stroke-linejoin="round" stroke-width="5.56"/>
<path d="M650.613 147.302L666.137 127.421L650.613 147.302Z" fill="#aa7754" fill-rule="nonzero" opacity="1" stroke="#f3f4e1" stroke-linecap="round" stroke-linejoin="round" stroke-width="5.56"/>
<path d="M656.433 147.415L667.875 166.916" fill="#aa7754" fill-rule="nonzero" opacity="1" stroke="#f3f4e1" stroke-linecap="round" stroke-linejoin="round" stroke-width="5.56"/>
</g>
<path d="M743.888 132.756C743.888 132.756 736.591 122.882 730.056 131.645C721.461 143.17 753.577 154.933 744.621 164.389C734.592 174.98 725.149 158.894 725.149 158.894" fill="#aa7754" fill-rule="nonzero" opacity="1" stroke="#f3f4e1" stroke-linecap="round" stroke-linejoin="round" stroke-width="5.56"/>
<g opacity="1">
<path d="M688.216 127.945L688.347 147.406L688.484 167.811" fill="#aa7754" fill-rule="nonzero" opacity="1" stroke="#f3f4e1" stroke-linecap="round" stroke-linejoin="round" stroke-width="5.56"/>
<path d="M688.312 127.867L710.903 127.6" fill="#aa7754" fill-rule="nonzero" opacity="1" stroke="#f3f4e1" stroke-linecap="round" stroke-linejoin="round" stroke-width="5.56"/>
<path d="M689.163 144.058L704.588 144.109" fill="#aa7754" fill-rule="nonzero" opacity="1" stroke="#f3f4e1" stroke-linecap="round" stroke-linejoin="round" stroke-width="5.56"/>
</g>
</g>
<path d="M325.119 114.631L791.774 116.07L789.068 497.858C789.068 497.858 788.399 640.877 763.39 762.353C737.41 888.543 698.479 970.632 698.479 970.632L205.626 958.25C205.626 958.25 250.732 917.206 271.748 877.181C312.516 799.536 315.043 729.272 315.043 729.272L325.119 114.631Z" fill="#aa7754" fill-rule="nonzero" opacity="1" stroke="#aa7754" stroke-linecap="butt" stroke-linejoin="round" stroke-width="12.7"/>
<path d="M141.467 678.597L127.173 648.845C127.173 648.845 159.164 681.971 185.131 535.633C211.099 389.294 231.043 63.4907 231.043 63.4907L877.171 59.9175C877.171 59.9175 935.381 199.515 906.956 592.883C894.626 763.518 865.336 744.134 865.336 744.134L846.758 717.317C846.758 717.317 868.757 705.774 877.478 555.705C894.344 265.486 854.77 116.082 854.77 116.082L264.442 115.155C264.442 115.155 253.243 414.543 222.499 555.404C191.755 696.264 141.467 678.597 141.467 678.597Z" fill="#aa7754" fill-rule="nonzero" opacity="1" stroke="#aa7754" stroke-linecap="butt" stroke-linejoin="round" stroke-width="12.7"/>
<g opacity="1">
<path d="M628.165 111.574L764.537 111.574L764.537 172.979L628.165 172.979L628.165 111.574Z" fill="#f3f4e1" fill-rule="nonzero" opacity="1" stroke="#f3f4e1" stroke-linecap="round" stroke-linejoin="round" stroke-width="12.7"/>
<g opacity="1">
<g opacity="1">
<path d="M648.632 121.774L648.9 161.64" fill="none" opacity="1" stroke="#aa7754" stroke-linecap="round" stroke-linejoin="round" stroke-width="5.56"/>
<path d="M650.613 141.758L666.137 121.877L650.613 141.758Z" fill="none" opacity="1" stroke="#aa7754" stroke-linecap="round" stroke-linejoin="round" stroke-width="5.56"/>
<path d="M656.433 141.871L667.875 161.373" fill="none" opacity="1" stroke="#aa7754" stroke-linecap="round" stroke-linejoin="round" stroke-width="5.56"/>
</g>
<path d="M743.888 127.212C743.888 127.212 736.591 117.339 730.056 126.102C721.461 137.626 753.577 149.389 744.621 158.846C734.592 169.436 725.149 153.35 725.149 153.35" fill="none" opacity="1" stroke="#aa7754" stroke-linecap="round" stroke-linejoin="round" stroke-width="5.56"/>
<g opacity="1">
<path d="M688.216 122.401L688.347 141.862L688.484 162.267" fill="none" opacity="1" stroke="#aa7754" stroke-linecap="round" stroke-linejoin="round" stroke-width="5.56"/>
<path d="M688.312 122.324L710.903 122.057" fill="none" opacity="1" stroke="#aa7754" stroke-linecap="round" stroke-linejoin="round" stroke-width="5.56"/>
<path d="M689.163 138.514L704.588 138.565" fill="none" opacity="1" stroke="#aa7754" stroke-linecap="round" stroke-linejoin="round" stroke-width="5.56"/>
</g>
</g>
</g>
<path clip-path="url(#TextBounds)" d="M665.208 431.245C655.448 435.799 645.729 437.995 636.05 437.833C626.372 437.67 617.71 434.173 610.064 427.341C608.275 430.431 607.218 434.823 606.892 440.517C606.567 446.21 606.689 452.066 607.258 458.085C607.828 464.103 608.519 469.39 609.332 473.945C609.007 476.873 608.804 479.882 608.722 482.973C608.641 486.063 608.6 489.235 608.6 492.489C608.763 497.206 608.722 501.964 608.478 506.763C608.234 511.561 607.38 516.075 605.916 520.305C601.036 521.281 597.295 520.427 594.692 517.743C592.09 515.059 590.382 511.358 589.568 506.641C589.08 503.387 588.836 499.768 588.836 495.783C588.836 491.797 588.918 487.771 589.08 483.705C589.08 481.102 589.121 478.54 589.202 476.019C589.284 473.497 589.243 471.017 589.08 468.577C584.2 468.089 578.71 467.845 572.61 467.845C566.51 467.845 560.614 468.048 554.92 468.455C549.227 468.861 544.591 469.634 541.012 470.773C539.874 477.442 538.572 483.827 537.108 489.927C535.644 496.027 533.367 501.435 530.276 506.153C527.186 510.87 522.631 514.693 516.612 517.621C516.612 516.645 516.328 516.035 515.758 515.791C515.189 515.547 514.66 515.831 514.172 516.645C513.034 515.831 512.993 514.611 514.05 512.985C515.108 511.358 516.206 510.707 517.344 511.033C517.182 508.755 517.426 506.153 518.076 503.225C518.727 500.297 519.459 497.287 520.272 494.197C521.248 489.967 522.184 485.779 523.078 481.631C523.973 477.483 524.095 473.619 523.444 470.041C523.282 468.739 522.916 467.723 522.346 466.991C521.777 466.259 521.167 465.567 520.516 464.917C519.866 464.266 519.337 463.575 518.93 462.843C518.524 462.111 518.32 461.175 518.32 460.037C519.784 459.711 520.923 459.427 521.736 459.183C522.55 458.939 523.282 458.573 523.932 458.085C523.932 456.458 523.932 454.872 523.932 453.327C523.932 451.781 523.932 450.277 523.932 448.813C524.095 444.258 523.932 440.232 523.444 436.735C522.956 433.237 521.248 430.269 518.32 427.829C517.182 428.479 516.084 429.13 515.026 429.781C513.969 430.431 512.871 431.082 511.732 431.733C506.364 434.986 500.508 438.077 494.164 441.005C487.82 443.933 480.826 444.909 473.18 443.933C470.903 443.607 468.178 443.201 465.006 442.713C461.834 442.225 459.842 441.493 459.028 440.517C465.535 437.426 472.367 434.417 479.524 431.489C486.682 428.561 493.31 425.226 499.41 421.485C505.51 417.743 510.187 413.189 513.44 407.821C527.592 401.151 539.63 391.717 549.552 379.517C548.414 377.077 546.584 374.799 544.062 372.685C541.541 370.57 538.898 368.415 536.132 366.219C533.367 364.023 531.008 361.786 529.056 359.509C526.454 359.183 524.176 359.387 522.224 360.119C520.272 360.851 518.402 361.705 516.612 362.681C515.474 363.331 514.376 363.901 513.318 364.389C512.261 364.877 511.163 365.202 510.024 365.365C507.422 365.69 505.104 365.283 503.07 364.145C501.037 363.006 498.963 361.705 496.848 360.241C495.384 359.102 493.798 358.045 492.09 357.069C490.382 356.093 488.552 355.279 486.6 354.629C486.763 353.653 486.722 352.921 486.478 352.433C486.234 351.945 486.031 351.457 485.868 350.969C485.543 350.481 485.299 350.033 485.136 349.627C484.974 349.22 484.892 348.691 484.892 348.041C486.194 346.577 487.251 345.926 488.064 346.089C488.878 346.251 489.447 345.357 489.772 343.405C492.538 344.543 495.303 344.625 498.068 343.649C500.834 342.673 503.03 341.534 504.656 340.233C509.699 341.371 514.66 341.859 519.54 341.697C524.42 341.534 529.463 341.209 534.668 340.721C538.247 340.395 541.866 340.07 545.526 339.745C549.186 339.419 553.05 339.338 557.116 339.501C556.628 334.295 555.205 330.391 552.846 327.789C550.488 325.186 547.722 322.99 544.55 321.201C541.378 319.411 538.166 317.297 534.912 314.857C535.075 311.278 536.498 308.919 539.182 307.781C541.866 306.642 545.079 306.317 548.82 306.805C552.562 307.293 556.222 308.106 559.8 309.245C563.379 310.383 566.226 311.441 568.34 312.417C568.828 314.531 569.723 316.158 571.024 317.297C572.326 318.435 573.139 320.143 573.464 322.421C572.814 325.511 571.675 328.114 570.048 330.229C568.422 332.343 567.446 335.027 567.12 338.281C567.771 339.094 569.194 339.541 571.39 339.623C573.586 339.704 575.742 339.541 577.856 339.135C579.971 338.728 581.11 338.362 581.272 338.037C584.688 339.663 588.064 340.07 591.398 339.257C594.733 338.443 598.027 337.386 601.28 336.085C603.07 335.434 604.859 334.783 606.648 334.133C608.438 333.482 610.227 333.075 612.016 332.913C615.758 332.587 619.133 333.238 622.142 334.865C625.152 336.491 628.202 338.443 631.292 340.721C632.756 341.859 634.302 342.998 635.928 344.137C637.555 345.275 639.344 346.333 641.296 347.309C638.368 349.749 634.424 351.009 629.462 351.091C624.501 351.172 619.58 351.131 614.7 350.969C612.26 350.806 609.902 350.684 607.624 350.603C605.347 350.521 603.314 350.562 601.524 350.725C601.036 351.701 600.833 352.595 600.914 353.409C600.996 354.222 601.199 354.954 601.524 355.605C601.687 356.581 601.809 357.475 601.89 358.289C601.972 359.102 601.606 359.997 600.792 360.973C597.051 361.461 593.96 362.721 591.52 364.755C589.08 366.788 586.844 369.025 584.81 371.465C582.777 373.905 580.459 376.101 577.856 378.053C578.182 378.378 578.751 378.785 579.564 379.273C582.655 381.387 585.949 383.38 589.446 385.251C592.944 387.121 596.563 387.975 600.304 387.813C603.558 390.741 607.543 392.977 612.26 394.523C616.978 396.068 621.858 397.491 626.9 398.793C631.943 400.094 636.579 401.68 640.808 403.551C645.038 405.421 648.372 408.227 650.812 411.969C655.367 412.945 658.864 415.222 661.304 418.801C663.744 422.379 665.046 426.527 665.208 431.245ZM589.812 458.329C590.138 451.659 590.178 446.495 589.934 442.835C589.69 439.175 588.918 435.067 587.616 430.513C581.272 430.675 573.708 431.326 564.924 432.465C556.14 433.603 547.926 434.335 540.28 434.661C541.256 436.45 541.663 438.402 541.5 440.517C541.338 442.631 541.012 444.746 540.524 446.861C540.199 448.487 539.914 450.073 539.67 451.619C539.426 453.164 539.467 454.587 539.792 455.889C543.208 456.214 546.584 456.214 549.918 455.889C553.253 455.563 556.547 455.157 559.8 454.669C565.331 453.855 570.658 453.449 575.782 453.449C580.906 453.449 585.583 455.075 589.812 458.329ZM491.236 484.437C490.098 489.154 488.308 493.912 485.868 498.711C483.428 503.509 481.558 507.779 480.256 511.521C474.238 511.195 469.154 509.731 465.006 507.129C460.858 504.526 457.239 501.313 454.148 497.491C451.058 493.668 447.967 489.886 444.876 486.145C447.642 484.518 450.895 484.233 454.636 485.291C458.378 486.348 462.038 487.609 465.616 489.073C466.267 489.235 466.877 489.439 467.446 489.683C468.016 489.927 468.544 490.13 469.032 490.293C472.936 485.087 476.23 479.353 478.914 473.091C481.598 466.828 484.486 460.687 487.576 454.669C488.227 455.319 488.471 456.011 488.308 456.743C488.146 457.475 487.902 458.247 487.576 459.061C487.414 459.874 487.21 460.769 486.966 461.745C486.722 462.721 486.682 463.778 486.844 464.917C489.772 467.357 491.48 470.285 491.968 473.701C492.456 477.117 492.212 480.695 491.236 484.437ZM478.548 411.237C476.108 413.839 473.628 415.059 471.106 414.897C468.585 414.734 465.942 413.921 463.176 412.457C460.086 410.667 456.914 408.512 453.66 405.991C450.407 403.469 447.235 401.721 444.144 400.745C443.982 396.19 442.884 392.408 440.85 389.399C438.817 386.389 436.621 383.746 434.262 381.469C431.904 379.191 430.074 377.077 428.772 375.125C435.279 374.799 441.826 375.45 448.414 377.077C455.002 378.703 460.818 381.387 465.86 385.129C470.09 388.219 473.343 391.92 475.62 396.231C477.898 400.541 478.874 405.543 478.548 411.237ZM587.616 422.217C587.616 421.078 587.372 420.183 586.884 419.533C586.396 418.882 585.827 418.394 585.176 418.069C584.851 417.743 584.485 417.418 584.078 417.093C583.672 416.767 583.387 416.361 583.224 415.873C584.688 414.409 585.502 412.538 585.664 410.261C583.55 405.543 580.174 401.68 575.538 398.671C570.902 395.661 566.714 392.855 562.972 390.253C558.906 394.157 554.432 398.427 549.552 403.063C544.672 407.699 540.036 411.887 535.644 415.629C536.946 416.279 537.678 417.052 537.84 417.947C538.003 418.841 538.41 419.777 539.06 420.753C541.826 421.566 544.957 421.607 548.454 420.875C551.952 420.143 555.408 419.289 558.824 418.313C561.59 417.499 564.314 416.808 566.998 416.239C569.682 415.669 572.082 415.547 574.196 415.873C575.335 416.035 576.392 416.442 577.368 417.093C578.344 417.743 579.32 418.394 580.296 419.045C581.272 419.858 582.33 420.631 583.468 421.363C584.607 422.095 585.99 422.379 587.616 422.217ZM485.38 336.329C486.519 341.859 485.828 345.153 483.306 346.211C480.785 347.268 477.654 347.227 473.912 346.089C470.496 344.95 467.162 343.323 463.908 341.209C460.655 339.094 458.378 337.386 457.076 336.085C457.564 333.157 457.646 330.879 457.32 329.253C456.995 327.626 456.588 325.999 456.1 324.373C455.775 323.397 455.45 322.38 455.124 321.323C454.799 320.265 454.474 319.005 454.148 317.541C456.426 317.541 459.232 318.11 462.566 319.249C465.901 320.387 469.236 321.933 472.57 323.885C475.905 325.837 478.792 327.911 481.232 330.107C483.672 332.303 485.055 334.377 485.38 336.329ZM579.076 352.921C574.034 352.595 567.974 352.636 560.898 353.043C553.822 353.449 547.682 354.222 542.476 355.361C545.404 357.963 548.536 360.322 551.87 362.437C555.205 364.551 558.499 366.747 561.752 369.025C564.843 366.585 567.852 364.023 570.78 361.339C573.708 358.655 576.474 355.849 579.076 352.921Z" fill="#f3f4e1" opacity="1" stroke="none"/>
<g fill="#f3f4e1" opacity="1" stroke="none">
<path clip-path="url(#TextBounds_2)" d="M448.267 692.763C448.2 692.963 448.05 693.046 447.817 693.013C447.583 692.979 447.467 693.096 447.467 693.363C448.2 693.763 448.583 694.346 448.617 695.113C448.65 695.879 448.5 696.763 448.167 697.763C447.567 699.429 446.633 701.146 445.367 702.913C444.1 704.679 443.167 705.929 442.567 706.663C442.633 707.329 442.5 707.829 442.167 708.163C441.833 708.496 441.467 708.763 441.067 708.963C441 709.029 440.967 709.063 440.967 709.063C441.1 709.329 441.167 709.629 441.167 709.963C440.3 710.496 439.5 711.113 438.767 711.813C438.033 712.513 437.4 713.329 436.867 714.263L435.467 714.263C435.533 714.529 435.65 714.696 435.817 714.763C435.983 714.829 436.067 714.863 436.067 714.863C434.933 715.729 433.333 716.713 431.267 717.813C429.2 718.913 427.433 719.729 425.967 720.263C426.233 720.663 426.25 720.946 426.017 721.113C425.783 721.279 425.533 721.396 425.267 721.463C424.733 721.596 424.433 721.729 424.367 721.863C424.1 721.729 424.2 721.529 424.667 721.263C425.133 720.996 425.5 720.829 425.767 720.763C425.567 720.429 425.367 720.313 425.167 720.413C424.967 720.513 424.767 720.663 424.567 720.863C424.367 721.063 424.167 721.229 423.967 721.363C423.767 721.496 423.533 721.496 423.267 721.363C423.4 721.829 423.233 722.379 422.767 723.013C422.3 723.646 421.833 723.796 421.367 723.463C420.9 724.263 420.367 724.763 419.767 724.963C419.167 725.163 418.7 725.396 418.367 725.663C418.233 725.863 418.067 726.013 417.867 726.113C417.667 726.213 417.467 726.296 417.267 726.363C417.067 726.429 416.883 726.529 416.717 726.663C416.55 726.796 416.467 727.029 416.467 727.363C416.333 727.429 416.167 727.429 415.967 727.363C415.633 727.363 415.433 727.529 415.367 727.863C415.1 727.729 414.767 727.729 414.367 727.863C414.233 727.929 414.1 727.963 413.967 727.963C413.833 727.963 413.667 727.763 413.467 727.363C413.133 727.629 412.95 727.913 412.917 728.213C412.883 728.513 412.9 728.796 412.967 729.063C412.967 729.396 412.967 729.629 412.967 729.763C412.633 729.696 412.3 729.746 411.967 729.913C411.633 730.079 411.367 730.263 411.167 730.463C411.1 730.529 411.067 730.563 411.067 730.563C410.867 730.496 410.817 730.396 410.917 730.263C411.017 730.129 411.067 730.063 411.067 730.063C410.733 730.063 410.333 730.329 409.867 730.863C409.4 731.396 408.9 731.663 408.367 731.663C408.367 731.663 408.417 731.546 408.517 731.313C408.617 731.079 408.567 730.929 408.367 730.863C408.1 731.129 407.8 731.263 407.467 731.263C407.133 731.263 406.8 731.263 406.467 731.263C406.067 731.196 405.667 731.179 405.267 731.213C404.867 731.246 404.533 731.496 404.267 731.963C403.8 731.696 403.25 731.579 402.617 731.613C401.983 731.646 401.4 731.729 400.867 731.863C400.4 731.929 399.983 731.996 399.617 732.063C399.25 732.129 398.967 732.096 398.767 731.963C398.5 732.096 398.3 732.313 398.167 732.613C398.033 732.913 397.9 733.229 397.767 733.563C397.567 733.363 397.367 733.246 397.167 733.213C396.967 733.179 396.8 733.196 396.667 733.263C396.4 733.263 396.2 733.263 396.067 733.263C395.6 732.529 394.9 732.096 393.967 731.963C393.033 731.829 392.3 731.363 391.767 730.563C391.5 731.029 391.233 731.329 390.967 731.463C390.7 731.596 390.4 731.663 390.067 731.663C389 728.996 388.45 726.229 388.417 723.363C388.383 720.496 388.65 717.579 389.217 714.613C389.783 711.646 390.367 708.763 390.967 705.963C391.233 705.029 391.467 704.096 391.667 703.163C391.867 702.229 392.067 701.296 392.267 700.363C393 696.696 393.8 693.163 394.667 689.763C395.533 686.363 396.367 683.029 397.167 679.763C397.633 679.496 397.933 679.079 398.067 678.513C398.2 677.946 398.533 677.529 399.067 677.263C400.067 678.329 401.167 678.863 402.367 678.863C403.567 678.863 404.633 679.063 405.567 679.463C403.633 684.529 402.05 690.213 400.817 696.513C399.583 702.813 398.467 709.096 397.467 715.363C397.2 717.029 396.983 718.929 396.817 721.063C396.65 723.196 396.667 725.096 396.867 726.763C397.067 727.363 397.383 727.679 397.817 727.713C398.25 727.746 398.5 728.063 398.567 728.663C400.633 728.463 402.5 727.913 404.167 727.013C405.833 726.113 407.4 725.229 408.867 724.363C409.467 724.029 410.183 723.713 411.017 723.413C411.85 723.113 412.5 722.796 412.967 722.463C415.433 720.863 418 719.063 420.667 717.063C423.333 715.063 425.933 712.963 428.467 710.763C429.867 709.563 431.2 708.229 432.467 706.763C433.733 705.296 434.667 703.529 435.267 701.463C436.333 700.396 437.167 699.196 437.767 697.863C438.367 696.529 438.6 694.929 438.467 693.063C436.867 690.529 434.833 688.429 432.367 686.763C429.9 685.096 427.25 683.613 424.417 682.313C421.583 681.013 418.767 679.696 415.967 678.363C412.9 678.029 409.567 677.263 405.967 676.063C402.367 674.863 398.7 673.629 394.967 672.363C392.7 671.629 390.4 671.029 388.067 670.563C385.733 670.096 383.8 669.263 382.267 668.063C384.067 667.396 386.15 667.029 388.517 666.963C390.883 666.896 393.233 666.996 395.567 667.263C395.767 667.263 396.033 667.396 396.367 667.663C396.7 667.929 396.967 668.063 397.167 668.063C397.967 668.063 398.933 668.096 400.067 668.163C401.2 668.229 402.317 668.379 403.417 668.613C404.517 668.846 405.333 669.296 405.867 669.963C406.067 669.696 406.333 669.596 406.667 669.663C407 669.729 407.267 669.663 407.467 669.463C407.6 669.463 407.683 669.563 407.717 669.763C407.75 669.963 407.767 670.129 407.767 670.263C408.167 670.329 408.367 670.129 408.367 669.663C409.9 670.396 411.517 671.029 413.217 671.563C414.917 672.096 416.533 672.829 418.067 673.763C418.733 673.363 419.5 673.346 420.367 673.713C421.233 674.079 422.167 674.529 423.167 675.063C424.033 675.529 424.967 675.996 425.967 676.463C426.967 676.929 427.967 677.196 428.967 677.263C428.767 677.663 428.95 678.013 429.517 678.313C430.083 678.613 430.633 678.629 431.167 678.363C431.167 678.696 431.233 678.929 431.367 679.063C431.5 679.196 431.667 679.296 431.867 679.363C432 679.429 432.133 679.529 432.267 679.663C432.4 679.796 432.467 679.996 432.467 680.263C433.4 680.196 434.067 680.363 434.467 680.763C434.867 681.163 435.2 681.629 435.467 682.163C436.067 683.029 436.933 683.796 438.067 684.463C439.2 685.129 440.25 685.746 441.217 686.313C442.183 686.879 442.733 687.529 442.867 688.263C443.6 688.396 443.967 688.896 443.967 689.763C444.033 689.763 444.167 689.763 444.367 689.763C444.567 689.763 444.783 689.796 445.017 689.863C445.25 689.929 445.333 690.263 445.267 690.863C445.4 690.863 445.5 690.796 445.567 690.663C445.7 690.396 445.867 690.296 446.067 690.363C446.2 691.096 446.5 691.579 446.967 691.813C447.433 692.046 447.867 692.363 448.267 692.763ZM398.567 680.863C398.5 681.396 398.383 681.946 398.217 682.513C398.05 683.079 397.867 683.596 397.667 684.063C397.4 684.796 397.183 685.463 397.017 686.063C396.85 686.663 396.9 687.196 397.167 687.663C397.233 687.196 397.35 686.729 397.517 686.263C397.683 685.796 397.867 685.329 398.067 684.863C398.333 684.063 398.567 683.279 398.767 682.513C398.967 681.746 398.9 681.196 398.567 680.863ZM412.367 728.163C412.3 728.163 412.2 728.229 412.067 728.363C411.8 728.496 411.533 728.529 411.267 728.463C411.267 728.463 411.267 728.496 411.267 728.563C411.333 728.763 411.417 728.996 411.517 729.263C411.617 729.529 411.833 729.629 412.167 729.563C412.233 729.296 412.2 729.096 412.067 728.963C411.933 728.829 411.867 728.763 411.867 728.763C412.067 728.763 412.233 728.713 412.367 728.613C412.5 728.513 412.5 728.363 412.367 728.163Z"/>
<path clip-path="url(#TextBounds_2)" d="M535.167 705.463C534.9 705.529 534.217 705.663 533.117 705.863C532.017 706.063 531.1 706.229 530.367 706.363C529.1 706.496 527.967 706.979 526.967 707.813C525.967 708.646 524.9 709.129 523.767 709.263C523.5 709.329 523.183 709.329 522.817 709.263C522.45 709.196 522.133 709.129 521.867 709.063C521.533 708.996 521.333 708.963 521.267 708.963L521.167 708.963C520.633 709.029 519.633 709.113 518.167 709.213C516.7 709.313 515 709.329 513.067 709.263C512.8 709.329 512.6 709.396 512.467 709.463C512.333 709.529 512.2 709.629 512.067 709.763C511.867 709.896 511.65 710.013 511.417 710.113C511.183 710.213 510.8 710.196 510.267 710.063C510.133 711.529 509.583 712.513 508.617 713.013C507.65 713.513 506.5 714.229 505.167 715.163C504.633 715.563 504.183 716.063 503.817 716.663C503.45 717.263 502.967 717.796 502.367 718.263C502.1 718.529 501.733 718.729 501.267 718.863C500.8 718.996 500.4 719.196 500.067 719.463C498.4 720.796 496.417 722.113 494.117 723.413C491.817 724.713 489.55 725.996 487.317 727.263C485.083 728.529 483.133 729.863 481.467 731.263C480.2 731.996 479.033 732.429 477.967 732.563C476.9 732.696 475.9 732.763 474.967 732.763C474.3 732.763 473.633 732.779 472.967 732.813C472.3 732.846 471.633 732.996 470.967 733.263C470.5 733.063 470.05 732.729 469.617 732.263C469.183 731.796 468.967 731.363 468.967 730.963C468.7 731.096 468.417 731.146 468.117 731.113C467.817 731.079 467.5 731.029 467.167 730.963C467.1 730.963 467.033 730.963 466.967 730.963C465.967 729.363 465.267 727.363 464.867 724.963C464.467 722.563 464.283 720.029 464.317 717.363C464.35 714.696 464.5 712.163 464.767 709.763C464.967 708.229 465.283 706.196 465.717 703.663C466.15 701.129 466.667 698.396 467.267 695.463C467.867 692.529 468.517 689.646 469.217 686.813C469.917 683.979 470.633 681.479 471.367 679.313C472.1 677.146 472.8 675.596 473.467 674.663C474.133 673.729 475.2 672.963 476.667 672.363C478.133 671.763 479.75 671.346 481.517 671.113C483.283 670.879 484.967 670.879 486.567 671.113C488.167 671.346 489.433 671.829 490.367 672.563C489.033 673.296 487.583 673.746 486.017 673.913C484.45 674.079 482.983 674.279 481.617 674.513C480.25 674.746 479.2 675.296 478.467 676.163C477.8 676.963 477.117 678.529 476.417 680.863C475.717 683.196 475.033 685.946 474.367 689.113C473.7 692.279 473.083 695.563 472.517 698.963C471.95 702.363 471.483 705.529 471.117 708.463C470.75 711.396 470.5 713.729 470.367 715.463C470.3 716.529 470.283 717.529 470.317 718.463C470.35 719.396 470.4 720.296 470.467 721.163C470.533 721.896 470.583 722.613 470.617 723.313C470.65 724.013 470.667 724.763 470.667 725.563C472.067 725.629 473.35 725.413 474.517 724.913C475.683 724.413 476.8 723.896 477.867 723.363C478.4 723.096 478.9 722.829 479.367 722.563C479.833 722.296 480.3 722.096 480.767 721.963C481.9 721.563 483.1 720.879 484.367 719.913C485.633 718.946 486.9 717.946 488.167 716.913C489.433 715.879 490.6 715.096 491.667 714.563C491.733 714.496 491.9 714.396 492.167 714.263C492.633 713.996 493.217 713.713 493.917 713.413C494.617 713.113 495.233 713.029 495.767 713.163C496.433 712.363 497.25 711.696 498.217 711.163C499.183 710.629 499.9 709.896 500.367 708.963C500.3 708.829 499.85 709.129 499.017 709.863C498.183 710.596 497.6 711.129 497.267 711.463C497.067 711.329 497.2 710.996 497.667 710.463C498.133 709.929 498.633 709.429 499.167 708.963C499.5 708.696 499.767 708.463 499.967 708.263C500.167 708.063 500.3 707.896 500.367 707.763C498.767 706.896 497.2 706.013 495.667 705.113C494.133 704.213 492.867 703.029 491.867 701.563C491.733 698.563 491.733 695.463 491.867 692.263C492 689.063 492.25 686.046 492.617 683.213C492.983 680.379 493.5 678.029 494.167 676.163C494.033 674.963 494.117 674.013 494.417 673.313C494.717 672.613 495.067 671.896 495.467 671.163C495.6 670.963 495.7 670.829 495.767 670.763C495.7 670.496 495.7 670.163 495.767 669.763C495.833 669.563 495.883 669.363 495.917 669.163C495.95 668.963 495.9 668.729 495.767 668.463C496.7 668.196 497.467 667.879 498.067 667.513C498.667 667.146 499.433 666.629 500.367 665.963C503.767 666.896 507.117 668.529 510.417 670.863C513.717 673.196 516.683 675.963 519.317 679.163C521.95 682.363 523.933 685.763 525.267 689.363C525 689.763 524.733 690.163 524.467 690.563C524.2 690.963 523.8 691.229 523.267 691.363C523.733 692.496 523.633 693.579 522.967 694.613C522.3 695.646 521.533 696.663 520.667 697.663C520.067 698.396 519.517 699.113 519.017 699.813C518.517 700.513 518.167 701.229 517.967 701.963C519.033 702.229 520.25 702.313 521.617 702.213C522.983 702.113 524.333 701.963 525.667 701.763C526.533 701.696 527.317 701.629 528.017 701.563C528.717 701.496 529.3 701.496 529.767 701.563C530.633 701.629 531.533 701.846 532.467 702.213C533.4 702.579 534.1 702.829 534.567 702.963C534.5 703.296 534.5 703.546 534.567 703.713C534.633 703.879 534.733 704.029 534.867 704.163C535 704.296 535.117 704.446 535.217 704.613C535.317 704.779 535.3 705.063 535.167 705.463ZM515.867 690.263C515.133 689.329 514.7 688.196 514.567 686.863C514.433 685.529 514.2 684.296 513.867 683.163C513.533 682.029 512.7 681.396 511.367 681.263C511.433 680.196 511.117 679.213 510.417 678.313C509.717 677.413 509.1 676.963 508.567 676.963C508.567 676.963 508.733 677.129 509.067 677.463C509.4 677.796 509.683 678.146 509.917 678.513C510.15 678.879 510.133 679.129 509.867 679.263C509.667 679.063 509.467 678.829 509.267 678.563C509.067 678.296 508.867 678.029 508.667 677.763C507.867 676.696 506.95 675.663 505.917 674.663C504.883 673.663 503.6 673.296 502.067 673.563C501.067 677.029 500.217 680.763 499.517 684.763C498.817 688.763 498.6 693.229 498.867 698.163C500.2 698.829 501.65 699.329 503.217 699.663C504.783 699.996 506.367 700.329 507.967 700.663C508.7 699.996 509.517 699.129 510.417 698.063C511.317 696.996 511.933 695.896 512.267 694.763C513.133 694.963 513.883 694.496 514.517 693.363C515.15 692.229 515.6 691.196 515.867 690.263Z"/>
<path clip-path="url(#TextBounds_2)" d="M618.667 665.863C619.333 667.263 619.467 668.729 619.067 670.263C618.667 671.796 618.167 673.329 617.567 674.863C617.3 675.663 617.033 676.446 616.767 677.213C616.5 677.979 616.3 678.729 616.167 679.463C616.167 679.463 616.117 679.146 616.017 678.513C615.917 677.879 615.7 677.463 615.367 677.263C615.1 677.329 615 677.463 615.067 677.663C615.133 677.729 615.15 677.829 615.117 677.963C615.083 678.096 614.9 678.229 614.567 678.363C614.633 678.629 614.8 678.696 615.067 678.563C615.333 678.363 615.533 678.296 615.667 678.363C615.667 678.429 615.667 678.596 615.667 678.863C615.667 679.063 615.667 679.263 615.667 679.463C615.667 679.663 615.767 679.863 615.967 680.063C614.5 684.463 612.717 689.129 610.617 694.063C608.517 698.996 606.3 703.929 603.967 708.863C602.767 711.396 601.6 714.029 600.467 716.763C599.333 719.496 598.117 722.096 596.817 724.563C595.517 727.029 594 729.129 592.267 730.863C590.933 732.196 589.217 732.746 587.117 732.513C585.017 732.279 583.033 731.829 581.167 731.163C580.7 729.696 580.35 728.113 580.117 726.413C579.883 724.713 579.65 723.046 579.417 721.413C579.183 719.779 578.767 718.396 578.167 717.263C577.233 711.796 576.333 706.229 575.467 700.563C574.6 694.896 573.767 689.963 572.967 685.763C572.633 684.296 571.9 683.029 570.767 681.963C568.767 682.896 567.117 684.246 565.817 686.013C564.517 687.779 563.2 689.696 561.867 691.763C561.133 692.896 560.333 694.096 559.467 695.363C558.6 696.629 557.833 697.863 557.167 699.063C556.3 700.663 555.367 702.296 554.367 703.963C553.367 705.629 552.5 707.329 551.767 709.063C550.967 710.929 550.083 712.729 549.117 714.463C548.15 716.196 547.4 717.929 546.867 719.663C546.533 720.729 546.25 721.896 546.017 723.163C545.783 724.429 545.45 725.613 545.017 726.713C544.583 727.813 543.833 728.729 542.767 729.463C542.167 728.796 541.867 727.646 541.867 726.013C541.867 724.379 542.067 722.596 542.467 720.663C542.867 718.729 543.367 716.979 543.967 715.413C544.567 713.846 545.167 712.829 545.767 712.363C545.767 712.163 545.733 711.963 545.667 711.763C545.533 711.496 545.5 711.229 545.567 710.963C547.5 706.029 549.433 701.113 551.367 696.213C553.3 691.313 555.533 686.729 558.067 682.463C558.467 682.463 558.7 682.329 558.767 682.063C558.833 681.796 559.033 681.663 559.367 681.663C560.3 679.396 561.533 677.446 563.067 675.813C564.6 674.179 566 672.396 567.267 670.463C568.067 670.129 568.867 670.029 569.667 670.163C570.467 670.296 571.267 670.463 572.067 670.663C572.267 670.729 572.4 670.763 572.467 670.763C574.867 672.096 576.85 674.396 578.417 677.663C579.983 680.929 581.067 684.329 581.667 687.863C582 689.729 582.317 691.779 582.617 694.013C582.917 696.246 583.2 698.413 583.467 700.513C583.733 702.613 584.033 704.396 584.367 705.863C584.967 708.663 585.583 711.213 586.217 713.513C586.85 715.813 587.433 718.229 587.967 720.763C589.1 720.029 589.983 719.046 590.617 717.813C591.25 716.579 591.9 715.396 592.567 714.263C594.567 710.996 596.5 707.663 598.367 704.263C600.233 700.863 602.1 697.396 603.967 693.863C604.167 693.463 604.367 693.096 604.567 692.763C604.767 692.429 605.033 692.263 605.367 692.263C605.767 690.729 606.433 689.096 607.367 687.363C608.3 685.629 609.233 683.929 610.167 682.263C611.1 680.596 611.767 679.129 612.167 677.863C612.9 676.663 613.867 674.979 615.067 672.813C616.267 670.646 617.2 668.529 617.867 666.463C618.133 666.529 618.2 666.696 618.067 666.963C617.867 667.296 617.8 667.563 617.867 667.763C618.2 667.429 618.417 667.029 618.517 666.563C618.617 666.096 618.667 665.863 618.667 665.863Z"/>
<path clip-path="url(#TextBounds_2)" d="M700.267 664.363C700.267 664.363 700.267 664.429 700.267 664.563C700.267 664.896 700.167 665.096 699.967 665.163C696.633 666.763 693.333 668.363 690.067 669.963C686.8 671.563 683.667 673.329 680.667 675.263C680.333 675.463 680.017 675.763 679.717 676.163C679.417 676.563 679.1 676.896 678.767 677.163C677.033 678.363 675.2 679.396 673.267 680.263C671.333 681.129 669.417 682.013 667.517 682.913C665.617 683.813 663.833 684.963 662.167 686.363C662.033 686.429 662 686.529 662.067 686.663C662.133 686.863 662.167 687.029 662.167 687.163C661.833 687.163 661.583 687.213 661.417 687.313C661.25 687.413 661.1 687.563 660.967 687.763C660.767 687.963 660.533 688.146 660.267 688.313C660 688.479 659.567 688.563 658.967 688.563L659.467 689.063C658.533 689.729 657.633 690.446 656.767 691.213C655.9 691.979 655 692.729 654.067 693.463C653.267 695.063 652.183 696.379 650.817 697.413C649.45 698.446 648.067 699.463 646.667 700.463C646.733 700.996 646.5 701.579 645.967 702.213C645.433 702.846 644.933 703.396 644.467 703.863C644.4 703.929 644.333 703.996 644.267 704.063C644.067 704.596 643.85 705.129 643.617 705.663C643.383 706.196 642.967 706.563 642.367 706.763C641.9 708.296 641.867 709.646 642.267 710.813C642.667 711.979 643.4 713.029 644.467 713.963C646 715.229 647.917 716.346 650.217 717.313C652.517 718.279 654.8 719.296 657.067 720.363C659.8 721.629 662.2 722.613 664.267 723.313C666.333 724.013 668.433 724.546 670.567 724.913C672.7 725.279 675.267 725.663 678.267 726.063C679.4 726.196 680.45 726.363 681.417 726.563C682.383 726.763 683.3 727.129 684.167 727.663C684.633 727.729 684.983 727.696 685.217 727.563C685.45 727.429 685.667 727.296 685.867 727.163C686.067 727.029 686.233 726.929 686.367 726.863C686.633 726.863 686.867 726.996 687.067 727.263C687.133 727.463 687.25 727.613 687.417 727.713C687.583 727.813 687.867 727.796 688.267 727.663C688.267 728.129 688.3 728.546 688.367 728.913C688.433 729.279 688.533 729.596 688.667 729.863C688.8 730.396 688.883 730.913 688.917 731.413C688.95 731.913 688.733 732.496 688.267 733.163C686.667 733.496 685.117 733.729 683.617 733.863C682.117 733.996 680.633 734.063 679.167 734.063C674.967 733.996 671.033 733.396 667.367 732.263C663.7 731.129 660.15 729.763 656.717 728.163C653.283 726.563 649.867 725.029 646.467 723.563C645.133 722.096 643.467 720.779 641.467 719.613C639.467 718.446 637.867 717.063 636.667 715.463C636.2 714.796 635.683 713.913 635.117 712.813C634.55 711.713 634.117 710.579 633.817 709.413C633.517 708.246 633.467 707.263 633.667 706.463C634.267 703.929 635.417 701.396 637.117 698.863C638.817 696.329 640.8 693.913 643.067 691.613C645.333 689.313 647.667 687.179 650.067 685.213C652.467 683.246 654.7 681.563 656.767 680.163C657.5 679.629 658.483 679.113 659.717 678.613C660.95 678.113 661.967 677.629 662.767 677.163C662.967 677.029 663.117 676.863 663.217 676.663C663.317 676.463 663.433 676.263 663.567 676.063C664.9 675.596 666.167 675.046 667.367 674.413C668.567 673.779 669.833 673.229 671.167 672.763C671.7 672.229 672.117 671.796 672.417 671.463C672.717 671.129 673.3 670.829 674.167 670.563C674.367 670.629 674.433 670.796 674.367 671.063C674.3 671.329 674.4 671.463 674.667 671.463C675.333 671.529 675.6 671.063 675.467 670.063C677.733 669.596 680.067 668.896 682.467 667.963C684.867 667.029 687.267 666.113 689.667 665.213C692.067 664.313 694.4 663.763 696.667 663.563C697.267 663.496 697.9 663.513 698.567 663.613C699.233 663.713 699.8 663.963 700.267 664.363ZM696.167 702.363C696.1 703.029 695.867 703.446 695.467 703.613C695.067 703.779 694.65 703.879 694.217 703.913C693.783 703.946 693.533 704.163 693.467 704.563C692.267 704.896 690.533 705.113 688.267 705.213C686 705.313 683.567 705.379 680.967 705.413C678.367 705.446 675.9 705.529 673.567 705.663C673.167 705.663 672.783 705.696 672.417 705.763C672.05 705.829 671.7 705.896 671.367 705.963C670.9 706.029 670.45 706.079 670.017 706.113C669.583 706.146 669.167 706.163 668.767 706.163C665.767 705.963 662.917 705.346 660.217 704.313C657.517 703.279 654.9 702.629 652.367 702.363C652.567 701.896 652.817 701.629 653.117 701.563C653.417 701.496 653.767 701.463 654.167 701.463C654.367 701.463 654.567 701.463 654.767 701.463C654.967 701.463 655.167 701.429 655.367 701.363C655.3 701.163 655.133 701.029 654.867 700.963C654.6 700.896 654.333 700.829 654.067 700.763C655.067 699.696 656.15 699.046 657.317 698.813C658.483 698.579 660.1 698.429 662.167 698.363C663.1 698.363 664.1 698.329 665.167 698.263C666.233 698.196 667.333 698.163 668.467 698.163C671.467 698.029 674.567 697.929 677.767 697.863C680.967 697.796 683.9 697.863 686.567 698.063C689.233 698.263 691.267 698.729 692.667 699.463C693.533 699.929 694.117 700.513 694.417 701.213C694.717 701.913 695.3 702.296 696.167 702.363Z"/>
</g>
</g>
</svg>
