<?xml version="1.0" encoding="UTF-8" standalone="no"?>
<!DOCTYPE svg PUBLIC "-//W3C//DTD SVG 1.1//EN" "http://www.w3.org/Graphics/SVG/1.1/DTD/svg11.dtd">
<!-- Created with Vectornator (http://vectornator.io/) -->
<svg height="100%" stroke-miterlimit="10" style="fill-rule:nonzero;clip-rule:evenodd;stroke-linecap:round;stroke-linejoin:round;" version="1.1" viewBox="0 0 1024 1024" width="100%" xml:space="preserve" xmlns="http://www.w3.org/2000/svg" xmlns:xlink="http://www.w3.org/1999/xlink">
<defs>
<clipPath id="TextBounds">
<rect height="766.925" width="319" x="401.352" y="177.979"/>
</clipPath>
</defs>
<g id="main">
<g opacity="1">
<path d="M325.119 114.631L791.774 116.07L789.068 497.858C789.068 497.858 788.399 640.877 763.39 762.353C737.41 888.543 698.479 970.632 698.479 970.632L205.626 958.25C205.626 958.25 250.732 917.206 271.748 877.181C312.516 799.536 315.043 729.272 315.043 729.272L325.119 114.631Z" fill="#aa7754" fill-rule="nonzero" opacity="1" stroke="#f3f4e1" stroke-linecap="butt" stroke-linejoin="round" stroke-width="12.7"/>
<path d="M141.467 678.597L127.173 648.845C127.173 648.845 159.164 681.971 185.131 535.633C211.099 389.294 231.043 63.4907 231.043 63.4907L877.171 59.9175C877.171 59.9175 935.381 199.515 906.956 592.883C894.626 763.518 865.336 744.134 865.336 744.134L846.758 717.317C846.758 717.317 868.757 705.774 877.478 555.705C894.344 265.486 854.77 116.082 854.77 116.082L264.442 115.155C264.442 115.155 253.243 414.543 222.499 555.404C191.755 696.264 141.467 678.597 141.467 678.597Z" fill="#aa7754" fill-rule="nonzero" opacity="1" stroke="#f3f4e1" stroke-linecap="butt" stroke-linejoin="round" stroke-width="12.7"/>
<g opacity="1">
<path d="M628.165 117.118L764.537 117.118L764.537 178.523L628.165 178.523L628.165 117.118Z" fill="#aa7754" fill-rule="nonzero" opacity="1" stroke="#f3f4e1" stroke-linecap="round" stroke-linejoin="round" stroke-width="12.7"/>
<g opacity="1">
<path d="M648.632 127.317L648.9 167.183" fill="#aa7754" fill-rule="nonzero" opacity="1" stroke="#f3f4e1" stroke-linecap="round" stroke-linejoin="round" stroke-width="5.56"/>
<path d="M650.613 147.302L666.137 127.421L650.613 147.302Z" fill="#aa7754" fill-rule="nonzero" opacity="1" stroke="#f3f4e1" stroke-linecap="round" stroke-linejoin="round" stroke-width="5.56"/>
<path d="M656.433 147.415L667.875 166.916" fill="#aa7754" fill-rule="nonzero" opacity="1" stroke="#f3f4e1" stroke-linecap="round" stroke-linejoin="round" stroke-width="5.56"/>
</g>
<path d="M743.888 132.756C743.888 132.756 736.591 122.882 730.056 131.645C721.461 143.17 753.577 154.933 744.621 164.389C734.592 174.98 725.149 158.894 725.149 158.894" fill="#aa7754" fill-rule="nonzero" opacity="1" stroke="#f3f4e1" stroke-linecap="round" stroke-linejoin="round" stroke-width="5.56"/>
<g opacity="1">
<path d="M688.216 127.945L688.347 147.406L688.484 167.811" fill="#aa7754" fill-rule="nonzero" opacity="1" stroke="#f3f4e1" stroke-linecap="round" stroke-linejoin="round" stroke-width="5.56"/>
<path d="M688.312 127.867L710.903 127.6" fill="#aa7754" fill-rule="nonzero" opacity="1" stroke="#f3f4e1" stroke-linecap="round" stroke-linejoin="round" stroke-width="5.56"/>
<path d="M689.163 144.058L704.588 144.109" fill="#aa7754" fill-rule="nonzero" opacity="1" stroke="#f3f4e1" stroke-linecap="round" stroke-linejoin="round" stroke-width="5.56"/>
</g>
</g>
</g>
<path d="M325.119 114.631L791.774 116.07L789.068 497.858C789.068 497.858 788.399 640.877 763.39 762.353C737.41 888.543 698.479 970.632 698.479 970.632L205.626 958.25C205.626 958.25 250.732 917.206 271.748 877.181C312.516 799.536 315.043 729.272 315.043 729.272L325.119 114.631Z" fill="#aa7754" fill-rule="nonzero" opacity="1" stroke="#f3f4e1" stroke-linecap="butt" stroke-linejoin="round" stroke-width="12.7"/>
<path d="M141.467 678.597L127.173 648.845C127.173 648.845 159.164 681.971 185.131 535.633C211.099 389.294 231.043 63.4907 231.043 63.4907L877.171 59.9175C877.171 59.9175 935.381 199.515 906.956 592.883C894.626 763.518 865.336 744.134 865.336 744.134L846.758 717.317C846.758 717.317 868.757 705.774 877.478 555.705C894.344 265.486 854.77 116.082 854.77 116.082L264.442 115.155C264.442 115.155 253.243 414.543 222.499 555.404C191.755 696.264 141.467 678.597 141.467 678.597Z" fill="#aa7754" fill-rule="nonzero" opacity="1" stroke="#f3f4e1" stroke-linecap="butt" stroke-linejoin="round" stroke-width="12.7"/>
<g opacity="1">
<path d="M628.165 117.118L764.537 117.118L764.537 178.523L628.165 178.523L628.165 117.118Z" fill="#aa7754" fill-rule="nonzero" opacity="1" stroke="#f3f4e1" stroke-linecap="round" stroke-linejoin="round" stroke-width="12.7"/>
<g opacity="1">
<path d="M648.632 127.317L648.9 167.183" fill="#aa7754" fill-rule="nonzero" opacity="1" stroke="#f3f4e1" stroke-linecap="round" stroke-linejoin="round" stroke-width="5.56"/>
<path d="M650.613 147.302L666.137 127.421L650.613 147.302Z" fill="#aa7754" fill-rule="nonzero" opacity="1" stroke="#f3f4e1" stroke-linecap="round" stroke-linejoin="round" stroke-width="5.56"/>
<path d="M656.433 147.415L667.875 166.916" fill="#aa7754" fill-rule="nonzero" opacity="1" stroke="#f3f4e1" stroke-linecap="round" stroke-linejoin="round" stroke-width="5.56"/>
</g>
<path d="M743.888 132.756C743.888 132.756 736.591 122.882 730.056 131.645C721.461 143.17 753.577 154.933 744.621 164.389C734.592 174.98 725.149 158.894 725.149 158.894" fill="#aa7754" fill-rule="nonzero" opacity="1" stroke="#f3f4e1" stroke-linecap="round" stroke-linejoin="round" stroke-width="5.56"/>
<g opacity="1">
<path d="M688.216 127.945L688.347 147.406L688.484 167.811" fill="#aa7754" fill-rule="nonzero" opacity="1" stroke="#f3f4e1" stroke-linecap="round" stroke-linejoin="round" stroke-width="5.56"/>
<path d="M688.312 127.867L710.903 127.6" fill="#aa7754" fill-rule="nonzero" opacity="1" stroke="#f3f4e1" stroke-linecap="round" stroke-linejoin="round" stroke-width="5.56"/>
<path d="M689.163 144.058L704.588 144.109" fill="#aa7754" fill-rule="nonzero" opacity="1" stroke="#f3f4e1" stroke-linecap="round" stroke-linejoin="round" stroke-width="5.56"/>
</g>
</g>
<path d="M325.119 114.631L791.774 116.07L789.068 497.858C789.068 497.858 788.399 640.877 763.39 762.353C737.41 888.543 698.479 970.632 698.479 970.632L205.626 958.25C205.626 958.25 250.732 917.206 271.748 877.181C312.516 799.536 315.043 729.272 315.043 729.272L325.119 114.631Z" fill="#aa7754" fill-rule="nonzero" opacity="1" stroke="#aa7754" stroke-linecap="butt" stroke-linejoin="round" stroke-width="12.7"/>
<path d="M141.467 678.597L127.173 648.845C127.173 648.845 159.164 681.971 185.131 535.633C211.099 389.294 231.043 63.4907 231.043 63.4907L877.171 59.9175C877.171 59.9175 935.381 199.515 906.956 592.883C894.626 763.518 865.336 744.134 865.336 744.134L846.758 717.317C846.758 717.317 868.757 705.774 877.478 555.705C894.344 265.486 854.77 116.082 854.77 116.082L264.442 115.155C264.442 115.155 253.243 414.543 222.499 555.404C191.755 696.264 141.467 678.597 141.467 678.597Z" fill="#aa7754" fill-rule="nonzero" opacity="1" stroke="#aa7754" stroke-linecap="butt" stroke-linejoin="round" stroke-width="12.7"/>
<g opacity="1">
<path d="M628.165 111.574L764.537 111.574L764.537 172.979L628.165 172.979L628.165 111.574Z" fill="#f3f4e1" fill-rule="nonzero" opacity="1" stroke="#f3f4e1" stroke-linecap="round" stroke-linejoin="round" stroke-width="12.7"/>
<g opacity="1">
<g opacity="1">
<path d="M648.632 121.774L648.9 161.64" fill="none" opacity="1" stroke="#aa7754" stroke-linecap="round" stroke-linejoin="round" stroke-width="5.56"/>
<path d="M650.613 141.758L666.137 121.877L650.613 141.758Z" fill="none" opacity="1" stroke="#aa7754" stroke-linecap="round" stroke-linejoin="round" stroke-width="5.56"/>
<path d="M656.433 141.871L667.875 161.373" fill="none" opacity="1" stroke="#aa7754" stroke-linecap="round" stroke-linejoin="round" stroke-width="5.56"/>
</g>
<path d="M743.888 127.212C743.888 127.212 736.591 117.339 730.056 126.102C721.461 137.626 753.577 149.389 744.621 158.846C734.592 169.436 725.149 153.35 725.149 153.35" fill="none" opacity="1" stroke="#aa7754" stroke-linecap="round" stroke-linejoin="round" stroke-width="5.56"/>
<g opacity="1">
<path d="M688.216 122.401L688.347 141.862L688.484 162.267" fill="none" opacity="1" stroke="#aa7754" stroke-linecap="round" stroke-linejoin="round" stroke-width="5.56"/>
<path d="M688.312 122.324L710.903 122.057" fill="none" opacity="1" stroke="#aa7754" stroke-linecap="round" stroke-linejoin="round" stroke-width="5.56"/>
<path d="M689.163 138.514L704.588 138.565" fill="none" opacity="1" stroke="#aa7754" stroke-linecap="round" stroke-linejoin="round" stroke-width="5.56"/>
</g>
</g>
</g>
<g fill="#f3f4e1" opacity="1" stroke="none">
<path clip-path="url(#TextBounds)" d="M584.592 382.362C583.272 381.189 581.989 380.639 580.742 380.712C579.496 380.785 578.432 380.895 577.552 381.042C576.819 381.189 576.232 381.225 575.792 381.152C575.352 381.079 575.132 380.675 575.132 379.942C573.372 380.822 571.796 380.639 570.402 379.392C569.009 378.145 567.982 376.495 567.322 374.442C566.662 372.389 566.662 370.555 567.322 368.942C567.982 367.329 569.559 366.595 572.052 366.742C572.786 366.155 573.152 364.982 573.152 363.222C574.326 364.249 575.132 365.422 575.572 366.742C579.092 367.622 582.832 367.182 586.792 365.422C590.752 363.662 593.906 361.755 596.252 359.702C595.519 358.969 593.796 358.235 591.082 357.502C588.369 356.769 586.206 356.475 584.592 356.622C583.712 354.715 582.319 353.359 580.412 352.552C578.506 351.745 576.416 351.232 574.142 351.012C571.869 350.792 569.779 350.499 567.872 350.132C565.966 349.765 564.572 348.922 563.692 347.602C562.372 348.629 561.052 348.995 559.732 348.702C558.412 348.409 557.092 348.042 555.772 347.602C554.892 347.162 554.086 346.832 553.352 346.612C552.619 346.392 551.886 346.355 551.152 346.502C551.592 353.102 550.786 358.602 548.732 363.002C546.679 367.402 543.672 369.675 539.712 369.822C537.219 368.502 535.752 366.119 535.312 362.672C534.872 359.225 534.652 355.595 534.652 351.782C534.652 349.875 534.616 347.932 534.542 345.952C534.469 343.972 534.212 342.175 533.772 340.562C531.719 338.509 529.519 337.482 527.172 337.482C524.826 337.482 522.259 336.675 519.472 335.062C518.446 334.915 516.612 334.732 513.972 334.512C511.332 334.292 508.582 333.999 505.722 333.632C502.862 333.265 500.406 332.715 498.352 331.982C496.299 331.249 495.199 330.295 495.052 329.122C491.826 329.415 488.086 329.012 483.832 327.912C479.579 326.812 475.472 325.602 471.512 324.282C470.339 323.842 469.129 323.439 467.882 323.072C466.636 322.705 465.499 322.375 464.472 322.082C463.299 319.735 462.126 317.315 460.952 314.822C459.779 312.329 458.752 309.762 457.872 307.122C471.072 309.909 483.906 313.282 496.372 317.242C508.839 321.202 521.086 324.355 533.112 326.702C533.259 320.395 534.542 314.455 536.962 308.882C539.382 303.309 543.086 299.275 548.072 296.782C547.632 299.569 547.559 302.905 547.852 306.792C548.146 310.679 548.512 314.455 548.952 318.122C549.246 320.469 549.502 322.669 549.722 324.722C549.942 326.775 550.052 328.682 550.052 330.442C553.572 331.762 557.569 332.789 562.042 333.522C566.516 334.255 571.026 335.282 575.572 336.602C580.119 337.922 584.152 340.195 587.672 343.422C588.552 342.395 589.762 341.955 591.302 342.102C592.842 342.249 594.492 342.542 596.252 342.982C597.866 343.422 599.516 343.752 601.202 343.972C602.889 344.192 604.539 344.009 606.152 343.422C608.499 345.622 610.222 348.665 611.322 352.552C612.422 356.439 613.119 359.995 613.412 363.222C612.532 365.422 610.479 367.622 607.252 369.822C604.026 372.022 600.359 374.185 596.252 376.312C592.146 378.439 588.259 380.455 584.592 382.362Z"/>
<path clip-path="url(#TextBounds)" d="M470.193 496.982C470.486 496.102 470.339 495.515 469.753 495.222C469.166 494.929 468.433 494.635 467.553 494.342C466.526 494.049 465.609 493.645 464.803 493.132C463.996 492.619 463.959 491.775 464.693 490.602C467.919 489.722 471.403 489.135 475.143 488.842C478.883 488.549 482.439 488.035 485.813 487.302C489.186 486.569 491.826 485.102 493.733 482.902C490.506 479.969 487.353 476.595 484.272 472.782C481.192 468.969 478.406 466.622 475.912 465.742C475.326 464.569 474.739 463.359 474.152 462.112C473.566 460.865 472.906 459.655 472.172 458.482C470.119 454.375 468.212 450.159 466.452 445.832C464.692 441.505 464.106 437.069 464.692 432.522C465.279 428.415 466.342 424.125 467.882 419.652C469.422 415.179 471.806 411.695 475.032 409.202C476.059 408.762 476.976 408.542 477.782 408.542C478.589 408.542 479.286 407.955 479.872 406.782C499.526 409.129 516.026 414.519 529.372 422.952C542.719 431.385 553.646 442.642 562.152 456.722C562.886 457.162 563.436 457.785 563.802 458.592C564.169 459.399 564.792 459.949 565.672 460.242C564.352 462.295 563.399 464.605 562.812 467.172C562.226 469.739 561.859 472.269 561.712 474.762C554.526 479.749 546.423 483.892 537.403 487.192C528.383 490.492 519.326 493.755 510.233 496.982C508.179 496.835 506.089 496.909 503.963 497.202C501.836 497.495 499.673 497.862 497.473 498.302C493.219 499.035 488.783 499.549 484.163 499.842C479.543 500.135 474.886 499.182 470.193 496.982ZM510.893 480.042C512.359 479.749 515.073 479.089 519.033 478.062C522.993 477.035 527.246 475.679 531.792 473.992C536.339 472.305 540.336 470.399 543.782 468.272C547.229 466.145 549.026 463.909 549.172 461.562C544.772 454.962 539.822 449.645 534.322 445.612C528.822 441.579 522.772 438.132 516.172 435.272C509.572 432.412 502.312 429.222 494.392 425.702C493.952 426.142 493.329 426.362 492.522 426.362C491.716 426.362 490.872 426.215 489.992 425.922C489.112 425.775 488.232 425.665 487.352 425.592C486.472 425.519 485.812 425.702 485.372 426.142C484.052 431.129 484.089 435.822 485.482 440.222C486.876 444.622 488.526 448.875 490.432 452.982C491.752 455.622 492.889 458.189 493.842 460.682C494.796 463.175 495.272 465.595 495.272 467.942C496.739 468.089 498.499 468.969 500.552 470.582C502.606 472.195 504.622 473.955 506.603 475.862C508.583 477.769 510.013 479.162 510.893 480.042Z"/>
<path clip-path="url(#TextBounds)" d="M603.953 584.542C603.366 584.249 602.779 584.102 602.193 584.102C601.899 584.102 601.569 584.065 601.203 583.992C600.836 583.919 600.433 583.662 599.993 583.222C595.886 583.369 591.193 582.855 585.913 581.682C580.633 580.509 575.573 579.189 570.733 577.722C567.506 576.842 564.499 576.035 561.713 575.302C558.926 574.569 556.506 574.129 554.453 573.982C551.666 572.369 548.476 571.379 544.883 571.012C541.289 570.645 537.146 569.729 532.453 568.262C531.426 567.969 529.813 567.419 527.613 566.612C525.413 565.805 524.313 564.815 524.313 563.642C522.113 563.495 519.216 563.092 515.623 562.432C512.029 561.772 508.326 561.075 504.513 560.342C499.819 559.462 495.383 558.655 491.203 557.922C487.023 557.189 484.053 556.895 482.293 557.042C481.266 557.189 480.386 557.702 479.653 558.582C478.919 559.462 477.966 560.049 476.793 560.342C475.326 563.129 474.593 565.365 474.593 567.052C474.593 568.739 474.739 570.242 475.033 571.562C475.326 572.882 475.436 574.202 475.363 575.522C475.289 576.842 474.373 578.602 472.613 580.802C471.733 580.949 471.036 580.875 470.523 580.582C470.009 580.289 469.533 579.922 469.093 579.482C468.799 579.189 468.469 578.895 468.103 578.602C467.736 578.309 467.259 578.089 466.673 577.942C466.526 576.622 466.306 575.339 466.013 574.092C465.719 572.845 465.426 571.635 465.133 570.462C464.399 567.382 463.849 564.155 463.483 560.782C463.116 557.409 463.959 553.302 466.013 548.462C469.386 545.675 472.943 543.329 476.683 541.422C480.423 539.515 485.226 539.075 491.093 540.102C491.973 540.249 493.843 540.579 496.703 541.092C499.563 541.605 502.423 542.192 505.283 542.852C508.143 543.512 509.793 544.135 510.233 544.722C511.406 543.549 512.433 543.035 513.313 543.182C514.193 543.329 515.146 543.695 516.173 544.282C517.053 544.575 517.933 544.905 518.813 545.272C519.693 545.639 520.646 545.675 521.673 545.382C522.113 546.409 523.139 547.289 524.753 548.022C526.366 548.755 528.016 549.269 529.703 549.562C531.389 549.855 532.599 549.855 533.333 549.562C537.733 551.029 543.196 552.605 549.723 554.292C556.249 555.979 562.996 557.555 569.963 559.022C576.929 560.489 583.309 561.589 589.103 562.322C594.896 563.055 599.333 563.202 602.413 562.762C603.879 562.029 604.613 560.855 604.613 559.242C604.613 557.629 604.393 555.795 603.953 553.742C603.513 551.249 603.219 548.425 603.073 545.272C602.926 542.119 603.879 538.929 605.933 535.702C606.226 537.315 606.556 538.892 606.923 540.432C607.289 541.972 607.619 543.475 607.913 544.942C609.233 550.809 610.186 556.052 610.773 560.672C611.359 565.292 611.213 569.545 610.333 573.432C609.453 577.319 607.326 581.022 603.953 584.542Z"/>
<path clip-path="url(#TextBounds)" d="M554.673 706.202C554.526 706.055 554.233 705.835 553.793 705.542C553.353 705.102 552.839 704.699 552.253 704.332C551.666 703.965 551.006 703.855 550.273 704.002C549.979 701.802 549.906 699.529 550.053 697.182C550.199 694.835 550.419 692.342 550.713 689.702C551.153 684.715 551.299 679.729 551.153 674.742C551.006 669.755 548.953 665.575 544.993 662.202C539.713 664.255 533.846 667.005 527.393 670.452C520.939 673.899 514.413 677.272 507.813 680.572C501.213 683.872 494.906 686.035 488.893 687.062C483.466 688.235 479.579 687.685 477.233 685.412C474.886 683.139 472.393 679.509 469.753 674.522C467.993 671.149 466.636 667.665 465.683 664.072C464.729 660.479 464.839 655.749 466.013 649.882C466.746 646.509 467.626 643.869 468.653 641.962C469.679 640.055 470.926 637.855 472.393 635.362C474.446 631.842 476.463 628.432 478.443 625.132C480.423 621.832 482.953 619.229 486.033 617.322C487.499 617.615 489.149 617.689 490.983 617.542C492.816 617.395 494.539 617.249 496.153 617.102C497.473 616.955 498.646 616.845 499.673 616.772C500.699 616.699 501.506 616.735 502.093 616.882C502.386 618.642 501.836 621.025 500.443 624.032C499.049 627.039 497.399 630.375 495.493 634.042C493.146 638.295 490.909 642.695 488.783 647.242C486.656 651.789 485.739 655.822 486.033 659.342C486.326 664.475 488.379 667.409 492.193 668.142C496.006 668.875 499.966 668.069 504.073 665.722C505.246 665.135 506.456 664.475 507.703 663.742C508.949 663.009 510.233 662.275 511.553 661.542C516.393 658.755 521.563 656.005 527.063 653.292C532.563 650.579 538.319 648.782 544.333 647.902C550.346 647.022 556.506 647.829 562.813 650.322C566.333 660.589 567.139 670.635 565.233 680.462C563.326 690.289 559.806 698.869 554.673 706.202Z"/>
<path clip-path="url(#TextBounds)" d="M524.533 826.322C521.893 826.469 519.729 825.515 518.043 823.462C516.356 821.409 514.999 818.805 513.973 815.652C512.946 812.499 512.213 809.235 511.773 805.862C511.333 802.489 511.039 799.555 510.893 797.062C510.746 793.689 510.966 790.645 511.553 787.932C512.139 785.219 512.726 782.542 513.313 779.902C513.459 779.169 513.643 778.435 513.863 777.702C514.083 776.969 514.266 776.235 514.413 775.502C515.146 772.275 515.843 768.645 516.503 764.612C517.163 760.579 518.226 757.389 519.693 755.042C518.226 753.722 516.063 752.842 513.203 752.402C510.343 751.962 507.336 751.925 504.183 752.292C501.029 752.659 498.243 753.392 495.823 754.492C493.403 755.592 491.973 756.949 491.533 758.562C491.239 760.615 490.543 762.412 489.443 763.952C488.343 765.492 487.133 766.995 485.813 768.462C484.199 770.369 482.696 772.385 481.303 774.512C479.909 776.639 479.433 779.242 479.873 782.322C477.673 783.349 476.536 784.265 476.463 785.072C476.389 785.879 476.499 786.722 476.793 787.602C477.086 788.335 477.233 788.922 477.233 789.362C476.646 791.415 475.399 793.835 473.493 796.622C471.586 799.409 469.313 801.315 466.673 802.342C464.913 800.289 463.959 798.162 463.813 795.962C463.666 793.762 463.666 791.415 463.813 788.922C463.959 787.162 464.033 785.329 464.033 783.422C464.033 781.515 463.813 779.535 463.373 777.482C464.546 776.895 465.243 775.832 465.463 774.292C465.683 772.752 466.086 771.102 466.673 769.342C467.259 767.582 468.653 766.042 470.853 764.722C472.026 759.589 474.703 754.822 478.883 750.422C483.063 746.022 487.059 741.989 490.873 738.322C492.926 737.735 494.906 737.112 496.813 736.452C498.719 735.792 500.186 734.655 501.213 733.042C502.826 733.335 504.073 733.372 504.953 733.152C505.833 732.932 506.713 732.675 507.593 732.382C507.886 732.235 508.216 732.089 508.583 731.942C508.949 731.795 509.426 731.649 510.013 731.502C516.906 733.262 523.653 735.975 530.253 739.642C536.853 743.309 543.013 747.929 548.733 753.502C551.079 755.702 553.536 758.379 556.103 761.532C558.669 764.685 560.979 767.985 563.033 771.432C565.086 774.879 566.259 778.069 566.553 781.002C566.699 782.175 566.663 783.312 566.443 784.412C566.223 785.512 565.966 786.649 565.673 787.822C565.233 789.289 564.903 790.792 564.683 792.332C564.463 793.872 564.646 795.449 565.233 797.062C562.446 801.462 559.733 805.569 557.093 809.382C554.453 813.195 550.713 815.469 545.873 816.202C544.846 818.549 542.976 820.125 540.263 820.932C537.549 821.739 535.093 822.875 532.893 824.342C531.719 822.875 530.106 822.325 528.053 822.692C525.999 823.059 524.826 824.269 524.533 826.322ZM528.493 804.102C530.546 804.542 532.563 804.322 534.543 803.442C536.523 802.562 538.466 801.535 540.373 800.362C541.693 799.629 542.903 799.005 544.003 798.492C545.103 797.979 546.166 797.649 547.193 797.502C547.486 795.449 548.256 793.835 549.503 792.662C550.749 791.489 551.813 789.875 552.693 787.822C549.759 781.075 545.909 774.732 541.143 768.792C536.376 762.852 530.619 758.562 523.873 755.922C524.606 759.442 524.973 763.219 524.973 767.252C524.973 771.285 524.899 775.282 524.753 779.242C524.606 783.349 524.533 787.309 524.533 791.122C524.533 794.935 524.973 798.309 525.853 801.242C527.173 801.242 527.759 801.645 527.613 802.452C527.466 803.259 527.759 803.809 528.493 804.102Z"/>
</g>
</g>
</svg>
