<?xml version="1.0" encoding="UTF-8" standalone="no"?>
<!DOCTYPE svg PUBLIC "-//W3C//DTD SVG 1.1//EN" "http://www.w3.org/Graphics/SVG/1.1/DTD/svg11.dtd">
<!-- Created with Vectornator (http://vectornator.io/) -->
<svg height="100%" stroke-miterlimit="10" style="fill-rule:nonzero;clip-rule:evenodd;stroke-linecap:round;stroke-linejoin:round;" version="1.1" viewBox="0 0 1024 1024" width="100%" xml:space="preserve" xmlns="http://www.w3.org/2000/svg" xmlns:xlink="http://www.w3.org/1999/xlink">
<defs/>
<g id="main">
<g opacity="1">
<path d="M325.119 114.631L791.774 116.07L789.068 497.858C789.068 497.858 788.399 640.877 763.39 762.353C737.41 888.543 698.479 970.632 698.479 970.632L205.626 958.25C205.626 958.25 250.732 917.206 271.748 877.181C312.516 799.536 315.043 729.272 315.043 729.272L325.119 114.631Z" fill="#aa7754" fill-rule="nonzero" opacity="1" stroke="#f3f4e1" stroke-linecap="butt" stroke-linejoin="round" stroke-width="12.7"/>
<path d="M141.467 678.597L127.173 648.845C127.173 648.845 159.164 681.971 185.131 535.633C211.099 389.294 231.043 63.4907 231.043 63.4907L877.171 59.9175C877.171 59.9175 935.381 199.515 906.956 592.883C894.626 763.518 865.336 744.134 865.336 744.134L846.758 717.317C846.758 717.317 868.757 705.774 877.478 555.705C894.344 265.486 854.77 116.082 854.77 116.082L264.442 115.155C264.442 115.155 253.243 414.543 222.499 555.404C191.755 696.264 141.467 678.597 141.467 678.597Z" fill="#aa7754" fill-rule="nonzero" opacity="1" stroke="#f3f4e1" stroke-linecap="butt" stroke-linejoin="round" stroke-width="12.7"/>
<g opacity="1">
<path d="M628.165 117.118L764.537 117.118L764.537 178.523L628.165 178.523L628.165 117.118Z" fill="#aa7754" fill-rule="nonzero" opacity="1" stroke="#f3f4e1" stroke-linecap="round" stroke-linejoin="round" stroke-width="12.7"/>
<g opacity="1">
<path d="M648.632 127.317L648.9 167.183" fill="#aa7754" fill-rule="nonzero" opacity="1" stroke="#f3f4e1" stroke-linecap="round" stroke-linejoin="round" stroke-width="5.56"/>
<path d="M650.613 147.302L666.137 127.421L650.613 147.302Z" fill="#aa7754" fill-rule="nonzero" opacity="1" stroke="#f3f4e1" stroke-linecap="round" stroke-linejoin="round" stroke-width="5.56"/>
<path d="M656.433 147.415L667.875 166.916" fill="#aa7754" fill-rule="nonzero" opacity="1" stroke="#f3f4e1" stroke-linecap="round" stroke-linejoin="round" stroke-width="5.56"/>
</g>
<path d="M743.888 132.756C743.888 132.756 736.591 122.882 730.056 131.645C721.461 143.17 753.577 154.933 744.621 164.389C734.592 174.98 725.149 158.894 725.149 158.894" fill="#aa7754" fill-rule="nonzero" opacity="1" stroke="#f3f4e1" stroke-linecap="round" stroke-linejoin="round" stroke-width="5.56"/>
<g opacity="1">
<path d="M688.216 127.945L688.347 147.406L688.484 167.811" fill="#aa7754" fill-rule="nonzero" opacity="1" stroke="#f3f4e1" stroke-linecap="round" stroke-linejoin="round" stroke-width="5.56"/>
<path d="M688.312 127.867L710.903 127.6" fill="#aa7754" fill-rule="nonzero" opacity="1" stroke="#f3f4e1" stroke-linecap="round" stroke-linejoin="round" stroke-width="5.56"/>
<path d="M689.163 144.058L704.588 144.109" fill="#aa7754" fill-rule="nonzero" opacity="1" stroke="#f3f4e1" stroke-linecap="round" stroke-linejoin="round" stroke-width="5.56"/>
</g>
</g>
</g>
<path d="M325.119 114.631L791.774 116.07L789.068 497.858C789.068 497.858 788.399 640.877 763.39 762.353C737.41 888.543 698.479 970.632 698.479 970.632L205.626 958.25C205.626 958.25 250.732 917.206 271.748 877.181C312.516 799.536 315.043 729.272 315.043 729.272L325.119 114.631Z" fill="#aa7754" fill-rule="nonzero" opacity="1" stroke="#f3f4e1" stroke-linecap="butt" stroke-linejoin="round" stroke-width="12.7"/>
<path d="M141.467 678.597L127.173 648.845C127.173 648.845 159.164 681.971 185.131 535.633C211.099 389.294 231.043 63.4907 231.043 63.4907L877.171 59.9175C877.171 59.9175 935.381 199.515 906.956 592.883C894.626 763.518 865.336 744.134 865.336 744.134L846.758 717.317C846.758 717.317 868.757 705.774 877.478 555.705C894.344 265.486 854.77 116.082 854.77 116.082L264.442 115.155C264.442 115.155 253.243 414.543 222.499 555.404C191.755 696.264 141.467 678.597 141.467 678.597Z" fill="#aa7754" fill-rule="nonzero" opacity="1" stroke="#f3f4e1" stroke-linecap="butt" stroke-linejoin="round" stroke-width="12.7"/>
<g opacity="1">
<path d="M628.165 117.118L764.537 117.118L764.537 178.523L628.165 178.523L628.165 117.118Z" fill="#aa7754" fill-rule="nonzero" opacity="1" stroke="#f3f4e1" stroke-linecap="round" stroke-linejoin="round" stroke-width="12.7"/>
<g opacity="1">
<path d="M648.632 127.317L648.9 167.183" fill="#aa7754" fill-rule="nonzero" opacity="1" stroke="#f3f4e1" stroke-linecap="round" stroke-linejoin="round" stroke-width="5.56"/>
<path d="M650.613 147.302L666.137 127.421L650.613 147.302Z" fill="#aa7754" fill-rule="nonzero" opacity="1" stroke="#f3f4e1" stroke-linecap="round" stroke-linejoin="round" stroke-width="5.56"/>
<path d="M656.433 147.415L667.875 166.916" fill="#aa7754" fill-rule="nonzero" opacity="1" stroke="#f3f4e1" stroke-linecap="round" stroke-linejoin="round" stroke-width="5.56"/>
</g>
<path d="M743.888 132.756C743.888 132.756 736.591 122.882 730.056 131.645C721.461 143.17 753.577 154.933 744.621 164.389C734.592 174.98 725.149 158.894 725.149 158.894" fill="#aa7754" fill-rule="nonzero" opacity="1" stroke="#f3f4e1" stroke-linecap="round" stroke-linejoin="round" stroke-width="5.56"/>
<g opacity="1">
<path d="M688.216 127.945L688.347 147.406L688.484 167.811" fill="#aa7754" fill-rule="nonzero" opacity="1" stroke="#f3f4e1" stroke-linecap="round" stroke-linejoin="round" stroke-width="5.56"/>
<path d="M688.312 127.867L710.903 127.6" fill="#aa7754" fill-rule="nonzero" opacity="1" stroke="#f3f4e1" stroke-linecap="round" stroke-linejoin="round" stroke-width="5.56"/>
<path d="M689.163 144.058L704.588 144.109" fill="#aa7754" fill-rule="nonzero" opacity="1" stroke="#f3f4e1" stroke-linecap="round" stroke-linejoin="round" stroke-width="5.56"/>
</g>
</g>
<path d="M325.119 114.631L791.774 116.07L789.068 497.858C789.068 497.858 788.399 640.877 763.39 762.353C737.41 888.543 698.479 970.632 698.479 970.632L205.626 958.25C205.626 958.25 250.732 917.206 271.748 877.181C312.516 799.536 315.043 729.272 315.043 729.272L325.119 114.631Z" fill="#aa7754" fill-rule="nonzero" opacity="1" stroke="#aa7754" stroke-linecap="butt" stroke-linejoin="round" stroke-width="12.7"/>
<path d="M141.467 678.597L127.173 648.845C127.173 648.845 159.164 681.971 185.131 535.633C211.099 389.294 231.043 63.4907 231.043 63.4907L877.171 59.9175C877.171 59.9175 935.381 199.515 906.956 592.883C894.626 763.518 865.336 744.134 865.336 744.134L846.758 717.317C846.758 717.317 868.757 705.774 877.478 555.705C894.344 265.486 854.77 116.082 854.77 116.082L264.442 115.155C264.442 115.155 253.243 414.543 222.499 555.404C191.755 696.264 141.467 678.597 141.467 678.597Z" fill="#aa7754" fill-rule="nonzero" opacity="1" stroke="#aa7754" stroke-linecap="butt" stroke-linejoin="round" stroke-width="12.7"/>
<g opacity="1">
<path d="M628.165 111.574L764.537 111.574L764.537 172.979L628.165 172.979L628.165 111.574Z" fill="#f3f4e1" fill-rule="nonzero" opacity="1" stroke="#f3f4e1" stroke-linecap="round" stroke-linejoin="round" stroke-width="12.7"/>
<g opacity="1">
<g opacity="1">
<path d="M648.632 121.774L648.9 161.64" fill="none" opacity="1" stroke="#aa7754" stroke-linecap="round" stroke-linejoin="round" stroke-width="5.56"/>
<path d="M650.613 141.758L666.137 121.877L650.613 141.758Z" fill="none" opacity="1" stroke="#aa7754" stroke-linecap="round" stroke-linejoin="round" stroke-width="5.56"/>
<path d="M656.433 141.871L667.875 161.373" fill="none" opacity="1" stroke="#aa7754" stroke-linecap="round" stroke-linejoin="round" stroke-width="5.56"/>
</g>
<path d="M743.888 127.212C743.888 127.212 736.591 117.339 730.056 126.102C721.461 137.626 753.577 149.389 744.621 158.846C734.592 169.436 725.149 153.35 725.149 153.35" fill="none" opacity="1" stroke="#aa7754" stroke-linecap="round" stroke-linejoin="round" stroke-width="5.56"/>
<g opacity="1">
<path d="M688.216 122.401L688.347 141.862L688.484 162.267" fill="none" opacity="1" stroke="#aa7754" stroke-linecap="round" stroke-linejoin="round" stroke-width="5.56"/>
<path d="M688.312 122.324L710.903 122.057" fill="none" opacity="1" stroke="#aa7754" stroke-linecap="round" stroke-linejoin="round" stroke-width="5.56"/>
<path d="M689.163 138.514L704.588 138.565" fill="none" opacity="1" stroke="#aa7754" stroke-linecap="round" stroke-linejoin="round" stroke-width="5.56"/>
</g>
</g>
</g>
<g opacity="1">
<path d="M392.089 270.24L495.178 325.395L399.85 380.142" fill="none" opacity="1" stroke="#f3f4e1" stroke-linecap="round" stroke-linejoin="round" stroke-width="12.7"/>
<path d="M707.9 274.768L604.812 329.922L700.139 384.67" fill="none" opacity="1" stroke="#f3f4e1" stroke-linecap="round" stroke-linejoin="round" stroke-width="12.7"/>
<path d="M440.497 751.833L439.967 710.74L631.346 716.739C631.346 716.739 592.172 771.777 568.771 796.973C532.596 835.923 488.091 844.511 488.091 844.511" fill="none" opacity="1" stroke="#f3f4e1" stroke-linecap="round" stroke-linejoin="round" stroke-width="12.7"/>
<path d="M545.526 490.273L546.574 579.745" fill="none" opacity="1" stroke="#f3f4e1" stroke-linecap="round" stroke-linejoin="round" stroke-width="12.7"/>
</g>
</g>
</svg>
