<?xml version="1.0" encoding="UTF-8" standalone="no"?>
<!DOCTYPE svg PUBLIC "-//W3C//DTD SVG 1.1//EN" "http://www.w3.org/Graphics/SVG/1.1/DTD/svg11.dtd">
<!-- Created with Vectornator (http://vectornator.io/) -->
<svg height="100%" stroke-miterlimit="10" style="fill-rule:nonzero;clip-rule:evenodd;stroke-linecap:round;stroke-linejoin:round;" version="1.1" viewBox="0 0 1024 1024" width="100%" xml:space="preserve" xmlns="http://www.w3.org/2000/svg" xmlns:xlink="http://www.w3.org/1999/xlink">
<defs>
<clipPath id="TextBounds">
<rect height="701.739" width="461.162" x="313.344" y="126.83"/>
</clipPath>
<clipPath id="TextBounds_2">
<rect height="567.415" width="170.556" x="273.145" y="388.863"/>
</clipPath>
</defs>
<g id="main">
<g opacity="1">
<path d="M325.119 114.631L791.774 116.07L789.068 497.858C789.068 497.858 788.399 640.877 763.39 762.353C737.41 888.543 698.479 970.632 698.479 970.632L205.626 958.25C205.626 958.25 250.732 917.206 271.748 877.181C312.516 799.536 315.043 729.272 315.043 729.272L325.119 114.631Z" fill="#aa7754" fill-rule="nonzero" opacity="1" stroke="#f3f4e1" stroke-linecap="butt" stroke-linejoin="round" stroke-width="12.7"/>
<path d="M141.467 678.597L127.173 648.845C127.173 648.845 159.164 681.971 185.131 535.633C211.099 389.294 231.043 63.4907 231.043 63.4907L877.171 59.9175C877.171 59.9175 935.381 199.515 906.956 592.883C894.626 763.518 865.336 744.134 865.336 744.134L846.758 717.317C846.758 717.317 868.757 705.774 877.478 555.705C894.344 265.486 854.77 116.082 854.77 116.082L264.442 115.155C264.442 115.155 253.243 414.543 222.499 555.404C191.755 696.264 141.467 678.597 141.467 678.597Z" fill="#aa7754" fill-rule="nonzero" opacity="1" stroke="#f3f4e1" stroke-linecap="butt" stroke-linejoin="round" stroke-width="12.7"/>
<g opacity="1">
<path d="M628.165 117.118L764.537 117.118L764.537 178.523L628.165 178.523L628.165 117.118Z" fill="#aa7754" fill-rule="nonzero" opacity="1" stroke="#f3f4e1" stroke-linecap="round" stroke-linejoin="round" stroke-width="12.7"/>
<g opacity="1">
<path d="M648.632 127.317L648.9 167.183" fill="#aa7754" fill-rule="nonzero" opacity="1" stroke="#f3f4e1" stroke-linecap="round" stroke-linejoin="round" stroke-width="5.56"/>
<path d="M650.613 147.302L666.137 127.421L650.613 147.302Z" fill="#aa7754" fill-rule="nonzero" opacity="1" stroke="#f3f4e1" stroke-linecap="round" stroke-linejoin="round" stroke-width="5.56"/>
<path d="M656.433 147.415L667.875 166.916" fill="#aa7754" fill-rule="nonzero" opacity="1" stroke="#f3f4e1" stroke-linecap="round" stroke-linejoin="round" stroke-width="5.56"/>
</g>
<path d="M743.888 132.756C743.888 132.756 736.591 122.882 730.056 131.645C721.461 143.17 753.577 154.933 744.621 164.389C734.592 174.98 725.149 158.894 725.149 158.894" fill="#aa7754" fill-rule="nonzero" opacity="1" stroke="#f3f4e1" stroke-linecap="round" stroke-linejoin="round" stroke-width="5.56"/>
<g opacity="1">
<path d="M688.216 127.945L688.347 147.406L688.484 167.811" fill="#aa7754" fill-rule="nonzero" opacity="1" stroke="#f3f4e1" stroke-linecap="round" stroke-linejoin="round" stroke-width="5.56"/>
<path d="M688.312 127.867L710.903 127.6" fill="#aa7754" fill-rule="nonzero" opacity="1" stroke="#f3f4e1" stroke-linecap="round" stroke-linejoin="round" stroke-width="5.56"/>
<path d="M689.163 144.058L704.588 144.109" fill="#aa7754" fill-rule="nonzero" opacity="1" stroke="#f3f4e1" stroke-linecap="round" stroke-linejoin="round" stroke-width="5.56"/>
</g>
</g>
</g>
<path d="M325.119 114.631L791.774 116.07L789.068 497.858C789.068 497.858 788.399 640.877 763.39 762.353C737.41 888.543 698.479 970.632 698.479 970.632L205.626 958.25C205.626 958.25 250.732 917.206 271.748 877.181C312.516 799.536 315.043 729.272 315.043 729.272L325.119 114.631Z" fill="#aa7754" fill-rule="nonzero" opacity="1" stroke="#f3f4e1" stroke-linecap="butt" stroke-linejoin="round" stroke-width="12.7"/>
<path d="M141.467 678.597L127.173 648.845C127.173 648.845 159.164 681.971 185.131 535.633C211.099 389.294 231.043 63.4907 231.043 63.4907L877.171 59.9175C877.171 59.9175 935.381 199.515 906.956 592.883C894.626 763.518 865.336 744.134 865.336 744.134L846.758 717.317C846.758 717.317 868.757 705.774 877.478 555.705C894.344 265.486 854.77 116.082 854.77 116.082L264.442 115.155C264.442 115.155 253.243 414.543 222.499 555.404C191.755 696.264 141.467 678.597 141.467 678.597Z" fill="#aa7754" fill-rule="nonzero" opacity="1" stroke="#f3f4e1" stroke-linecap="butt" stroke-linejoin="round" stroke-width="12.7"/>
<g opacity="1">
<path d="M628.165 117.118L764.537 117.118L764.537 178.523L628.165 178.523L628.165 117.118Z" fill="#aa7754" fill-rule="nonzero" opacity="1" stroke="#f3f4e1" stroke-linecap="round" stroke-linejoin="round" stroke-width="12.7"/>
<g opacity="1">
<path d="M648.632 127.317L648.9 167.183" fill="#aa7754" fill-rule="nonzero" opacity="1" stroke="#f3f4e1" stroke-linecap="round" stroke-linejoin="round" stroke-width="5.56"/>
<path d="M650.613 147.302L666.137 127.421L650.613 147.302Z" fill="#aa7754" fill-rule="nonzero" opacity="1" stroke="#f3f4e1" stroke-linecap="round" stroke-linejoin="round" stroke-width="5.56"/>
<path d="M656.433 147.415L667.875 166.916" fill="#aa7754" fill-rule="nonzero" opacity="1" stroke="#f3f4e1" stroke-linecap="round" stroke-linejoin="round" stroke-width="5.56"/>
</g>
<path d="M743.888 132.756C743.888 132.756 736.591 122.882 730.056 131.645C721.461 143.17 753.577 154.933 744.621 164.389C734.592 174.98 725.149 158.894 725.149 158.894" fill="#aa7754" fill-rule="nonzero" opacity="1" stroke="#f3f4e1" stroke-linecap="round" stroke-linejoin="round" stroke-width="5.56"/>
<g opacity="1">
<path d="M688.216 127.945L688.347 147.406L688.484 167.811" fill="#aa7754" fill-rule="nonzero" opacity="1" stroke="#f3f4e1" stroke-linecap="round" stroke-linejoin="round" stroke-width="5.56"/>
<path d="M688.312 127.867L710.903 127.6" fill="#aa7754" fill-rule="nonzero" opacity="1" stroke="#f3f4e1" stroke-linecap="round" stroke-linejoin="round" stroke-width="5.56"/>
<path d="M689.163 144.058L704.588 144.109" fill="#aa7754" fill-rule="nonzero" opacity="1" stroke="#f3f4e1" stroke-linecap="round" stroke-linejoin="round" stroke-width="5.56"/>
</g>
</g>
<path d="M325.119 114.631L791.774 116.07L789.068 497.858C789.068 497.858 788.399 640.877 763.39 762.353C737.41 888.543 698.479 970.632 698.479 970.632L205.626 958.25C205.626 958.25 250.732 917.206 271.748 877.181C312.516 799.536 315.043 729.272 315.043 729.272L325.119 114.631Z" fill="#aa7754" fill-rule="nonzero" opacity="1" stroke="#aa7754" stroke-linecap="butt" stroke-linejoin="round" stroke-width="12.7"/>
<path d="M141.467 678.597L127.173 648.845C127.173 648.845 159.164 681.971 185.131 535.633C211.099 389.294 231.043 63.4907 231.043 63.4907L877.171 59.9175C877.171 59.9175 935.381 199.515 906.956 592.883C894.626 763.518 865.336 744.134 865.336 744.134L846.758 717.317C846.758 717.317 868.757 705.774 877.478 555.705C894.344 265.486 854.77 116.082 854.77 116.082L264.442 115.155C264.442 115.155 253.243 414.543 222.499 555.404C191.755 696.264 141.467 678.597 141.467 678.597Z" fill="#aa7754" fill-rule="nonzero" opacity="1" stroke="#aa7754" stroke-linecap="butt" stroke-linejoin="round" stroke-width="12.7"/>
<g opacity="1">
<path d="M628.165 111.574L764.537 111.574L764.537 172.979L628.165 172.979L628.165 111.574Z" fill="#f3f4e1" fill-rule="nonzero" opacity="1" stroke="#f3f4e1" stroke-linecap="round" stroke-linejoin="round" stroke-width="12.7"/>
<g opacity="1">
<g opacity="1">
<path d="M648.632 121.774L648.9 161.64" fill="none" opacity="1" stroke="#aa7754" stroke-linecap="round" stroke-linejoin="round" stroke-width="5.56"/>
<path d="M650.613 141.758L666.137 121.877L650.613 141.758Z" fill="none" opacity="1" stroke="#aa7754" stroke-linecap="round" stroke-linejoin="round" stroke-width="5.56"/>
<path d="M656.433 141.871L667.875 161.373" fill="none" opacity="1" stroke="#aa7754" stroke-linecap="round" stroke-linejoin="round" stroke-width="5.56"/>
</g>
<path d="M743.888 127.212C743.888 127.212 736.591 117.339 730.056 126.102C721.461 137.626 753.577 149.389 744.621 158.846C734.592 169.436 725.149 153.35 725.149 153.35" fill="none" opacity="1" stroke="#aa7754" stroke-linecap="round" stroke-linejoin="round" stroke-width="5.56"/>
<g opacity="1">
<path d="M688.216 122.401L688.347 141.862L688.484 162.267" fill="none" opacity="1" stroke="#aa7754" stroke-linecap="round" stroke-linejoin="round" stroke-width="5.56"/>
<path d="M688.312 122.324L710.903 122.057" fill="none" opacity="1" stroke="#aa7754" stroke-linecap="round" stroke-linejoin="round" stroke-width="5.56"/>
<path d="M689.163 138.514L704.588 138.565" fill="none" opacity="1" stroke="#aa7754" stroke-linecap="round" stroke-linejoin="round" stroke-width="5.56"/>
</g>
</g>
</g>
<g fill="#f3f4e1" opacity="1" stroke="none">
<path clip-path="url(#TextBounds)" d="M654.945 374.694C656.084 378.436 656.531 381.486 656.287 383.844C656.043 386.203 655.027 388.602 653.237 391.042C650.96 391.205 649.13 391.856 647.747 392.994C646.365 394.133 645.185 395.434 644.209 396.898C640.956 398.037 637.825 398.322 634.815 397.752C631.806 397.183 628.837 396.41 625.909 395.434C624.608 394.946 623.266 394.499 621.883 394.092C620.501 393.686 619.159 393.32 617.857 392.994C614.929 391.042 612.652 389.09 611.025 387.138C609.399 385.186 607.813 383.153 606.267 381.038C604.722 378.924 602.323 376.89 599.069 374.938C595.491 366.317 591.668 358.062 587.601 350.172C583.535 342.283 578.98 334.922 573.937 328.09C571.335 328.741 568.773 329.432 566.251 330.164C563.73 330.896 560.924 331.425 557.833 331.75C556.369 335.817 557.02 339.721 559.785 343.462C563.201 348.505 568 351.84 574.181 353.466C573.368 355.418 572.067 356.72 570.277 357.37C568.488 358.021 566.577 358.468 564.543 358.712C562.51 358.956 560.517 359.648 558.565 360.786C558.891 365.992 558.769 371.848 558.199 378.354C557.63 384.861 556.695 391.124 555.393 397.142C554.092 403.486 552.221 409.098 549.781 413.978C547.341 418.858 544.495 421.949 541.241 423.25C539.127 424.064 536.727 424.023 534.043 423.128C531.359 422.234 528.553 421.054 525.625 419.59C524.649 419.265 523.673 418.858 522.697 418.37C521.721 417.882 520.745 417.476 519.769 417.15C518.143 416.5 516.435 416.134 514.645 416.052C512.856 415.971 511.392 415.605 510.253 414.954C507.813 413.49 505.739 411.62 504.031 409.342C502.323 407.065 500.005 405.845 497.077 405.682C495.776 401.941 493.987 399.542 491.709 398.484C489.432 397.427 488.212 396.329 488.049 395.19C493.58 396.004 499.761 396.573 506.593 396.898C513.425 397.224 519.607 396.166 525.137 393.726C529.692 391.612 533.352 388.277 536.117 383.722C538.883 379.168 539.859 372.742 539.045 364.446C535.955 363.633 532.579 363.226 528.919 363.226C525.259 363.226 521.721 363.064 518.305 362.738C514.727 362.413 511.636 361.559 509.033 360.176C506.431 358.794 504.723 356.313 503.909 352.734C509.115 353.385 514.686 353.222 520.623 352.246C526.561 351.27 531.969 350.294 536.849 349.318C537.175 349.156 537.419 349.074 537.581 349.074C537.581 348.586 537.622 348.017 537.703 347.366C537.785 346.716 537.907 345.984 538.069 345.17C538.232 343.544 538.435 341.836 538.679 340.046C538.923 338.257 538.883 336.712 538.557 335.41C536.768 334.922 534.897 334.638 532.945 334.556C530.993 334.475 529.123 334.434 527.333 334.434C526.195 334.434 525.097 334.475 524.039 334.556C522.982 334.638 521.965 334.597 520.989 334.434C514.808 333.946 510.335 331.181 507.569 326.138C511.961 325 516.435 324.064 520.989 323.332C525.544 322.6 530.587 321.828 536.117 321.014C535.629 319.713 535.385 318.534 535.385 317.476C535.385 316.419 535.385 315.402 535.385 314.426C535.548 313.288 535.589 312.108 535.507 310.888C535.426 309.668 535.141 308.245 534.653 306.618C532.213 307.269 530.139 307.432 528.431 307.106C526.723 306.781 525.137 306.374 523.673 305.886C522.372 305.561 521.071 305.236 519.769 304.91C518.468 304.585 516.923 304.585 515.133 304.91C514.483 305.073 514.239 305.886 514.401 307.35C514.401 308.652 514.157 309.384 513.669 309.546C511.88 310.197 510.294 311.132 508.911 312.352C507.529 313.572 505.78 314.345 503.665 314.67C503.665 316.46 503.381 317.924 502.811 319.062C502.242 320.201 501.551 321.258 500.737 322.234C500.249 322.722 499.802 323.292 499.395 323.942C498.989 324.593 498.623 325.244 498.297 325.894C495.857 336.142 493.051 345.211 489.879 353.1C486.707 360.99 482.112 368.025 476.093 374.206C476.419 374.532 476.663 374.898 476.825 375.304C476.988 375.711 477.069 376.24 477.069 376.89C475.28 376.728 473.816 377.053 472.677 377.866C472.189 378.517 472.189 379.249 472.677 380.062C473.003 380.55 473.084 381.038 472.921 381.526C469.831 383.153 467.106 385.186 464.747 387.626C462.389 390.066 459.908 392.344 457.305 394.458C454.703 396.573 451.449 398.118 447.545 399.094C447.22 398.281 446.447 398.037 445.227 398.362C444.007 398.688 442.665 399.176 441.201 399.826C440.063 400.152 439.005 400.477 438.029 400.802C437.053 401.128 436.321 401.128 435.833 400.802C442.015 393.645 448.155 386.203 454.255 378.476C460.355 370.75 465.683 362.332 470.237 353.222C473.491 347.041 476.256 340.372 478.533 333.214C480.811 326.057 482.356 318.412 483.169 310.278C482.031 310.604 480.892 310.97 479.753 311.376C478.615 311.783 477.557 312.23 476.581 312.718C474.629 313.532 472.799 314.223 471.091 314.792C469.383 315.362 467.797 315.402 466.333 314.914C462.429 319.144 458.688 321.055 455.109 320.648C451.531 320.242 448.359 318.737 445.593 316.134C442.991 313.694 440.957 310.766 439.493 307.35C438.029 303.934 437.379 301.169 437.541 299.054C438.192 299.054 438.883 299.054 439.615 299.054C440.347 299.054 441.12 299.054 441.933 299.054C447.464 299.217 453.767 299.054 460.843 298.566C467.919 298.078 474.467 296.289 480.485 293.198C482.275 292.06 483.088 290.189 482.925 287.586C483.576 287.424 484.389 287.261 485.365 287.098C486.341 286.773 487.236 286.529 488.049 286.366C488.863 286.204 489.92 286.204 491.221 286.366C491.547 286.854 491.628 287.505 491.465 288.318C491.303 288.806 491.303 289.05 491.465 289.05C495.207 289.213 498.338 289.823 500.859 290.88C503.381 291.938 505.861 292.873 508.301 293.686C511.229 294.662 514.361 295.272 517.695 295.516C521.03 295.76 525.3 294.988 530.505 293.198C527.74 288.969 524.812 285.024 521.721 281.364C518.631 277.704 515.296 273.841 511.717 269.774L506.349 263.674C508.789 264 511.677 264.772 515.011 265.992C518.346 267.212 521.518 268.554 524.527 270.018C527.537 271.482 529.855 272.865 531.481 274.166C535.385 271.401 538.598 268.107 541.119 264.284C543.641 260.462 546.365 256.273 549.293 251.718C550.107 250.417 551.327 248.912 552.953 247.204C554.58 245.496 555.393 244.154 555.393 243.178C550.351 243.016 545.471 243.341 540.753 244.154C536.036 244.968 531.563 245.944 527.333 247.082C521.315 248.709 515.581 250.336 510.131 251.962C504.682 253.589 499.599 254.402 494.881 254.402C491.628 250.173 488.171 246.35 484.511 242.934C480.851 239.518 477.395 234.964 474.141 229.27C475.443 228.945 477.395 228.823 479.997 228.904C482.6 228.986 484.877 229.189 486.829 229.514C487.805 229.677 488.822 229.962 489.879 230.368C490.937 230.775 491.953 231.141 492.929 231.466C494.881 232.28 496.793 232.93 498.663 233.418C500.534 233.906 502.608 234.069 504.885 233.906C514.157 232.93 523.673 231.548 533.433 229.758C543.193 227.969 553.035 226.505 562.957 225.366C562.957 224.553 563.364 223.902 564.177 223.414C564.991 222.926 565.967 222.357 567.105 221.706C569.22 221.706 571.091 221.991 572.717 222.56C574.344 223.13 575.889 223.74 577.353 224.39C579.143 225.204 581.013 225.936 582.965 226.586C584.917 227.237 587.357 227.562 590.285 227.562C590.611 228.864 591.221 230.002 592.115 230.978C593.01 231.954 593.945 232.849 594.921 233.662C596.223 234.801 597.443 236.102 598.581 237.566C599.72 239.03 600.045 240.982 599.557 243.422C595.491 243.422 591.831 243.91 588.577 244.886C581.095 250.58 574.1 256.802 567.593 263.552C561.087 270.303 555.149 277.501 549.781 285.146L554.661 285.39C558.077 285.878 560.721 286.936 562.591 288.562C564.462 290.189 567.349 291.328 571.253 291.978C571.904 292.629 572.392 293.402 572.717 294.296C573.043 295.191 573.205 295.638 573.205 295.638C572.067 296.94 570.603 298.078 568.813 299.054C567.024 300.03 565.479 301.169 564.177 302.47C566.129 303.446 568 304.463 569.789 305.52C571.579 306.578 573.287 307.269 574.913 307.594C577.191 307.92 579.305 307.106 581.257 305.154C580.932 304.341 580.363 304.341 579.549 305.154C579.224 305.642 578.858 306.008 578.451 306.252C578.045 306.496 577.597 306.537 577.109 306.374C582.477 301.169 587.845 295.964 593.213 290.758C598.581 285.553 603.705 280.185 608.585 274.654C607.772 271.564 606.389 269.124 604.437 267.334C602.485 265.545 600.859 263.349 599.557 260.746C604.112 259.282 608.87 259.16 613.831 260.38C618.793 261.6 623.144 263.796 626.885 266.968C630.627 270.14 633.067 274.085 634.205 278.802C629.813 282.544 625.421 286.529 621.029 290.758C616.637 294.988 612.245 298.81 607.853 302.226C603.461 305.642 598.907 308.164 594.189 309.79C592.563 311.742 591.058 313.206 589.675 314.182C588.293 315.158 587.439 316.297 587.113 317.598C586.951 318.574 587.317 319.794 588.211 321.258C589.106 322.722 590.855 324.674 593.457 327.114C595.084 328.578 596.792 329.758 598.581 330.652C600.371 331.547 601.835 332.645 602.973 333.946C603.299 334.272 603.624 334.922 603.949 335.898C604.275 336.712 604.722 337.444 605.291 338.094C605.861 338.745 607.121 338.745 609.073 338.094L609.317 342.73C614.848 344.194 619.647 346.39 623.713 349.318C627.78 352.246 631.806 355.378 635.791 358.712C639.777 362.047 644.372 365.341 649.577 368.594C649.415 370.709 649.862 372.092 650.919 372.742C651.977 373.393 653.156 373.962 654.457 374.45C654.62 374.613 654.783 374.694 654.945 374.694ZM571.985 322.966C572.311 322.316 572.148 321.502 571.497 320.526C571.335 320.038 571.172 319.591 571.009 319.184C570.847 318.778 570.765 318.249 570.765 317.598C569.789 317.761 569.098 317.639 568.691 317.232C568.285 316.826 567.919 316.378 567.593 315.89C566.943 314.914 566.292 314.345 565.641 314.182C566.129 312.718 566.129 311.417 565.641 310.278C565.153 309.14 564.503 308.001 563.689 306.862C563.201 306.212 562.754 305.52 562.347 304.788C561.941 304.056 561.656 303.284 561.493 302.47C560.192 302.796 558.931 303.04 557.711 303.202C556.491 303.365 555.231 303.609 553.929 303.934C553.767 305.398 553.848 306.862 554.173 308.326C554.499 309.79 554.905 311.173 555.393 312.474C555.556 313.45 555.759 314.345 556.003 315.158C556.247 315.972 556.369 316.704 556.369 317.354C559.135 318.005 561.778 318.9 564.299 320.038C566.821 321.177 569.383 322.153 571.985 322.966Z"/>
<path clip-path="url(#TextBounds)" d="M658.849 649.858C658.361 652.624 656.897 654.454 654.457 655.348C652.017 656.243 649.74 657.341 647.625 658.642C646.324 660.92 645.104 663.319 643.965 665.84C642.827 668.362 640.875 670.029 638.109 670.842C637.784 676.536 637.377 683.408 636.889 691.46C636.401 699.512 635.669 707.605 634.693 715.738C633.717 723.872 632.335 731.11 630.545 737.454C630.708 739.406 631.562 740.667 633.107 741.236C634.653 741.806 635.507 743.066 635.669 745.018C633.392 745.669 631.318 746.523 629.447 747.58C627.577 748.638 625.828 749.329 624.201 749.654C617.857 747.865 610.944 747.174 603.461 747.58C595.979 747.987 588.252 748.597 580.281 749.41C576.54 749.736 572.799 750.102 569.057 750.508C565.316 750.915 561.575 751.2 557.833 751.362C556.207 748.109 554.011 745.466 551.245 743.432C548.48 741.399 546.691 738.349 545.877 734.282C547.667 729.402 548.602 724.197 548.683 718.666C548.765 713.136 548.724 707.036 548.561 700.366C548.399 697.113 548.277 693.738 548.195 690.24C548.114 686.743 548.073 683.042 548.073 679.138C544.495 674.258 541.404 669.744 538.801 665.596C536.199 661.448 532.539 657.748 527.821 654.494C530.099 652.217 532.661 650.509 535.507 649.37C538.354 648.232 540.672 646.361 542.461 643.758C549.781 642.62 557.671 641.725 566.129 641.074C574.588 640.424 582.965 639.692 591.261 638.878C599.557 638.065 606.959 636.845 613.465 635.218C613.791 634.405 613.75 633.632 613.343 632.9C612.937 632.168 612.733 631.802 612.733 631.802C617.125 630.826 620.907 630.786 624.079 631.68C627.251 632.575 630.383 633.673 633.473 634.974C635.425 635.788 637.459 636.56 639.573 637.292C641.688 638.024 643.965 638.553 646.405 638.878C646.243 640.993 647.585 643.026 650.431 644.978C653.278 646.93 656.084 648.557 658.849 649.858ZM543.193 685.238C541.079 687.841 537.541 689.468 532.579 690.118C527.618 690.769 522.25 691.216 516.475 691.46C510.701 691.704 505.455 692.558 500.737 694.022C500.737 694.022 501.835 694.592 504.031 695.73C506.227 696.869 508.464 698.333 510.741 700.122C519.525 706.304 526.764 714.315 532.457 724.156C538.151 733.998 541.485 745.425 542.461 758.438C541.811 759.902 540.997 760.756 540.021 761C539.045 761.244 537.988 761.366 536.849 761.366C536.036 761.366 535.304 761.407 534.653 761.488C534.003 761.57 533.352 761.773 532.701 762.098C529.285 760.797 526.479 758.804 524.283 756.12C522.087 753.436 520.135 750.468 518.427 747.214C516.719 743.961 514.727 741.033 512.449 738.43C512.775 731.598 512.002 725.946 510.131 721.472C508.261 716.999 506.187 712.729 503.909 708.662C503.096 707.198 502.283 705.775 501.469 704.392C500.656 703.01 499.924 701.586 499.273 700.122C497.484 705.165 495.329 710.98 492.807 717.568C490.286 724.156 487.439 730.663 484.267 737.088C481.095 743.514 477.476 749.166 473.409 754.046C473.247 754.209 472.84 754.209 472.189 754.046C471.539 753.884 471.132 753.884 470.969 754.046C469.017 755.998 466.699 758.723 464.015 762.22C461.331 765.718 458.525 768.442 455.597 770.394C453.645 771.696 451.653 772.387 449.619 772.468C447.586 772.55 445.512 771.533 443.397 769.418C442.259 769.093 440.754 769.052 438.883 769.296C437.013 769.54 436.077 769.662 436.077 769.662C445.024 763.481 452.181 756.161 457.549 747.702C462.917 739.244 467.391 730.541 470.969 721.594C472.108 718.992 473.328 715.942 474.629 712.444C475.931 708.947 477.069 705.816 478.045 703.05C479.021 700.285 479.509 698.902 479.509 698.902C473.003 702.969 466.089 705.165 458.769 705.49C453.239 705.653 447.993 704.433 443.031 701.83C438.07 699.228 434.125 695.405 431.197 690.362C435.915 688.898 441.283 687.76 447.301 686.946C453.32 686.133 459.542 685.279 465.967 684.384C472.393 683.49 478.452 682.229 484.145 680.602C486.911 669.541 487.643 660.228 486.341 652.664C485.04 645.1 482.031 637.821 477.313 630.826C475.036 631.965 473.003 633.795 471.213 636.316C469.424 638.838 467.635 641.522 465.845 644.368C464.056 647.215 462.185 649.777 460.233 652.054C458.281 654.332 456.004 655.714 453.401 656.202C451.124 656.69 449.375 656.568 448.155 655.836C446.935 655.104 445.837 654.25 444.861 653.274C444.048 652.461 443.153 651.729 442.177 651.078C441.201 650.428 439.981 650.021 438.517 649.858C442.747 644.002 447.098 638.268 451.571 632.656C456.045 627.044 460.071 620.985 463.649 614.478C465.927 610.574 467.879 606.386 469.505 601.912C471.132 597.439 472.352 592.681 473.165 587.638C471.213 585.036 469.424 582.352 467.797 579.586C466.171 576.821 465.113 573.893 464.625 570.802C469.343 569.338 474.385 569.216 479.753 570.436C485.121 571.656 489.595 574.096 493.173 577.756C496.752 581.416 498.297 586.256 497.809 592.274C497.647 595.365 496.752 598.09 495.125 600.448C493.499 602.807 491.791 605.166 490.001 607.524C488.212 609.883 486.911 612.689 486.097 615.942C489.188 616.756 492.685 617.04 496.589 616.796C500.493 616.552 504.194 615.82 507.691 614.6C511.189 613.38 513.751 611.876 515.377 610.086C520.908 611.062 526.113 612.404 530.993 614.112C535.873 615.82 539.533 618.87 541.973 623.262C534.979 625.865 528.147 627.532 521.477 628.264C514.808 628.996 507.732 630.257 500.249 632.046C503.665 636.276 505.414 641.278 505.495 647.052C505.577 652.827 505.292 658.805 504.641 664.986C504.479 666.938 504.275 668.89 504.031 670.842C503.787 672.794 503.665 674.746 503.665 676.698C509.684 677.186 513.263 675.641 514.401 672.062C518.305 673.201 522.087 674.014 525.747 674.502C529.407 674.99 532.783 675.926 535.873 677.308C538.964 678.691 541.404 681.334 543.193 685.238ZM610.781 731.11C611.757 723.14 612.449 714.518 612.855 705.246C613.262 695.974 613.262 686.743 612.855 677.552C612.449 668.362 611.432 659.781 609.805 651.81C609.317 651.81 608.504 651.81 607.365 651.81C602.16 651.648 596.833 651.607 591.383 651.688C585.934 651.77 580.729 652.542 575.767 654.006C570.806 655.47 566.373 657.992 562.469 661.57C564.584 666.938 565.723 673.201 565.885 680.358C566.048 687.516 566.048 694.754 565.885 702.074C565.885 707.605 565.885 713.054 565.885 718.422C565.885 723.79 566.373 728.589 567.349 732.818C570.928 733.469 574.303 733.672 577.475 733.428C580.647 733.184 583.86 732.818 587.113 732.33C590.367 731.842 593.905 731.436 597.727 731.11C601.55 730.785 605.901 730.785 610.781 731.11Z"/>
</g>
<g fill="#f3f4e1" opacity="1" stroke="none">
<path clip-path="url(#TextBounds_2)" d="M388.623 486.163C388.557 487.363 388.09 488.563 387.223 489.763C386.357 490.963 385.757 492.096 385.423 493.163C383.957 493.763 382.457 494.33 380.923 494.863C379.39 495.396 378.323 496.03 377.723 496.763L377.123 496.163C375.857 497.096 374.44 497.846 372.873 498.413C371.307 498.98 369.757 499.496 368.223 499.963C366.69 500.43 365.323 501.03 364.123 501.763C362.057 501.43 360.34 500.63 358.973 499.363C357.607 498.096 355.99 497.03 354.123 496.163C353.523 494.763 352.723 493.58 351.723 492.613C350.723 491.646 349.957 490.53 349.423 489.263C348.223 486.73 347.523 484.113 347.323 481.413C347.123 478.713 347.157 475.596 347.423 472.063C347.623 469.663 347.723 467.23 347.723 464.763C347.723 462.296 347.723 459.83 347.723 457.363C347.657 453.696 347.673 449.963 347.773 446.163C347.873 442.363 348.223 438.53 348.823 434.663C349.69 434.73 350.257 435.113 350.523 435.813C350.79 436.513 350.957 437.33 351.023 438.263C351.29 441.663 351.473 445.463 351.573 449.663C351.673 453.863 351.807 458.063 351.973 462.263C352.14 466.463 352.39 470.296 352.723 473.763C352.79 474.363 352.823 475.013 352.823 475.713C352.823 476.413 352.857 477.096 352.923 477.763C352.923 479.963 353.073 482.046 353.373 484.013C353.673 485.98 354.657 487.263 356.323 487.863C356.99 488.13 357.707 488.213 358.473 488.113C359.24 488.013 359.957 487.863 360.623 487.663C361.357 487.53 362.007 487.43 362.573 487.363C363.14 487.296 363.557 487.463 363.823 487.863C364.557 487.996 365.107 487.946 365.473 487.713C365.84 487.48 366.19 487.196 366.523 486.863C366.723 486.663 366.857 486.53 366.923 486.463C367.257 486.396 367.407 486.48 367.373 486.713C367.34 486.946 367.323 487.063 367.323 487.063C368.79 487.063 370.14 486.846 371.373 486.413C372.607 485.98 373.857 485.463 375.123 484.863C376.723 484.13 378.407 483.48 380.173 482.913C381.94 482.346 384.057 482.23 386.523 482.563C388.057 483.696 388.757 484.896 388.623 486.163ZM372.623 484.763C372.623 484.963 372.29 485.163 371.623 485.363C370.957 485.563 370.34 485.696 369.773 485.763C369.207 485.83 368.957 485.763 369.023 485.563C369.157 485.296 369.673 485.113 370.573 485.013C371.473 484.913 372.157 484.83 372.623 484.763Z"/>
<path clip-path="url(#TextBounds_2)" d="M379.723 641.863C379.457 641.863 379.207 641.946 378.973 642.113C378.74 642.28 378.49 642.463 378.223 642.663C377.89 642.93 377.54 643.163 377.173 643.363C376.807 643.563 376.39 643.53 375.923 643.263C375.59 643.263 375.49 643.563 375.623 644.163C375.757 644.63 375.69 644.863 375.423 644.863C375.157 644.863 374.89 644.763 374.623 644.563C374.49 644.43 374.34 644.33 374.173 644.263C374.007 644.196 373.723 644.163 373.323 644.163C372.257 642.63 371.29 641.03 370.423 639.363C369.557 637.696 368.69 635.996 367.823 634.263C367.09 634.996 366.39 635.796 365.723 636.663C365.057 637.53 364.39 638.396 363.723 639.263C363.457 639.196 363.123 639.196 362.723 639.263C362.39 639.396 362.123 639.396 361.923 639.263C359.457 641.396 356.907 643.43 354.273 645.363C351.64 647.296 348.557 649.03 345.023 650.563C344.49 650.23 343.973 650.046 343.473 650.013C342.973 649.98 342.49 649.963 342.023 649.963C341.423 649.963 340.823 649.93 340.223 649.863C339.623 649.796 338.99 649.463 338.323 648.863C337.79 648.996 337.257 649.063 336.723 649.063C336.19 649.063 335.69 649.03 335.223 648.963C334.823 648.896 334.523 648.863 334.323 648.863C334.257 648.263 333.957 647.83 333.423 647.563C332.89 647.296 332.49 646.93 332.223 646.463C332.09 646.196 332.023 645.963 332.023 645.763C332.023 645.563 332.023 645.396 332.023 645.263C332.09 644.996 332.107 644.78 332.073 644.613C332.04 644.446 331.823 644.296 331.423 644.163C331.757 642.83 332.073 641.413 332.373 639.913C332.673 638.413 333.223 637.096 334.023 635.963C335.557 633.83 337.59 631.63 340.123 629.363C342.657 627.096 345.373 625.13 348.273 623.463C351.173 621.796 353.89 620.83 356.423 620.563C356.89 620.496 357.357 620.48 357.823 620.513C358.29 620.546 358.757 620.596 359.223 620.663C359.557 620.73 359.873 620.78 360.173 620.813C360.473 620.846 360.79 620.863 361.123 620.863C361.39 620.196 361.523 619.346 361.523 618.313C361.523 617.28 361.457 616.196 361.323 615.063C360.523 614.596 359.14 614.263 357.173 614.063C355.207 613.863 353.323 613.596 351.523 613.263C350.257 612.996 349.207 612.663 348.373 612.263C347.54 611.863 347.123 611.33 347.123 610.663C347.123 610.063 347.54 609.58 348.373 609.213C349.207 608.846 350.257 608.53 351.523 608.263C353.19 607.93 354.973 607.68 356.873 607.513C358.773 607.346 360.257 607.23 361.323 607.163C361.323 606.63 361.273 606.013 361.173 605.313C361.073 604.613 360.99 603.863 360.923 603.063C360.723 601.463 360.523 599.763 360.323 597.963C360.123 596.163 360.09 594.496 360.223 592.963C356.023 593.096 352.157 592.746 348.623 591.913C345.09 591.08 341.69 590.163 338.423 589.163C338.09 589.096 337.74 589.013 337.373 588.913C337.007 588.813 336.657 588.696 336.323 588.563C336.39 587.563 336.823 586.913 337.623 586.613C338.423 586.313 339.057 585.896 339.523 585.363C342.057 585.163 344.157 584.896 345.823 584.563C347.49 584.23 349.14 583.946 350.773 583.713C352.407 583.48 354.39 583.363 356.723 583.363C356.79 583.696 357.09 583.846 357.623 583.813C358.157 583.78 358.757 583.73 359.423 583.663C359.757 583.596 360.023 583.563 360.223 583.563L360.523 576.363C361.257 576.963 361.657 577.98 361.723 579.413C361.79 580.846 361.857 581.863 361.923 582.463C362.39 582.463 362.907 582.446 363.473 582.413C364.04 582.38 364.657 582.33 365.323 582.263C366.857 582.13 368.49 582.046 370.223 582.013C371.957 581.98 373.49 582.096 374.823 582.363C376.357 582.63 377.507 583.263 378.273 584.263C379.04 585.263 379.023 586.796 378.223 588.863C375.957 589.73 373.457 590.413 370.723 590.913C367.99 591.413 365.457 591.896 363.123 592.363C362.857 594.03 362.973 596.146 363.473 598.713C363.973 601.28 364.49 603.73 365.023 606.063C365.09 606.33 365.123 606.496 365.123 606.563C365.523 606.563 365.923 606.546 366.323 606.513C366.723 606.48 367.157 606.43 367.623 606.363C368.69 606.296 369.79 606.246 370.923 606.213C372.057 606.18 373.09 606.23 374.023 606.363C375.157 606.496 376.073 606.813 376.773 607.313C377.473 607.813 377.857 608.63 377.923 609.763C377.657 610.63 377.273 611.33 376.773 611.863C376.273 612.396 375.657 612.83 374.923 613.163C373.79 613.63 372.49 613.93 371.023 614.063C369.557 614.196 368.09 614.43 366.623 614.763C366.223 615.83 366.007 617.13 365.973 618.663C365.94 620.196 366.057 621.23 366.323 621.763C366.923 622.763 367.84 623.563 369.073 624.163C370.307 624.763 371.323 625.496 372.123 626.363C372.657 626.963 373.157 627.713 373.623 628.613C374.09 629.513 374.557 630.33 375.023 631.063C375.157 631.196 375.323 631.43 375.523 631.763C376.657 633.296 377.657 634.83 378.523 636.363C379.39 637.896 379.79 639.73 379.723 641.863ZM361.623 629.063C361.357 628.73 360.957 628.496 360.423 628.363C359.89 628.23 359.423 628.063 359.023 627.863C358.223 628.063 357.023 628.43 355.423 628.963C353.823 629.496 352.273 630.213 350.773 631.113C349.273 632.013 348.19 633.163 347.523 634.563C346.123 635.096 344.823 636.196 343.623 637.863C342.423 639.53 341.357 641.13 340.423 642.663C340.757 642.863 340.84 643.063 340.673 643.263C340.507 643.463 340.423 643.563 340.423 643.563C342.69 643.63 344.823 643.263 346.823 642.463C348.823 641.663 350.69 640.646 352.423 639.413C354.157 638.18 355.79 636.963 357.323 635.763C357.723 635.43 358.107 635.113 358.473 634.813C358.84 634.513 359.223 634.23 359.623 633.963C359.623 633.23 359.94 632.546 360.573 631.913C361.207 631.28 361.557 630.33 361.623 629.063Z"/>
<path clip-path="url(#TextBounds_2)" d="M388.623 776.163C388.557 777.363 388.09 778.563 387.223 779.763C386.357 780.963 385.757 782.096 385.423 783.163C383.957 783.763 382.457 784.33 380.923 784.863C379.39 785.396 378.323 786.03 377.723 786.763L377.123 786.163C375.857 787.096 374.44 787.846 372.873 788.413C371.307 788.98 369.757 789.496 368.223 789.963C366.69 790.43 365.323 791.03 364.123 791.763C362.057 791.43 360.34 790.63 358.973 789.363C357.607 788.096 355.99 787.03 354.123 786.163C353.523 784.763 352.723 783.58 351.723 782.613C350.723 781.646 349.957 780.53 349.423 779.263C348.223 776.73 347.523 774.113 347.323 771.413C347.123 768.713 347.157 765.596 347.423 762.063C347.623 759.663 347.723 757.23 347.723 754.763C347.723 752.296 347.723 749.83 347.723 747.363C347.657 743.696 347.673 739.963 347.773 736.163C347.873 732.363 348.223 728.53 348.823 724.663C349.69 724.73 350.257 725.113 350.523 725.813C350.79 726.513 350.957 727.33 351.023 728.263C351.29 731.663 351.473 735.463 351.573 739.663C351.673 743.863 351.807 748.063 351.973 752.263C352.14 756.463 352.39 760.296 352.723 763.763C352.79 764.363 352.823 765.013 352.823 765.713C352.823 766.413 352.857 767.096 352.923 767.763C352.923 769.963 353.073 772.046 353.373 774.013C353.673 775.98 354.657 777.263 356.323 777.863C356.99 778.13 357.707 778.213 358.473 778.113C359.24 778.013 359.957 777.863 360.623 777.663C361.357 777.53 362.007 777.43 362.573 777.363C363.14 777.296 363.557 777.463 363.823 777.863C364.557 777.996 365.107 777.946 365.473 777.713C365.84 777.48 366.19 777.196 366.523 776.863C366.723 776.663 366.857 776.53 366.923 776.463C367.257 776.396 367.407 776.48 367.373 776.713C367.34 776.946 367.323 777.063 367.323 777.063C368.79 777.063 370.14 776.846 371.373 776.413C372.607 775.98 373.857 775.463 375.123 774.863C376.723 774.13 378.407 773.48 380.173 772.913C381.94 772.346 384.057 772.23 386.523 772.563C388.057 773.696 388.757 774.896 388.623 776.163ZM372.623 774.763C372.623 774.963 372.29 775.163 371.623 775.363C370.957 775.563 370.34 775.696 369.773 775.763C369.207 775.83 368.957 775.763 369.023 775.563C369.157 775.296 369.673 775.113 370.573 775.013C371.473 774.913 372.157 774.83 372.623 774.763Z"/>
<path clip-path="url(#TextBounds_2)" d="M369.123 890.763C369.19 892.03 368.923 893.063 368.323 893.863C367.723 894.663 366.923 895.363 365.923 895.963C364.657 896.696 363.207 897.313 361.573 897.813C359.94 898.313 358.49 898.896 357.223 899.563C356.29 899.43 355.423 899.213 354.623 898.913C353.823 898.613 353.057 898.463 352.323 898.463C350.723 901.263 349.39 904.13 348.323 907.063C347.257 909.996 346.273 912.913 345.373 915.813C344.473 918.713 343.423 921.563 342.223 924.363C341.023 927.163 339.457 929.863 337.523 932.463C337.323 932.396 337.123 932.38 336.923 932.413C336.723 932.446 336.523 932.463 336.323 932.463C335.79 932.596 335.423 932.496 335.223 932.163C335.157 931.83 335.223 931.53 335.423 931.263C335.557 930.996 335.59 930.73 335.523 930.463C335.057 930.596 334.673 930.613 334.373 930.513C334.073 930.413 333.757 930.296 333.423 930.163C333.157 930.03 332.89 929.93 332.623 929.863C332.357 929.796 332.057 929.796 331.723 929.863C333.99 923.996 336.207 918.046 338.373 912.013C340.54 905.98 342.723 900.03 344.923 894.163C343.857 892.963 342.207 891.313 339.973 889.213C337.74 887.113 335.34 884.88 332.773 882.513C330.207 880.146 327.857 877.93 325.723 875.863C326.323 875.063 326.957 874.696 327.623 874.763C328.29 874.83 328.957 874.963 329.623 875.163C329.957 875.296 330.307 875.413 330.673 875.513C331.04 875.613 331.39 875.63 331.723 875.563C331.723 875.763 331.79 875.93 331.923 876.063C332.057 876.263 332.09 876.496 332.023 876.763C334.757 878.296 337.49 879.896 340.223 881.563C342.957 883.23 345.557 884.963 348.023 886.763C348.49 886.096 349.073 885.096 349.773 883.763C350.473 882.43 351.24 881.063 352.073 879.663C352.907 878.263 353.757 877.096 354.623 876.163C355.357 875.43 356.19 874.93 357.123 874.663C358.057 874.396 358.757 874.03 359.223 873.563C359.957 872.896 360.69 872.696 361.423 872.963C362.157 873.23 362.857 873.73 363.523 874.463C364.39 875.463 365.04 876.68 365.473 878.113C365.907 879.546 365.99 880.796 365.723 881.863C365.857 882.196 366.023 882.48 366.223 882.713C366.423 882.946 366.657 883.163 366.923 883.363C366.79 883.63 366.69 883.946 366.623 884.313C366.557 884.68 366.457 885.03 366.323 885.363C366.923 885.563 367.24 885.796 367.273 886.063C367.307 886.33 367.29 886.596 367.223 886.863C367.157 887.063 367.123 887.28 367.123 887.513C367.123 887.746 367.157 887.963 367.223 888.163C367.29 888.296 367.49 888.363 367.823 888.363C368.09 888.363 368.257 888.396 368.323 888.463C368.457 888.663 368.39 888.763 368.123 888.763C367.857 888.763 367.723 888.763 367.723 888.763C367.723 888.963 367.957 889.28 368.423 889.713C368.89 890.146 369.123 890.496 369.123 890.763ZM391.123 905.063C391.057 905.263 390.94 905.43 390.773 905.563C390.607 905.696 390.457 905.796 390.323 905.863C390.057 905.93 389.873 906.03 389.773 906.163C389.673 906.296 389.757 906.596 390.023 907.063C388.157 908.13 386.14 908.98 383.973 909.613C381.807 910.246 379.157 910.63 376.023 910.763C373.423 910.83 370.99 911.146 368.723 911.713C366.457 912.28 363.757 912.63 360.623 912.763C361.357 910.63 362.623 908.996 364.423 907.863C366.223 906.73 367.89 905.496 369.423 904.163C369.957 904.23 370.407 904.196 370.773 904.063C371.14 903.93 371.49 903.763 371.823 903.563C372.157 903.363 372.49 903.213 372.823 903.113C373.157 903.013 373.557 903.063 374.023 903.263C376.357 901.53 378.907 900.813 381.673 901.113C384.44 901.413 387.123 902.063 389.723 903.063C390.123 903.263 390.44 903.563 390.673 903.963C390.907 904.363 391.057 904.73 391.123 905.063ZM396.623 932.463C396.157 932.396 395.69 932.38 395.223 932.413C394.757 932.446 394.557 932.73 394.623 933.263C392.957 933.93 391.19 934.446 389.323 934.813C387.457 935.18 385.59 935.163 383.723 934.763C381.657 934.363 379.69 933.613 377.823 932.513C375.957 931.413 374.123 930.63 372.323 930.163C372.457 929.163 372.89 928.463 373.623 928.063C374.357 927.663 374.957 927.13 375.423 926.463C377.957 926.663 380.607 926.813 383.373 926.913C386.14 927.013 388.623 927.43 390.823 928.163C392.157 928.563 393.323 929.096 394.323 929.763C395.323 930.43 396.09 931.33 396.623 932.463ZM362.023 883.863C360.757 883.73 359.773 883.913 359.073 884.413C358.373 884.913 357.79 885.563 357.323 886.363C356.857 887.23 356.39 888.18 355.923 889.213C355.457 890.246 355.023 891.13 354.623 891.863C354.823 891.996 354.973 892.18 355.073 892.413C355.173 892.646 355.29 892.863 355.423 893.063C356.557 892.73 357.723 892.23 358.923 891.563C360.123 890.896 361.057 890.096 361.723 889.163C362.257 888.43 362.573 887.63 362.673 886.763C362.773 885.896 362.557 884.93 362.023 883.863Z"/>
</g>
</g>
</svg>
