<?xml version="1.0" encoding="UTF-8" standalone="no"?>
<!DOCTYPE svg PUBLIC "-//W3C//DTD SVG 1.1//EN" "http://www.w3.org/Graphics/SVG/1.1/DTD/svg11.dtd">
<!-- Created with Vectornator (http://vectornator.io/) -->
<svg height="100%" stroke-miterlimit="10" style="fill-rule:nonzero;clip-rule:evenodd;stroke-linecap:round;stroke-linejoin:round;" version="1.1" viewBox="0 0 1294.84 1024" width="100%" xml:space="preserve" xmlns="http://www.w3.org/2000/svg" xmlns:xlink="http://www.w3.org/1999/xlink">
<defs/>
<g id="main">
<g opacity="1">
<path d="M455.391 114.631L922.046 116.07L919.339 497.858C919.339 497.858 918.67 640.877 893.661 762.353C867.681 888.543 828.751 970.632 828.751 970.632L335.897 958.25C335.897 958.25 381.004 917.206 402.019 877.181C442.788 799.536 445.314 729.272 445.314 729.272L455.391 114.631Z" fill="#aa7754" fill-rule="nonzero" opacity="1" stroke="#f3f4e1" stroke-linecap="butt" stroke-linejoin="round" stroke-width="12.7"/>
<path d="M271.738 678.597L257.445 648.845C257.445 648.845 289.435 681.971 315.403 535.633C341.37 389.294 361.314 63.4907 361.314 63.4907L1007.44 59.9175C1007.44 59.9175 1065.65 199.515 1037.23 592.883C1024.9 763.518 995.607 744.134 995.607 744.134L977.029 717.317C977.029 717.317 999.028 705.774 1007.75 555.705C1024.62 265.486 985.041 116.082 985.041 116.082L394.714 115.155C394.714 115.155 383.515 414.543 352.771 555.404C322.027 696.264 271.738 678.597 271.738 678.597Z" fill="#aa7754" fill-rule="nonzero" opacity="1" stroke="#f3f4e1" stroke-linecap="butt" stroke-linejoin="round" stroke-width="12.7"/>
<g opacity="1">
<path d="M758.436 117.118L894.809 117.118L894.809 178.523L758.436 178.523L758.436 117.118Z" fill="#aa7754" fill-rule="nonzero" opacity="1" stroke="#f3f4e1" stroke-linecap="round" stroke-linejoin="round" stroke-width="12.7"/>
<g opacity="1">
<path d="M778.903 127.317L779.171 167.183" fill="#aa7754" fill-rule="nonzero" opacity="1" stroke="#f3f4e1" stroke-linecap="round" stroke-linejoin="round" stroke-width="5.56"/>
<path d="M780.884 147.302L796.408 127.421L780.884 147.302Z" fill="#aa7754" fill-rule="nonzero" opacity="1" stroke="#f3f4e1" stroke-linecap="round" stroke-linejoin="round" stroke-width="5.56"/>
<path d="M786.705 147.415L798.146 166.916" fill="#aa7754" fill-rule="nonzero" opacity="1" stroke="#f3f4e1" stroke-linecap="round" stroke-linejoin="round" stroke-width="5.56"/>
</g>
<path d="M874.16 132.756C874.16 132.756 866.863 122.882 860.327 131.645C851.732 143.17 883.848 154.933 874.892 164.389C864.863 174.98 855.42 158.894 855.42 158.894" fill="#aa7754" fill-rule="nonzero" opacity="1" stroke="#f3f4e1" stroke-linecap="round" stroke-linejoin="round" stroke-width="5.56"/>
<g opacity="1">
<path d="M818.487 127.945L818.618 147.406L818.755 167.811" fill="#aa7754" fill-rule="nonzero" opacity="1" stroke="#f3f4e1" stroke-linecap="round" stroke-linejoin="round" stroke-width="5.56"/>
<path d="M818.584 127.867L841.174 127.6" fill="#aa7754" fill-rule="nonzero" opacity="1" stroke="#f3f4e1" stroke-linecap="round" stroke-linejoin="round" stroke-width="5.56"/>
<path d="M819.434 144.058L834.859 144.109" fill="#aa7754" fill-rule="nonzero" opacity="1" stroke="#f3f4e1" stroke-linecap="round" stroke-linejoin="round" stroke-width="5.56"/>
</g>
</g>
</g>
<path d="M455.391 114.631L922.046 116.07L919.339 497.858C919.339 497.858 918.67 640.877 893.661 762.353C867.681 888.543 828.751 970.632 828.751 970.632L335.897 958.25C335.897 958.25 381.004 917.206 402.019 877.181C442.788 799.536 445.314 729.272 445.314 729.272L455.391 114.631Z" fill="#aa7754" fill-rule="nonzero" opacity="1" stroke="#f3f4e1" stroke-linecap="butt" stroke-linejoin="round" stroke-width="12.7"/>
<path d="M271.738 678.597L257.445 648.845C257.445 648.845 289.435 681.971 315.403 535.633C341.37 389.294 361.314 63.4907 361.314 63.4907L1007.44 59.9175C1007.44 59.9175 1065.65 199.515 1037.23 592.883C1024.9 763.518 995.607 744.134 995.607 744.134L977.029 717.317C977.029 717.317 999.028 705.774 1007.75 555.705C1024.62 265.486 985.041 116.082 985.041 116.082L394.714 115.155C394.714 115.155 383.515 414.543 352.771 555.404C322.027 696.264 271.738 678.597 271.738 678.597Z" fill="#aa7754" fill-rule="nonzero" opacity="1" stroke="#f3f4e1" stroke-linecap="butt" stroke-linejoin="round" stroke-width="12.7"/>
<g opacity="1">
<path d="M758.436 117.118L894.809 117.118L894.809 178.523L758.436 178.523L758.436 117.118Z" fill="#aa7754" fill-rule="nonzero" opacity="1" stroke="#f3f4e1" stroke-linecap="round" stroke-linejoin="round" stroke-width="12.7"/>
<g opacity="1">
<path d="M778.903 127.317L779.171 167.183" fill="#aa7754" fill-rule="nonzero" opacity="1" stroke="#f3f4e1" stroke-linecap="round" stroke-linejoin="round" stroke-width="5.56"/>
<path d="M780.884 147.302L796.408 127.421L780.884 147.302Z" fill="#aa7754" fill-rule="nonzero" opacity="1" stroke="#f3f4e1" stroke-linecap="round" stroke-linejoin="round" stroke-width="5.56"/>
<path d="M786.705 147.415L798.146 166.916" fill="#aa7754" fill-rule="nonzero" opacity="1" stroke="#f3f4e1" stroke-linecap="round" stroke-linejoin="round" stroke-width="5.56"/>
</g>
<path d="M874.16 132.756C874.16 132.756 866.863 122.882 860.327 131.645C851.732 143.17 883.848 154.933 874.892 164.389C864.863 174.98 855.42 158.894 855.42 158.894" fill="#aa7754" fill-rule="nonzero" opacity="1" stroke="#f3f4e1" stroke-linecap="round" stroke-linejoin="round" stroke-width="5.56"/>
<g opacity="1">
<path d="M818.487 127.945L818.618 147.406L818.755 167.811" fill="#aa7754" fill-rule="nonzero" opacity="1" stroke="#f3f4e1" stroke-linecap="round" stroke-linejoin="round" stroke-width="5.56"/>
<path d="M818.584 127.867L841.174 127.6" fill="#aa7754" fill-rule="nonzero" opacity="1" stroke="#f3f4e1" stroke-linecap="round" stroke-linejoin="round" stroke-width="5.56"/>
<path d="M819.434 144.058L834.859 144.109" fill="#aa7754" fill-rule="nonzero" opacity="1" stroke="#f3f4e1" stroke-linecap="round" stroke-linejoin="round" stroke-width="5.56"/>
</g>
</g>
<path d="M455.391 114.631L922.046 116.07L919.339 497.858C919.339 497.858 918.67 640.877 893.661 762.353C867.681 888.543 828.751 970.632 828.751 970.632L335.897 958.25C335.897 958.25 381.004 917.206 402.019 877.181C442.788 799.536 445.314 729.272 445.314 729.272L455.391 114.631Z" fill="#aa7754" fill-rule="nonzero" opacity="1" stroke="#aa7754" stroke-linecap="butt" stroke-linejoin="round" stroke-width="12.7"/>
<path d="M271.738 678.597L257.445 648.845C257.445 648.845 289.435 681.971 315.403 535.633C341.37 389.294 361.314 63.4907 361.314 63.4907L1007.44 59.9175C1007.44 59.9175 1065.65 199.515 1037.23 592.883C1024.9 763.518 995.607 744.134 995.607 744.134L977.029 717.317C977.029 717.317 999.028 705.774 1007.75 555.705C1024.62 265.486 985.041 116.082 985.041 116.082L394.714 115.155C394.714 115.155 383.515 414.543 352.771 555.404C322.027 696.264 271.738 678.597 271.738 678.597Z" fill="#aa7754" fill-rule="nonzero" opacity="1" stroke="#aa7754" stroke-linecap="butt" stroke-linejoin="round" stroke-width="12.7"/>
<g opacity="1">
<path d="M758.436 111.574L894.809 111.574L894.809 172.979L758.436 172.979L758.436 111.574Z" fill="#f3f4e1" fill-rule="nonzero" opacity="1" stroke="#f3f4e1" stroke-linecap="round" stroke-linejoin="round" stroke-width="12.7"/>
<g opacity="1">
<g opacity="1">
<path d="M778.903 121.774L779.171 161.64" fill="none" opacity="1" stroke="#aa7754" stroke-linecap="round" stroke-linejoin="round" stroke-width="5.56"/>
<path d="M780.884 141.758L796.408 121.877L780.884 141.758Z" fill="none" opacity="1" stroke="#aa7754" stroke-linecap="round" stroke-linejoin="round" stroke-width="5.56"/>
<path d="M786.705 141.871L798.146 161.373" fill="none" opacity="1" stroke="#aa7754" stroke-linecap="round" stroke-linejoin="round" stroke-width="5.56"/>
</g>
<path d="M874.16 127.212C874.16 127.212 866.863 117.339 860.327 126.102C851.732 137.626 883.848 149.389 874.892 158.846C864.863 169.436 855.42 153.35 855.42 153.35" fill="none" opacity="1" stroke="#aa7754" stroke-linecap="round" stroke-linejoin="round" stroke-width="5.56"/>
<g opacity="1">
<path d="M818.487 122.401L818.618 141.862L818.755 162.267" fill="none" opacity="1" stroke="#aa7754" stroke-linecap="round" stroke-linejoin="round" stroke-width="5.56"/>
<path d="M818.584 122.324L841.174 122.057" fill="none" opacity="1" stroke="#aa7754" stroke-linecap="round" stroke-linejoin="round" stroke-width="5.56"/>
<path d="M819.434 138.514L834.859 138.565" fill="none" opacity="1" stroke="#aa7754" stroke-linecap="round" stroke-linejoin="round" stroke-width="5.56"/>
</g>
</g>
</g>
<g opacity="1">
<path d="M522.36 270.24L625.449 325.395L530.122 380.142" fill="none" opacity="1" stroke="#f3f4e1" stroke-linecap="round" stroke-linejoin="round" stroke-width="12.7"/>
<path d="M838.172 274.768L735.083 329.922L830.41 384.67" fill="none" opacity="1" stroke="#f3f4e1" stroke-linecap="round" stroke-linejoin="round" stroke-width="12.7"/>
<path d="M570.768 751.833L570.239 710.74L761.618 716.739C761.618 716.739 722.443 771.777 699.042 796.973C662.867 835.923 618.362 844.511 618.362 844.511" fill="none" opacity="1" stroke="#f3f4e1" stroke-linecap="round" stroke-linejoin="round" stroke-width="12.7"/>
<path d="M675.797 490.273L676.845 579.745" fill="none" opacity="1" stroke="#f3f4e1" stroke-linecap="round" stroke-linejoin="round" stroke-width="12.7"/>
</g>
</g>
</svg>
