<?xml version="1.0" encoding="UTF-8" standalone="no"?>
<!DOCTYPE svg PUBLIC "-//W3C//DTD SVG 1.1//EN" "http://www.w3.org/Graphics/SVG/1.1/DTD/svg11.dtd">
<!-- Created with Vectornator (http://vectornator.io/) -->
<svg height="100%" stroke-miterlimit="10" style="fill-rule:nonzero;clip-rule:evenodd;stroke-linecap:round;stroke-linejoin:round;" version="1.1" viewBox="0 0 1024 1024" width="100%" xml:space="preserve" xmlns="http://www.w3.org/2000/svg" xmlns:xlink="http://www.w3.org/1999/xlink">
<defs>
<clipPath id="TextBounds">
<rect height="701.739" width="439.801" x="324.938" y="111.171"/>
</clipPath>
</defs>
<g id="感謝">
<g opacity="1">
<path d="M325.119 114.631L791.774 116.07L789.068 497.858C789.068 497.858 788.399 640.877 763.39 762.353C737.41 888.543 698.479 970.632 698.479 970.632L205.626 958.25C205.626 958.25 250.732 917.206 271.748 877.181C312.516 799.536 315.043 729.272 315.043 729.272L325.119 114.631Z" fill="#aa7754" fill-rule="nonzero" opacity="1" stroke="#f3f4e1" stroke-linecap="butt" stroke-linejoin="round" stroke-width="12.7"/>
<path d="M141.467 678.597L127.173 648.845C127.173 648.845 159.164 681.971 185.131 535.633C211.099 389.294 231.043 63.4907 231.043 63.4907L877.171 59.9175C877.171 59.9175 935.381 199.515 906.956 592.883C894.626 763.518 865.336 744.134 865.336 744.134L846.758 717.317C846.758 717.317 868.757 705.774 877.478 555.705C894.344 265.486 854.77 116.082 854.77 116.082L264.442 115.155C264.442 115.155 253.243 414.543 222.499 555.404C191.755 696.264 141.467 678.597 141.467 678.597Z" fill="#aa7754" fill-rule="nonzero" opacity="1" stroke="#f3f4e1" stroke-linecap="butt" stroke-linejoin="round" stroke-width="12.7"/>
<g opacity="1">
<path d="M628.165 117.118L764.537 117.118L764.537 178.523L628.165 178.523L628.165 117.118Z" fill="#aa7754" fill-rule="nonzero" opacity="1" stroke="#f3f4e1" stroke-linecap="round" stroke-linejoin="round" stroke-width="12.7"/>
<g opacity="1">
<path d="M648.632 127.317L648.9 167.183" fill="#aa7754" fill-rule="nonzero" opacity="1" stroke="#f3f4e1" stroke-linecap="round" stroke-linejoin="round" stroke-width="5.56"/>
<path d="M650.613 147.302L666.137 127.421L650.613 147.302Z" fill="#aa7754" fill-rule="nonzero" opacity="1" stroke="#f3f4e1" stroke-linecap="round" stroke-linejoin="round" stroke-width="5.56"/>
<path d="M656.433 147.415L667.875 166.916" fill="#aa7754" fill-rule="nonzero" opacity="1" stroke="#f3f4e1" stroke-linecap="round" stroke-linejoin="round" stroke-width="5.56"/>
</g>
<path d="M743.888 132.756C743.888 132.756 736.591 122.882 730.056 131.645C721.461 143.17 753.577 154.933 744.621 164.389C734.592 174.98 725.149 158.894 725.149 158.894" fill="#aa7754" fill-rule="nonzero" opacity="1" stroke="#f3f4e1" stroke-linecap="round" stroke-linejoin="round" stroke-width="5.56"/>
<g opacity="1">
<path d="M688.216 127.945L688.347 147.406L688.484 167.811" fill="#aa7754" fill-rule="nonzero" opacity="1" stroke="#f3f4e1" stroke-linecap="round" stroke-linejoin="round" stroke-width="5.56"/>
<path d="M688.312 127.867L710.903 127.6" fill="#aa7754" fill-rule="nonzero" opacity="1" stroke="#f3f4e1" stroke-linecap="round" stroke-linejoin="round" stroke-width="5.56"/>
<path d="M689.163 144.058L704.588 144.109" fill="#aa7754" fill-rule="nonzero" opacity="1" stroke="#f3f4e1" stroke-linecap="round" stroke-linejoin="round" stroke-width="5.56"/>
</g>
</g>
</g>
<path d="M325.119 114.631L791.774 116.07L789.068 497.858C789.068 497.858 788.399 640.877 763.39 762.353C737.41 888.543 698.479 970.632 698.479 970.632L205.626 958.25C205.626 958.25 250.732 917.206 271.748 877.181C312.516 799.536 315.043 729.272 315.043 729.272L325.119 114.631Z" fill="#aa7754" fill-rule="nonzero" opacity="1" stroke="#f3f4e1" stroke-linecap="butt" stroke-linejoin="round" stroke-width="12.7"/>
<path d="M141.467 678.597L127.173 648.845C127.173 648.845 159.164 681.971 185.131 535.633C211.099 389.294 231.043 63.4907 231.043 63.4907L877.171 59.9175C877.171 59.9175 935.381 199.515 906.956 592.883C894.626 763.518 865.336 744.134 865.336 744.134L846.758 717.317C846.758 717.317 868.757 705.774 877.478 555.705C894.344 265.486 854.77 116.082 854.77 116.082L264.442 115.155C264.442 115.155 253.243 414.543 222.499 555.404C191.755 696.264 141.467 678.597 141.467 678.597Z" fill="#aa7754" fill-rule="nonzero" opacity="1" stroke="#f3f4e1" stroke-linecap="butt" stroke-linejoin="round" stroke-width="12.7"/>
<g opacity="1">
<path d="M628.165 117.118L764.537 117.118L764.537 178.523L628.165 178.523L628.165 117.118Z" fill="#aa7754" fill-rule="nonzero" opacity="1" stroke="#f3f4e1" stroke-linecap="round" stroke-linejoin="round" stroke-width="12.7"/>
<g opacity="1">
<path d="M648.632 127.317L648.9 167.183" fill="#aa7754" fill-rule="nonzero" opacity="1" stroke="#f3f4e1" stroke-linecap="round" stroke-linejoin="round" stroke-width="5.56"/>
<path d="M650.613 147.302L666.137 127.421L650.613 147.302Z" fill="#aa7754" fill-rule="nonzero" opacity="1" stroke="#f3f4e1" stroke-linecap="round" stroke-linejoin="round" stroke-width="5.56"/>
<path d="M656.433 147.415L667.875 166.916" fill="#aa7754" fill-rule="nonzero" opacity="1" stroke="#f3f4e1" stroke-linecap="round" stroke-linejoin="round" stroke-width="5.56"/>
</g>
<path d="M743.888 132.756C743.888 132.756 736.591 122.882 730.056 131.645C721.461 143.17 753.577 154.933 744.621 164.389C734.592 174.98 725.149 158.894 725.149 158.894" fill="#aa7754" fill-rule="nonzero" opacity="1" stroke="#f3f4e1" stroke-linecap="round" stroke-linejoin="round" stroke-width="5.56"/>
<g opacity="1">
<path d="M688.216 127.945L688.347 147.406L688.484 167.811" fill="#aa7754" fill-rule="nonzero" opacity="1" stroke="#f3f4e1" stroke-linecap="round" stroke-linejoin="round" stroke-width="5.56"/>
<path d="M688.312 127.867L710.903 127.6" fill="#aa7754" fill-rule="nonzero" opacity="1" stroke="#f3f4e1" stroke-linecap="round" stroke-linejoin="round" stroke-width="5.56"/>
<path d="M689.163 144.058L704.588 144.109" fill="#aa7754" fill-rule="nonzero" opacity="1" stroke="#f3f4e1" stroke-linecap="round" stroke-linejoin="round" stroke-width="5.56"/>
</g>
</g>
<path d="M325.119 114.631L791.774 116.07L789.068 497.858C789.068 497.858 788.399 640.877 763.39 762.353C737.41 888.543 698.479 970.632 698.479 970.632L205.626 958.25C205.626 958.25 250.732 917.206 271.748 877.181C312.516 799.536 315.043 729.272 315.043 729.272L325.119 114.631Z" fill="#aa7754" fill-rule="nonzero" opacity="1" stroke="#aa7754" stroke-linecap="butt" stroke-linejoin="round" stroke-width="12.7"/>
<path d="M141.467 678.597L127.173 648.845C127.173 648.845 159.164 681.971 185.131 535.633C211.099 389.294 231.043 63.4907 231.043 63.4907L877.171 59.9175C877.171 59.9175 935.381 199.515 906.956 592.883C894.626 763.518 865.336 744.134 865.336 744.134L846.758 717.317C846.758 717.317 868.757 705.774 877.478 555.705C894.344 265.486 854.77 116.082 854.77 116.082L264.442 115.155C264.442 115.155 253.243 414.543 222.499 555.404C191.755 696.264 141.467 678.597 141.467 678.597Z" fill="#aa7754" fill-rule="nonzero" opacity="1" stroke="#aa7754" stroke-linecap="butt" stroke-linejoin="round" stroke-width="12.7"/>
<g opacity="1">
<path d="M628.165 111.574L764.537 111.574L764.537 172.979L628.165 172.979L628.165 111.574Z" fill="#f3f4e1" fill-rule="nonzero" opacity="1" stroke="#f3f4e1" stroke-linecap="round" stroke-linejoin="round" stroke-width="12.7"/>
<g opacity="1">
<g opacity="1">
<path d="M648.632 121.774L648.9 161.64" fill="none" opacity="1" stroke="#aa7754" stroke-linecap="round" stroke-linejoin="round" stroke-width="5.56"/>
<path d="M650.613 141.758L666.137 121.877L650.613 141.758Z" fill="none" opacity="1" stroke="#aa7754" stroke-linecap="round" stroke-linejoin="round" stroke-width="5.56"/>
<path d="M656.433 141.871L667.875 161.373" fill="none" opacity="1" stroke="#aa7754" stroke-linecap="round" stroke-linejoin="round" stroke-width="5.56"/>
</g>
<path d="M743.888 127.212C743.888 127.212 736.591 117.339 730.056 126.102C721.461 137.626 753.577 149.389 744.621 158.846C734.592 169.436 725.149 153.35 725.149 153.35" fill="none" opacity="1" stroke="#aa7754" stroke-linecap="round" stroke-linejoin="round" stroke-width="5.56"/>
<g opacity="1">
<path d="M688.216 122.401L688.347 141.862L688.484 162.267" fill="none" opacity="1" stroke="#aa7754" stroke-linecap="round" stroke-linejoin="round" stroke-width="5.56"/>
<path d="M688.312 122.324L710.903 122.057" fill="none" opacity="1" stroke="#aa7754" stroke-linecap="round" stroke-linejoin="round" stroke-width="5.56"/>
<path d="M689.163 138.514L704.588 138.565" fill="none" opacity="1" stroke="#aa7754" stroke-linecap="round" stroke-linejoin="round" stroke-width="5.56"/>
</g>
</g>
</g>
<g fill="#f3f4e1" opacity="1" stroke="none">
<path clip-path="url(#TextBounds)" d="M659.518 382.459C658.054 385.875 655.858 387.827 652.93 388.315C645.773 389.779 638.819 388.884 632.068 385.631C625.318 382.377 619.502 378.392 614.622 373.675C609.254 368.307 603.968 361.841 598.762 354.277C593.557 346.713 589.328 339.515 586.074 332.683C584.61 332.845 583.472 333.415 582.658 334.391C581.845 335.367 580.869 336.099 579.73 336.587C576.802 336.424 574.688 336.18 573.386 335.855C572.085 335.529 570.214 335.041 567.774 334.391C569.401 331.788 571.068 328.697 572.776 325.119C574.484 321.54 575.908 318.287 577.046 315.359C570.865 304.785 565.944 293.358 562.284 281.077C558.624 268.795 554.68 256.799 550.45 245.087C538.413 245.9 526.66 246.795 515.192 247.771C503.724 248.747 493.68 250.211 485.058 252.163C484.082 253.789 483.472 255.782 483.228 258.141C482.984 260.499 482.862 262.817 482.862 265.095C482.862 265.745 482.862 266.355 482.862 266.925C482.862 267.494 482.862 268.104 482.862 268.755C488.068 267.779 493.476 267.006 499.088 266.437C504.7 265.867 510.19 265.095 515.558 264.119C520.926 263.143 525.562 261.679 529.466 259.727C532.557 260.865 535.77 261.801 539.104 262.533C542.439 263.265 545.489 264.281 548.254 265.583C551.02 266.884 553.053 268.999 554.354 271.927C552.402 273.391 550.369 274.163 548.254 274.245C546.14 274.326 543.944 274.367 541.666 274.367C540.528 274.367 539.43 274.326 538.372 274.245C537.315 274.163 536.217 274.204 535.078 274.367C532.476 274.692 529.914 275.058 527.392 275.465C524.871 275.871 522.39 276.319 519.95 276.807C513.118 278.271 506.53 279.165 500.186 279.491C493.842 279.816 487.986 277.864 482.618 273.635C482.618 276.888 482.415 280.06 482.008 283.151C481.602 286.241 481.073 289.169 480.422 291.935C488.068 291.609 495.591 290.755 502.992 289.373C510.394 287.99 518.08 286.811 526.05 285.835C527.677 285.347 528.368 284.859 528.124 284.371C527.88 283.883 528.328 283.313 529.466 282.663C535.973 282.825 541.707 283.273 546.668 284.005C551.63 284.737 556.144 286.485 560.21 289.251C560.861 289.413 561.186 290.389 561.186 292.179C561.186 293.968 561.43 295.107 561.918 295.595C561.105 298.197 559.6 300.149 557.404 301.451C555.208 302.752 553.378 303.809 551.914 304.623C551.264 309.665 550.735 314.057 550.328 317.799C549.922 321.54 549.068 325.363 547.766 329.267C547.604 330.08 547.685 330.731 548.01 331.219C548.336 331.707 548.742 332.195 549.23 332.683C549.718 333.171 550.003 333.577 550.084 333.903C550.166 334.228 549.637 334.635 548.498 335.123C544.432 336.749 540.284 337.725 536.054 338.051C531.825 338.376 527.677 338.62 523.61 338.783C520.194 338.783 516.9 338.905 513.728 339.149C510.556 339.393 507.425 339.921 504.334 340.735C503.846 341.223 503.562 341.995 503.48 343.053C503.399 344.11 503.358 345.208 503.358 346.347C503.358 346.835 503.358 347.16 503.358 347.323C499.292 347.973 495.713 347.241 492.622 345.127C489.532 343.012 486.766 340.735 484.326 338.295L484.326 338.295C484.164 336.668 484.123 334.797 484.204 332.683C484.286 330.568 484.408 328.453 484.57 326.339C484.896 320.971 484.936 315.684 484.692 310.479C484.448 305.273 482.618 301.695 479.202 299.743C478.714 304.297 477.738 309.706 476.274 315.969C474.81 322.231 473.184 328.779 471.394 335.611C469.605 342.443 467.897 349.112 466.27 355.619C465.457 355.293 464.603 356.107 463.708 358.059C462.814 360.011 461.797 362.369 460.658 365.135C460.008 366.761 459.316 368.469 458.584 370.259C457.852 372.048 457.08 373.675 456.266 375.139C454.64 377.741 452.972 380.466 451.264 383.313C449.556 386.159 447.32 388.071 444.554 389.047C443.741 388.721 442.806 388.559 441.748 388.559C440.691 388.559 439.674 388.559 438.698 388.559C437.234 388.559 435.892 388.477 434.672 388.315C433.452 388.152 432.517 387.501 431.866 386.363C440.488 374.976 447.116 362.41 451.752 348.665C456.388 334.919 459.682 320.645 461.634 305.843C463.586 291.04 464.725 276.481 465.05 262.167C464.237 261.353 463.342 260.54 462.366 259.727C461.39 258.913 460.414 258.1 459.438 257.287C456.51 255.009 453.826 252.488 451.386 249.723C448.946 246.957 448.214 243.704 449.19 239.963C457.161 240.288 465.864 240.044 475.298 239.231C484.733 238.417 494.086 237.523 503.358 236.547C511.654 235.571 519.625 234.757 527.27 234.107C534.916 233.456 541.748 233.212 547.766 233.375C546.953 230.121 545.855 226.339 544.472 222.029C543.09 217.718 542.236 213.041 541.91 207.999C539.796 204.745 537.234 201.939 534.224 199.581C531.215 197.222 529.304 193.765 528.49 189.211C532.72 188.723 536.664 188.723 540.324 189.211C543.984 189.699 547.848 191.081 551.914 193.359C554.029 194.497 556.428 195.961 559.112 197.751C561.796 199.54 564.155 201.451 566.188 203.485C568.222 205.518 569.32 207.592 569.482 209.707C569.645 211.821 569.32 213.692 568.506 215.319C567.693 216.945 566.717 218.491 565.578 219.955C564.44 221.744 563.504 223.533 562.772 225.323C562.04 227.112 562.406 229.308 563.87 231.911C567.937 230.772 572.614 230.203 577.9 230.203C583.187 230.203 588.23 230.894 593.028 232.277C597.827 233.659 601.446 235.977 603.886 239.231C601.934 242.159 598.762 243.826 594.37 244.233C589.978 244.639 585.342 244.761 580.462 244.599C578.022 244.436 575.542 244.355 573.02 244.355C570.499 244.355 568.181 244.517 566.066 244.843C567.693 255.741 570.255 265.705 573.752 274.733C577.25 283.761 580.3 292.992 582.902 302.427C584.366 299.336 585.383 295.513 585.952 290.959C586.522 286.404 587.376 282.5 588.514 279.247C586.4 276.969 584.814 274.814 583.756 272.781C582.699 270.747 580.706 268.836 577.778 267.047C581.682 262.492 585.627 260.621 589.612 261.435C593.598 262.248 597.38 264.403 600.958 267.901C604.537 271.398 607.384 275.18 609.498 279.247C606.408 286.729 603.52 293.724 600.836 300.231C598.152 306.737 595.509 313.976 592.906 321.947C595.672 327.152 598.478 332.317 601.324 337.441C604.171 342.565 607.587 347.119 611.572 351.105C615.558 355.09 620.397 358.221 626.09 360.499C629.018 357.733 630.401 354.114 630.238 349.641C630.076 345.167 629.669 340.491 629.018 335.611C628.693 333.171 628.408 330.731 628.164 328.291C627.92 325.851 627.798 323.492 627.798 321.215C629.588 324.793 632.15 327.925 635.484 330.609C638.819 333.293 641.544 336.424 643.658 340.003C644.96 342.28 645.936 344.923 646.586 347.933C647.237 350.942 649.108 352.935 652.198 353.911C653.174 359.279 654.11 363.955 655.004 367.941C655.899 371.926 657.404 376.765 659.518 382.459ZM607.058 389.047C603.642 394.252 598.315 398.034 591.076 400.393C583.838 402.751 575.867 403.971 567.164 404.053C558.462 404.134 550.003 403.199 541.788 401.247C533.574 399.295 526.62 396.611 520.926 393.195C515.396 389.779 511.085 385.671 507.994 380.873C504.904 376.074 502.504 370.909 500.796 365.379C499.088 359.848 497.502 354.399 496.038 349.031C500.918 350.007 504.66 352.121 507.262 355.375C509.865 358.628 512.102 362.288 513.972 366.355C515.843 370.421 517.917 374.163 520.194 377.579C520.845 378.392 521.536 379.124 522.268 379.775C523 380.425 523.692 381.076 524.342 381.727C527.27 382.703 530.93 383.516 535.322 384.167C539.714 384.817 544.269 385.021 548.986 384.777C553.704 384.533 557.974 383.76 561.796 382.459C565.619 381.157 568.425 379.043 570.214 376.115C569.889 372.373 568.628 369.527 566.432 367.575C564.236 365.623 561.918 363.793 559.478 362.085C557.038 360.377 555.086 358.221 553.622 355.619C554.11 355.293 555.574 355.537 558.014 356.351C560.454 357.164 563.179 358.221 566.188 359.523C569.198 360.824 571.882 362.125 574.24 363.427C576.599 364.728 578.022 365.623 578.51 366.111C578.998 365.948 579.08 365.623 578.754 365.135C578.592 364.647 578.51 364.159 578.51 363.671C584.529 366.761 590.263 370.096 595.712 373.675C601.162 377.253 604.944 382.377 607.058 389.047ZM531.906 297.547C528.328 296.896 524.79 296.855 521.292 297.425C517.795 297.994 514.338 298.685 510.922 299.499C508.808 299.987 506.734 300.434 504.7 300.841C502.667 301.247 500.593 301.532 498.478 301.695C499.454 304.297 500.064 307.388 500.308 310.967C500.552 314.545 500.756 318.083 500.918 321.581C501.081 325.078 501.325 327.884 501.65 329.999C506.693 329.836 511.207 329.511 515.192 329.023C519.178 328.535 523.61 327.965 528.49 327.315C530.117 323.085 531.296 318.368 532.028 313.163C532.76 307.957 532.72 302.752 531.906 297.547ZM486.034 407.103C480.016 406.127 475.136 404.053 471.394 400.881C467.653 397.709 464.725 393.764 462.61 389.047C465.864 386.281 468.1 382.703 469.32 378.311C470.54 373.919 471.272 369.201 471.516 364.159C471.76 359.116 472.126 354.317 472.614 349.763L477.494 349.763C480.585 352.853 482.7 356.757 483.838 361.475C484.977 366.192 485.628 371.235 485.79 376.603C485.953 381.971 485.953 387.176 485.79 392.219C485.79 394.984 485.79 397.668 485.79 400.271C485.79 402.873 485.872 405.151 486.034 407.103ZM628.774 238.255C628.774 239.393 628.164 240.166 626.944 240.573C625.724 240.979 624.423 241.345 623.04 241.671C621.658 241.996 620.641 242.809 619.99 244.111C614.297 240.044 609.376 235.083 605.228 229.227C601.08 223.371 596.648 217.921 591.93 212.879C591.93 212.228 592.093 211.577 592.418 210.927C593.069 210.276 593.232 209.544 592.906 208.731C598.112 208.893 603.358 210.276 608.644 212.879C613.931 215.481 618.486 218.979 622.308 223.371C626.131 227.763 628.286 232.724 628.774 238.255ZM548.498 367.087C547.848 367.9 547.034 368.551 546.058 369.039C545.082 369.527 544.269 370.177 543.618 370.991C530.768 366.273 522.39 357.327 518.486 344.151C523.041 343.5 527.474 344.11 531.784 345.981C536.095 347.851 539.755 350.617 542.764 354.277C545.774 357.937 547.685 362.207 548.498 367.087ZM582.658 359.523C576.64 358.384 571.109 355.578 566.066 351.105C561.024 346.631 556.55 342.117 552.646 337.563C554.924 334.309 557.608 333.171 560.698 334.147C563.789 335.123 566.554 336.343 568.994 337.807C569.97 338.457 570.702 338.864 571.19 339.027C572.492 339.677 573.874 340.125 575.338 340.369C576.802 340.613 577.86 341.06 578.51 341.711C581.113 343.825 582.699 346.509 583.268 349.763C583.838 353.016 583.634 356.269 582.658 359.523Z"/>
<path clip-path="url(#TextBounds)" d="M664.642 648.839C663.016 650.465 660.901 651.279 658.298 651.279C655.696 651.279 653.012 651.116 650.246 650.791C647.969 650.628 645.732 650.506 643.536 650.425C641.34 650.343 639.266 650.628 637.314 651.279C636.664 657.135 636.582 664.089 637.07 672.141C637.558 680.193 638.128 688.448 638.778 696.907C639.592 705.365 640.283 713.58 640.852 721.551C641.422 729.521 641.544 736.516 641.218 742.535C641.056 747.74 640.283 752.457 638.9 756.687C637.518 760.916 635.2 763.356 631.946 764.007C627.717 764.657 623.162 763.722 618.282 761.201C613.402 758.679 609.417 756.117 606.326 753.515C604.212 751.563 601.69 749.326 598.762 746.805C595.834 744.283 593.354 741.925 591.32 739.729C589.287 737.533 588.352 736.109 588.514 735.459C592.418 737.411 597.217 738.753 602.91 739.485C608.604 740.217 613.89 740.339 618.77 739.851C619.746 739.688 620.275 739.078 620.356 738.021C620.438 736.963 620.966 736.435 621.942 736.435L621.942 694.467C621.942 686.496 621.82 678.81 621.576 671.409C621.332 664.007 620.885 657.623 620.234 652.255C618.445 652.417 616.737 652.621 615.11 652.865C613.484 653.109 611.938 653.312 610.474 653.475C606.082 654.125 601.812 654.532 597.664 654.695C593.516 654.857 588.921 654.288 583.878 652.987C583.065 661.608 582.78 670.026 583.024 678.241C583.268 686.455 583.553 694.548 583.878 702.519C584.041 704.959 584.163 707.358 584.244 709.717C584.326 712.075 584.448 714.393 584.61 716.671C584.936 724.641 584.936 732.49 584.61 740.217C584.285 747.943 583.228 755.548 581.438 763.031C571.353 763.681 562.61 761.282 555.208 755.833C547.807 750.383 541.26 743.348 535.566 734.727C536.868 734.727 538.332 735.052 539.958 735.703C541.585 736.353 543.374 737.085 545.326 737.899C547.929 739.037 550.613 740.054 553.378 740.949C556.144 741.843 558.584 741.925 560.698 741.193C562.813 740.461 564.277 738.305 565.09 734.727C565.741 731.961 566.148 728.464 566.31 724.235C566.473 720.005 566.473 715.532 566.31 710.815C566.31 708.863 566.27 706.87 566.188 704.837C566.107 702.803 566.066 700.811 566.066 698.859C565.904 693.979 565.782 689.383 565.7 685.073C565.619 680.762 565.741 677.224 566.066 674.459C565.578 674.459 565.09 674.621 564.602 674.947C563.952 675.435 563.382 675.597 562.894 675.435C562.081 675.76 562 676.411 562.65 677.387C562.813 677.875 562.976 678.363 563.138 678.851C563.301 679.339 563.22 679.908 562.894 680.559C559.641 687.065 556.103 693.165 552.28 698.859C548.458 704.552 543.7 709.351 538.006 713.255C537.356 717.972 535.322 722.242 531.906 726.065C528.49 729.887 524.83 733.019 520.926 735.459C521.74 733.669 521.333 732.937 519.706 733.263C518.08 733.588 516.372 734.157 514.582 734.971C514.094 735.133 513.647 735.377 513.24 735.703C512.834 736.028 512.386 736.353 511.898 736.679C510.597 737.98 509.702 738.468 509.214 738.143C511.98 733.588 515.558 728.749 519.95 723.625C524.342 718.501 528.409 712.848 532.15 706.667C534.428 702.925 536.502 698.899 538.372 694.589C540.243 690.278 541.666 685.601 542.642 680.559C540.528 679.257 537.518 679.339 533.614 680.803C529.71 682.267 526.538 683.649 524.098 684.951C521.496 684.3 518.69 683.649 515.68 682.999C512.671 682.348 510.109 681.372 507.994 680.071C505.88 678.769 504.741 676.899 504.578 674.459C510.76 672.181 517.266 670.799 524.098 670.311C523.448 667.545 522.268 665.39 520.56 663.845C518.852 662.299 517.673 660.713 517.022 659.087C517.836 658.111 518.73 656.525 519.706 654.329C520.682 652.133 521.17 649.937 521.17 647.741C521.17 645.545 520.032 644.121 517.754 643.471C517.754 642.657 518.568 642.413 520.194 642.739C521.333 642.901 522.065 642.901 522.39 642.739C522.39 641.6 522.431 640.461 522.512 639.323C522.594 638.184 522.634 637.045 522.634 635.907C522.96 632.653 523.041 629.563 522.878 626.635C522.716 623.707 521.252 621.592 518.486 620.291C518.812 619.315 519.503 618.786 520.56 618.705C521.618 618.623 522.228 618.013 522.39 616.875C522.716 613.459 522.472 610.612 521.658 608.335C519.056 606.871 517.063 604.471 515.68 601.137C514.298 597.802 513.444 595.321 513.118 593.695C516.209 593.044 518.608 592.312 520.316 591.499C522.024 590.685 524.83 590.279 528.734 590.279C531.5 588.327 533.452 585.561 534.59 581.983C535.729 578.404 536.868 574.825 538.006 571.247C534.916 569.457 532.313 567.18 530.198 564.415C528.084 561.649 525.481 559.372 522.39 557.583C523.204 557.583 524.017 557.542 524.83 557.461C525.644 557.379 526.457 557.257 527.27 557.095C531.988 556.607 536.38 556.363 540.446 556.363C544.513 556.363 548.051 557.095 551.06 558.559C554.07 560.023 556.469 562.869 558.258 567.099C556.632 570.515 554.842 573.687 552.89 576.615C550.938 579.543 549.068 582.633 547.278 585.887C548.742 585.887 550.288 585.805 551.914 585.643C553.541 585.48 555.168 585.399 556.794 585.399C562.488 584.911 568.14 584.829 573.752 585.155C579.364 585.48 584.041 587.757 587.782 591.987L593.15 591.987C593.15 592.963 593.394 593.735 593.882 594.305C594.37 594.874 594.94 595.403 595.59 595.891C596.241 596.379 596.851 597.029 597.42 597.843C597.99 598.656 598.112 599.876 597.786 601.503L592.418 601.503C592.581 601.991 592.418 602.641 591.93 603.455C591.442 604.268 591.605 604.756 592.418 604.919C589.49 607.196 587.701 610.287 587.05 614.191C586.4 618.095 585.993 621.836 585.83 625.415C585.668 626.391 585.586 627.326 585.586 628.221C585.586 629.115 585.505 629.969 585.342 630.783C584.529 632.409 583.919 634.077 583.512 635.785C583.106 637.493 583.228 638.916 583.878 640.055C588.758 640.705 593.11 640.909 596.932 640.665C600.755 640.421 604.618 640.055 608.522 639.567C610.312 639.241 612.182 638.997 614.134 638.835C616.086 638.672 618.12 638.509 620.234 638.347C620.56 634.28 620.56 629.481 620.234 623.951C619.909 618.42 619.421 612.727 618.77 606.871C618.445 602.641 618.12 598.534 617.794 594.549C617.469 590.563 617.306 586.863 617.306 583.447C617.306 583.121 617.388 582.552 617.55 581.739C618.038 580.275 618.201 579.38 618.038 579.055C617.55 577.428 616.859 575.923 615.964 574.541C615.07 573.158 614.053 571.816 612.914 570.515C611.45 568.563 610.149 566.529 609.01 564.415C607.872 562.3 607.79 559.779 608.766 556.851C612.182 559.453 615.883 560.958 619.868 561.365C623.854 561.771 627.392 562.788 630.482 564.415C632.76 565.553 634.59 567.221 635.972 569.417C637.355 571.613 639.429 572.873 642.194 573.199C643.821 577.428 644.309 582.023 643.658 586.985C643.008 591.946 642.032 597.192 640.73 602.723C640.568 603.211 640.405 603.943 640.242 604.919C639.266 609.636 638.331 614.557 637.436 619.681C636.542 624.805 636.257 630.213 636.582 635.907C642.601 634.931 647.888 635.988 652.442 639.079C656.997 642.169 660.982 645.341 664.398 648.595L664.642 648.839ZM523.366 696.907C521.414 698.045 518.812 698.859 515.558 699.347C513.281 704.877 511.451 711.262 510.068 718.501C508.686 725.739 507.913 732.856 507.75 739.851C507.425 739.851 506.937 739.688 506.286 739.363C505.798 739.2 505.31 739.119 504.822 739.119C504.334 739.119 504.009 739.607 503.846 740.583C504.009 741.233 504.375 741.559 504.944 741.559C505.514 741.559 505.88 741.233 506.042 740.583C506.856 741.071 506.856 741.803 506.042 742.779C505.717 743.267 505.473 743.755 505.31 744.243C505.148 744.731 505.148 745.3 505.31 745.951C500.105 747.577 494.412 748.675 488.23 749.245C482.049 749.814 476.356 750.993 471.15 752.783C471.476 754.735 471.476 756.443 471.15 757.907C470.825 759.371 470.5 760.672 470.174 761.811C469.524 763.763 469.361 765.064 469.686 765.715C465.132 765.715 461.756 764.535 459.56 762.177C457.364 759.818 455.941 756.768 455.29 753.027C454.64 749.285 454.314 745.137 454.314 740.583C454.314 739.444 454.314 738.346 454.314 737.289C454.314 736.231 454.314 735.133 454.314 733.995C454.477 729.603 454.477 725.292 454.314 721.063C454.152 716.833 453.42 713.092 452.118 709.839C450.817 706.585 448.621 704.227 445.53 702.763C446.181 701.136 446.14 699.835 445.408 698.859C444.676 697.883 443.741 696.988 442.602 696.175C442.114 695.687 441.789 695.361 441.626 695.199C441.464 694.548 441.789 694.06 442.602 693.735C443.416 693.409 443.822 693.003 443.822 692.515C443.334 691.864 442.684 691.579 441.87 691.661C441.057 691.742 440.325 691.864 439.674 692.027C438.048 692.352 437.153 692.271 436.99 691.783C441.87 689.343 446.832 687.716 451.874 686.903C456.917 686.089 462.326 685.479 468.1 685.073C473.875 684.666 480.341 683.975 487.498 682.999C487.824 682.185 488.434 681.575 489.328 681.169C490.223 680.762 490.914 680.233 491.402 679.583C494.818 679.908 498.6 680.762 502.748 682.145C506.896 683.527 510.841 685.439 514.582 687.879C518.324 690.319 521.252 693.328 523.366 696.907ZM512.386 599.795C507.181 602.235 501.366 603.943 494.94 604.919C488.515 605.895 481.968 606.952 475.298 608.091C469.768 609.067 464.278 610.368 458.828 611.995C453.379 613.621 448.458 616.143 444.066 619.559C439.186 615.98 435.526 612.361 433.086 608.701C430.646 605.041 428.369 600.608 426.254 595.403C428.532 593.288 431.378 592.637 434.794 593.451C438.21 594.264 440.732 595.484 442.358 597.111C446.425 597.111 450.858 596.745 455.656 596.013C460.455 595.281 465.457 594.508 470.662 593.695C475.217 592.881 479.853 592.068 484.57 591.255C489.288 590.441 493.924 589.791 498.478 589.303C495.876 588.327 494.29 586.659 493.72 584.301C493.151 581.942 492.866 579.38 492.866 576.615C490.101 573.361 486.726 570.84 482.74 569.051C478.755 567.261 475.461 564.577 472.858 560.999C479.528 557.745 485.79 556.078 491.646 555.997C497.502 555.915 503.114 558.152 508.482 562.707C509.784 566.285 509.255 570.149 506.896 574.297C504.538 578.445 502.22 582.227 499.942 585.643C499.292 586.456 498.804 587.107 498.478 587.595C500.593 589.872 503.074 591.743 505.92 593.207C508.767 594.671 510.922 596.867 512.386 599.795ZM492.134 696.907C488.393 696.419 484.001 696.5 478.958 697.151C473.916 697.801 470.012 699.672 467.246 702.763C468.873 705.528 469.768 708.619 469.93 712.035C470.093 715.451 470.093 719.029 469.93 722.771C469.93 725.373 469.89 728.017 469.808 730.701C469.727 733.385 469.93 736.109 470.418 738.875C470.744 738.875 471.232 738.793 471.882 738.631C474.973 737.98 477.901 737.451 480.666 737.045C483.432 736.638 486.766 736.679 490.67 737.167C492.134 733.588 493.029 729.277 493.354 724.235C493.68 719.192 493.68 714.19 493.354 709.229C493.029 704.267 492.622 700.16 492.134 696.907ZM566.066 645.179L566.066 644.691C566.392 636.395 566.595 628.261 566.676 620.291C566.758 612.32 566.554 604.919 566.066 598.087C562.813 597.761 559.682 597.843 556.672 598.331C553.663 598.819 550.857 599.388 548.254 600.039C546.465 600.364 544.798 600.689 543.252 601.015C541.707 601.34 540.202 601.503 538.738 601.503C539.226 602.804 539.389 603.983 539.226 605.041C539.064 606.098 538.82 607.115 538.494 608.091C538.332 609.229 538.128 610.449 537.884 611.751C537.64 613.052 537.681 614.516 538.006 616.143C541.585 614.353 545.204 613.703 548.864 614.191C552.524 614.679 555.778 615.817 558.624 617.607C561.471 619.396 563.382 621.429 564.358 623.707C559.478 624.845 554.395 625.821 549.108 626.635C543.822 627.448 539.308 629.075 535.566 631.515C536.542 631.84 537.03 632.491 537.03 633.467C537.03 634.443 536.949 635.419 536.786 636.395C536.461 637.859 536.38 638.835 536.542 639.323C547.766 636.883 557.608 638.835 566.066 645.179ZM508.482 661.527C504.416 664.129 498.844 666.529 491.768 668.725C484.692 670.921 477.738 671.937 470.906 671.775C466.352 671.775 462.082 671.043 458.096 669.579C454.111 668.115 450.98 665.756 448.702 662.503C451.956 660.388 456.307 659.127 461.756 658.721C467.206 658.314 472.452 657.541 477.494 656.403C478.308 656.24 479.08 656.037 479.812 655.793C480.544 655.549 481.317 655.345 482.13 655.183C484.082 654.532 486.034 654.003 487.986 653.597C489.938 653.19 492.134 653.312 494.574 653.963C497.34 654.776 500.186 656.077 503.114 657.867C506.042 659.656 507.832 660.876 508.482 661.527ZM509.214 632.491C506.124 633.467 501.976 634.727 496.77 636.273C491.565 637.818 486.156 639.079 480.544 640.055C474.932 641.031 470.012 641.356 465.782 641.031C462.692 640.705 459.804 639.526 457.12 637.493C454.436 635.459 452.932 632.653 452.606 629.075C459.764 628.912 467.043 627.895 474.444 626.025C481.846 624.154 489.044 623.137 496.038 622.975C497.665 624.927 499.129 626.228 500.43 626.879C501.732 627.529 503.114 628.139 504.578 628.709C506.042 629.278 507.588 630.539 509.214 632.491ZM612.67 701.055C608.766 701.055 605.432 700.363 602.666 698.981C599.901 697.598 597.624 695.768 595.834 693.491C593.069 690.075 590.995 685.805 589.612 680.681C588.23 675.557 587.05 670.311 586.074 664.943C586.725 664.455 587.538 664.373 588.514 664.699C588.84 664.861 589.165 664.902 589.49 664.821C589.816 664.739 589.978 664.211 589.978 663.235C593.069 665.349 596.566 667.911 600.47 670.921C604.374 673.93 607.546 677.631 609.986 682.023C611.45 684.625 612.467 687.513 613.036 690.685C613.606 693.857 613.484 697.313 612.67 701.055ZM566.066 666.895C566.229 664.78 566.31 662.828 566.31 661.039C566.31 659.249 566.229 657.297 566.066 655.183C566.066 654.044 566.066 652.905 566.066 651.767C566.066 650.628 566.066 649.327 566.066 647.863C563.138 648.025 560.414 648.391 557.892 648.961C555.371 649.53 553.053 650.14 550.938 650.791C548.498 651.441 546.18 651.97 543.984 652.377C541.788 652.783 539.552 652.987 537.274 652.987C537.437 653.312 537.518 653.881 537.518 654.695C537.518 655.508 537.437 656.403 537.274 657.379C537.112 659.005 537.03 660.754 537.03 662.625C537.03 664.495 537.356 665.919 538.006 666.895C543.374 665.919 548.58 665.227 553.622 664.821C558.665 664.414 562.813 665.105 566.066 666.895Z"/>
</g>
</g>
</svg>
