<?xml version="1.0" encoding="UTF-8" standalone="no"?>
<!DOCTYPE svg PUBLIC "-//W3C//DTD SVG 1.1//EN" "http://www.w3.org/Graphics/SVG/1.1/DTD/svg11.dtd">
<!-- Created with Vectornator (http://vectornator.io/) -->
<svg height="100%" stroke-miterlimit="10" style="fill-rule:nonzero;clip-rule:evenodd;stroke-linecap:round;stroke-linejoin:round;" version="1.1" viewBox="0 0 1024 1024" width="100%" xml:space="preserve" xmlns="http://www.w3.org/2000/svg" xmlns:xlink="http://www.w3.org/1999/xlink">
<defs>
<clipPath id="TextBounds">
<rect height="766.925" width="319" x="401.352" y="177.979"/>
</clipPath>
</defs>
<g id="main">
<g opacity="1">
<path d="M325.119 114.631L791.774 116.07L789.068 497.858C789.068 497.858 788.399 640.877 763.39 762.353C737.41 888.543 698.479 970.632 698.479 970.632L205.626 958.25C205.626 958.25 250.732 917.206 271.748 877.181C312.516 799.536 315.043 729.272 315.043 729.272L325.119 114.631Z" fill="#aa7754" fill-rule="nonzero" opacity="1" stroke="#f3f4e1" stroke-linecap="butt" stroke-linejoin="round" stroke-width="12.7"/>
<path d="M141.467 678.597L127.173 648.845C127.173 648.845 159.164 681.971 185.131 535.633C211.099 389.294 231.043 63.4907 231.043 63.4907L877.171 59.9175C877.171 59.9175 935.381 199.515 906.956 592.883C894.626 763.518 865.336 744.134 865.336 744.134L846.758 717.317C846.758 717.317 868.757 705.774 877.478 555.705C894.344 265.486 854.77 116.082 854.77 116.082L264.442 115.155C264.442 115.155 253.243 414.543 222.499 555.404C191.755 696.264 141.467 678.597 141.467 678.597Z" fill="#aa7754" fill-rule="nonzero" opacity="1" stroke="#f3f4e1" stroke-linecap="butt" stroke-linejoin="round" stroke-width="12.7"/>
<g opacity="1">
<path d="M628.165 117.118L764.537 117.118L764.537 178.523L628.165 178.523L628.165 117.118Z" fill="#aa7754" fill-rule="nonzero" opacity="1" stroke="#f3f4e1" stroke-linecap="round" stroke-linejoin="round" stroke-width="12.7"/>
<g opacity="1">
<path d="M648.632 127.317L648.9 167.183" fill="#aa7754" fill-rule="nonzero" opacity="1" stroke="#f3f4e1" stroke-linecap="round" stroke-linejoin="round" stroke-width="5.56"/>
<path d="M650.613 147.302L666.137 127.421L650.613 147.302Z" fill="#aa7754" fill-rule="nonzero" opacity="1" stroke="#f3f4e1" stroke-linecap="round" stroke-linejoin="round" stroke-width="5.56"/>
<path d="M656.433 147.415L667.875 166.916" fill="#aa7754" fill-rule="nonzero" opacity="1" stroke="#f3f4e1" stroke-linecap="round" stroke-linejoin="round" stroke-width="5.56"/>
</g>
<path d="M743.888 132.756C743.888 132.756 736.591 122.882 730.056 131.645C721.461 143.17 753.577 154.933 744.621 164.389C734.592 174.98 725.149 158.894 725.149 158.894" fill="#aa7754" fill-rule="nonzero" opacity="1" stroke="#f3f4e1" stroke-linecap="round" stroke-linejoin="round" stroke-width="5.56"/>
<g opacity="1">
<path d="M688.216 127.945L688.347 147.406L688.484 167.811" fill="#aa7754" fill-rule="nonzero" opacity="1" stroke="#f3f4e1" stroke-linecap="round" stroke-linejoin="round" stroke-width="5.56"/>
<path d="M688.312 127.867L710.903 127.6" fill="#aa7754" fill-rule="nonzero" opacity="1" stroke="#f3f4e1" stroke-linecap="round" stroke-linejoin="round" stroke-width="5.56"/>
<path d="M689.163 144.058L704.588 144.109" fill="#aa7754" fill-rule="nonzero" opacity="1" stroke="#f3f4e1" stroke-linecap="round" stroke-linejoin="round" stroke-width="5.56"/>
</g>
</g>
</g>
<path d="M325.119 114.631L791.774 116.07L789.068 497.858C789.068 497.858 788.399 640.877 763.39 762.353C737.41 888.543 698.479 970.632 698.479 970.632L205.626 958.25C205.626 958.25 250.732 917.206 271.748 877.181C312.516 799.536 315.043 729.272 315.043 729.272L325.119 114.631Z" fill="#aa7754" fill-rule="nonzero" opacity="1" stroke="#f3f4e1" stroke-linecap="butt" stroke-linejoin="round" stroke-width="12.7"/>
<path d="M141.467 678.597L127.173 648.845C127.173 648.845 159.164 681.971 185.131 535.633C211.099 389.294 231.043 63.4907 231.043 63.4907L877.171 59.9175C877.171 59.9175 935.381 199.515 906.956 592.883C894.626 763.518 865.336 744.134 865.336 744.134L846.758 717.317C846.758 717.317 868.757 705.774 877.478 555.705C894.344 265.486 854.77 116.082 854.77 116.082L264.442 115.155C264.442 115.155 253.243 414.543 222.499 555.404C191.755 696.264 141.467 678.597 141.467 678.597Z" fill="#aa7754" fill-rule="nonzero" opacity="1" stroke="#f3f4e1" stroke-linecap="butt" stroke-linejoin="round" stroke-width="12.7"/>
<g opacity="1">
<path d="M628.165 117.118L764.537 117.118L764.537 178.523L628.165 178.523L628.165 117.118Z" fill="#aa7754" fill-rule="nonzero" opacity="1" stroke="#f3f4e1" stroke-linecap="round" stroke-linejoin="round" stroke-width="12.7"/>
<g opacity="1">
<path d="M648.632 127.317L648.9 167.183" fill="#aa7754" fill-rule="nonzero" opacity="1" stroke="#f3f4e1" stroke-linecap="round" stroke-linejoin="round" stroke-width="5.56"/>
<path d="M650.613 147.302L666.137 127.421L650.613 147.302Z" fill="#aa7754" fill-rule="nonzero" opacity="1" stroke="#f3f4e1" stroke-linecap="round" stroke-linejoin="round" stroke-width="5.56"/>
<path d="M656.433 147.415L667.875 166.916" fill="#aa7754" fill-rule="nonzero" opacity="1" stroke="#f3f4e1" stroke-linecap="round" stroke-linejoin="round" stroke-width="5.56"/>
</g>
<path d="M743.888 132.756C743.888 132.756 736.591 122.882 730.056 131.645C721.461 143.17 753.577 154.933 744.621 164.389C734.592 174.98 725.149 158.894 725.149 158.894" fill="#aa7754" fill-rule="nonzero" opacity="1" stroke="#f3f4e1" stroke-linecap="round" stroke-linejoin="round" stroke-width="5.56"/>
<g opacity="1">
<path d="M688.216 127.945L688.347 147.406L688.484 167.811" fill="#aa7754" fill-rule="nonzero" opacity="1" stroke="#f3f4e1" stroke-linecap="round" stroke-linejoin="round" stroke-width="5.56"/>
<path d="M688.312 127.867L710.903 127.6" fill="#aa7754" fill-rule="nonzero" opacity="1" stroke="#f3f4e1" stroke-linecap="round" stroke-linejoin="round" stroke-width="5.56"/>
<path d="M689.163 144.058L704.588 144.109" fill="#aa7754" fill-rule="nonzero" opacity="1" stroke="#f3f4e1" stroke-linecap="round" stroke-linejoin="round" stroke-width="5.56"/>
</g>
</g>
<path d="M325.119 114.631L791.774 116.07L789.068 497.858C789.068 497.858 788.399 640.877 763.39 762.353C737.41 888.543 698.479 970.632 698.479 970.632L205.626 958.25C205.626 958.25 250.732 917.206 271.748 877.181C312.516 799.536 315.043 729.272 315.043 729.272L325.119 114.631Z" fill="#aa7754" fill-rule="nonzero" opacity="1" stroke="#aa7754" stroke-linecap="butt" stroke-linejoin="round" stroke-width="12.7"/>
<path d="M141.467 678.597L127.173 648.845C127.173 648.845 159.164 681.971 185.131 535.633C211.099 389.294 231.043 63.4907 231.043 63.4907L877.171 59.9175C877.171 59.9175 935.381 199.515 906.956 592.883C894.626 763.518 865.336 744.134 865.336 744.134L846.758 717.317C846.758 717.317 868.757 705.774 877.478 555.705C894.344 265.486 854.77 116.082 854.77 116.082L264.442 115.155C264.442 115.155 253.243 414.543 222.499 555.404C191.755 696.264 141.467 678.597 141.467 678.597Z" fill="#aa7754" fill-rule="nonzero" opacity="1" stroke="#aa7754" stroke-linecap="butt" stroke-linejoin="round" stroke-width="12.7"/>
<g opacity="1">
<path d="M628.165 111.574L764.537 111.574L764.537 172.979L628.165 172.979L628.165 111.574Z" fill="#f3f4e1" fill-rule="nonzero" opacity="1" stroke="#f3f4e1" stroke-linecap="round" stroke-linejoin="round" stroke-width="12.7"/>
<g opacity="1">
<g opacity="1">
<path d="M648.632 121.774L648.9 161.64" fill="none" opacity="1" stroke="#aa7754" stroke-linecap="round" stroke-linejoin="round" stroke-width="5.56"/>
<path d="M650.613 141.758L666.137 121.877L650.613 141.758Z" fill="none" opacity="1" stroke="#aa7754" stroke-linecap="round" stroke-linejoin="round" stroke-width="5.56"/>
<path d="M656.433 141.871L667.875 161.373" fill="none" opacity="1" stroke="#aa7754" stroke-linecap="round" stroke-linejoin="round" stroke-width="5.56"/>
</g>
<path d="M743.888 127.212C743.888 127.212 736.591 117.339 730.056 126.102C721.461 137.626 753.577 149.389 744.621 158.846C734.592 169.436 725.149 153.35 725.149 153.35" fill="none" opacity="1" stroke="#aa7754" stroke-linecap="round" stroke-linejoin="round" stroke-width="5.56"/>
<g opacity="1">
<path d="M688.216 122.401L688.347 141.862L688.484 162.267" fill="none" opacity="1" stroke="#aa7754" stroke-linecap="round" stroke-linejoin="round" stroke-width="5.56"/>
<path d="M688.312 122.324L710.903 122.057" fill="none" opacity="1" stroke="#aa7754" stroke-linecap="round" stroke-linejoin="round" stroke-width="5.56"/>
<path d="M689.163 138.514L704.588 138.565" fill="none" opacity="1" stroke="#aa7754" stroke-linecap="round" stroke-linejoin="round" stroke-width="5.56"/>
</g>
</g>
</g>
<g fill="#f3f4e1" opacity="1" stroke="none">
<path clip-path="url(#TextBounds)" d="M559.072 397.432C557.606 397.285 555.992 396.992 554.232 396.552C552.472 396.112 550.859 395.819 549.392 395.672C547.632 392.885 546.532 389.695 546.092 386.102C545.652 382.509 545.322 378.915 545.102 375.322C544.882 371.729 543.966 368.539 542.352 365.752C537.072 365.459 531.022 364.469 524.202 362.782C517.382 361.095 510.562 359.482 503.742 357.942C496.922 356.402 490.872 355.632 485.592 355.632C483.979 358.712 483.356 362.012 483.722 365.532C484.089 369.052 484.639 372.645 485.372 376.312C485.519 376.899 485.666 377.522 485.812 378.182C485.959 378.842 486.106 379.539 486.252 380.272C486.252 380.859 486.546 381.665 487.132 382.692C487.572 383.425 487.939 384.269 488.232 385.222C488.526 386.175 488.452 387.532 488.012 389.292C487.426 389.292 486.692 388.999 485.812 388.412C485.226 387.972 484.639 387.642 484.052 387.422C483.466 387.202 482.586 387.165 481.412 387.312C480.679 385.112 479.872 383.792 478.992 383.352C478.112 382.912 476.939 382.619 475.472 382.472C475.179 382.325 474.812 382.252 474.372 382.252C473.932 382.252 473.492 382.179 473.052 382.032C472.466 381.152 471.586 379.429 470.412 376.862C469.239 374.295 468.176 371.729 467.222 369.162C466.269 366.595 465.646 364.872 465.352 363.992C464.032 358.125 464.546 353.212 466.892 349.252C469.239 345.292 472.319 342.285 476.132 340.232C478.332 339.205 480.642 338.399 483.062 337.812C485.482 337.225 488.526 337.592 492.192 338.912C496.739 339.939 502.276 341.295 508.802 342.982C515.329 344.669 521.782 346.465 528.162 348.372C534.542 350.279 539.712 352.039 543.672 353.652C545.432 349.692 546.826 345.402 547.852 340.782C548.879 336.162 550.272 331.872 552.032 327.912C552.766 328.352 553.389 328.865 553.902 329.452C554.416 330.039 554.892 330.625 555.332 331.212C556.359 332.825 557.239 333.559 557.972 333.412C558.412 335.319 558.669 337.482 558.742 339.902C558.816 342.322 558.852 344.779 558.852 347.272C558.706 349.032 558.669 350.755 558.742 352.442C558.816 354.129 558.926 355.559 559.072 356.732C562.886 357.759 567.139 359.042 571.832 360.582C576.526 362.122 580.926 364.139 585.032 366.632C589.139 369.125 592.072 372.205 593.832 375.872C590.606 375.725 586.719 375.175 582.172 374.222C577.626 373.269 573.299 372.279 569.192 371.252C565.086 370.225 561.932 369.419 559.732 368.832C559.586 370.592 559.549 372.389 559.622 374.222C559.696 376.055 559.732 377.999 559.732 380.052C559.879 383.279 559.952 386.432 559.952 389.512C559.952 392.592 559.659 395.232 559.072 397.432Z"/>
<path clip-path="url(#TextBounds)" d="M535.313 529.212C534.873 527.599 534.066 526.132 532.893 524.812C531.719 523.492 530.583 522.209 529.483 520.962C528.383 519.715 527.833 518.139 527.833 516.232C530.179 514.325 533.039 512.969 536.413 512.162C539.786 511.355 543.086 510.439 546.313 509.412C549.539 508.385 551.886 506.479 553.353 503.692C553.206 502.519 552.619 500.942 551.593 498.962C550.566 496.982 549.429 495.185 548.183 493.572C546.936 491.959 545.653 491.225 544.333 491.372C543.746 490.052 542.719 488.622 541.253 487.082C539.786 485.542 538.319 484.332 536.853 483.452C535.386 482.572 534.213 482.279 533.333 482.572C532.893 481.399 532.049 480.592 530.803 480.152C529.556 479.712 528.346 479.235 527.173 478.722C525.999 478.209 525.266 477.219 524.972 475.752C524.532 475.752 524.093 475.899 523.653 476.192C523.066 476.632 522.626 476.632 522.333 476.192C518.079 472.819 512.762 470.032 506.382 467.832C500.002 465.632 493.402 463.579 486.582 461.672C479.762 459.765 473.492 457.639 467.772 455.292C466.746 453.679 465.609 452.175 464.362 450.782C463.116 449.389 461.979 447.885 460.952 446.272C462.566 443.632 464.326 441.139 466.232 438.792C468.139 436.445 470.266 434.392 472.612 432.632C473.346 434.539 474.556 435.529 476.242 435.602C477.929 435.675 479.652 435.749 481.412 435.822C483.172 435.895 484.346 436.885 484.932 438.792C493.439 440.552 502.862 441.982 513.202 443.082C523.542 444.182 533.846 445.465 544.112 446.932C554.379 448.399 563.619 450.379 571.832 452.872C570.366 454.339 568.532 455.255 566.332 455.622C564.132 455.989 562.079 456.245 560.172 456.392C554.452 456.832 548.952 457.015 543.672 456.942C538.392 456.869 533.112 457.125 527.832 457.712C535.606 464.019 542.939 470.325 549.833 476.632C556.726 482.939 562.959 489.979 568.533 497.752C570.439 503.325 570.696 508.202 569.303 512.382C567.909 516.562 565.599 519.972 562.373 522.612C558.999 525.545 554.856 527.562 549.943 528.662C545.029 529.762 540.153 529.945 535.313 529.212Z"/>
<path clip-path="url(#TextBounds)" d="M548.953 666.052C545.726 666.785 542.169 666.969 538.283 666.602C534.396 666.235 530.473 665.685 526.513 664.952C523.726 664.512 520.976 664.109 518.263 663.742C515.549 663.375 512.873 663.192 510.233 663.192C509.499 663.192 508.619 663.045 507.593 662.752C506.566 662.459 505.466 662.165 504.293 661.872C501.946 661.285 499.709 660.772 497.583 660.332C495.456 659.892 494.173 660.259 493.733 661.432C491.973 661.139 489.296 660.809 485.703 660.442C482.109 660.075 478.589 659.635 475.143 659.122C471.696 658.609 469.166 657.839 467.553 656.812C467.699 654.759 467.589 652.852 467.223 651.092C466.856 649.332 465.866 648.305 464.253 648.012C465.866 644.345 468.249 641.815 471.403 640.422C474.556 639.029 478.186 638.259 482.293 638.112C485.079 637.965 488.233 638.222 491.753 638.882C495.273 639.542 498.793 640.312 502.313 641.192C507.299 642.219 511.883 643.025 516.063 643.612C520.243 644.199 523.066 643.759 524.533 642.292C523.066 640.239 521.196 638.699 518.923 637.672C516.649 636.645 514.523 635.509 512.543 634.262C510.563 633.015 509.206 630.999 508.473 628.212C505.686 628.065 502.863 627.112 500.003 625.352C497.143 623.592 494.319 621.539 491.533 619.192C488.746 616.845 485.959 614.792 483.173 613.032C480.386 611.272 477.599 610.319 474.813 610.172C472.613 606.505 470.193 603.205 467.553 600.272C464.913 597.339 462.786 593.452 461.173 588.612C462.199 587.292 463.006 585.349 463.593 582.782C464.179 580.215 463.959 578.199 462.933 576.732C463.666 574.825 464.619 573.285 465.793 572.112C466.966 570.939 467.846 569.399 468.433 567.492C473.566 563.825 479.396 561.369 485.923 560.122C492.449 558.875 499.123 558.435 505.943 558.802C512.763 559.169 518.959 559.939 524.533 561.112C526.439 561.552 528.126 562.285 529.593 563.312C531.059 564.339 532.746 565.145 534.653 565.732C538.759 567.199 543.123 568.555 547.743 569.802C552.363 571.049 556.579 572.735 560.393 574.862C564.206 576.989 566.699 580.032 567.873 583.992C561.713 583.405 555.736 582.562 549.943 581.462C544.149 580.362 538.539 579.299 533.113 578.272C523.286 576.219 514.046 574.605 505.393 573.432C496.739 572.259 488.526 572.919 480.753 575.412C480.166 578.345 481.083 581.865 483.503 585.972C485.923 590.079 489.369 594.479 493.843 599.172C498.316 603.865 503.303 608.559 508.803 613.252C514.303 617.945 519.803 622.345 525.303 626.452C530.803 630.559 535.826 634.079 540.373 637.012C544.919 639.945 548.366 641.925 550.713 642.952C554.526 643.539 557.533 644.199 559.733 644.932C561.933 645.665 564.646 646.985 567.873 648.892C569.046 652.705 568.643 656.262 566.663 659.562C564.683 662.862 562.226 664.879 559.293 665.612C558.413 665.759 557.606 665.832 556.873 665.832C556.139 665.832 555.333 665.832 554.453 665.832C553.719 665.832 552.876 665.795 551.923 665.722C550.969 665.649 549.979 665.759 548.953 666.052Z"/>
<path clip-path="url(#TextBounds)" d="M524.533 796.952C521.893 797.099 519.729 796.145 518.043 794.092C516.356 792.039 514.999 789.435 513.973 786.282C512.946 783.129 512.213 779.865 511.773 776.492C511.333 773.119 511.039 770.185 510.893 767.692C510.746 764.319 510.966 761.275 511.553 758.562C512.139 755.849 512.726 753.172 513.313 750.532C513.459 749.799 513.643 749.065 513.863 748.332C514.083 747.599 514.266 746.865 514.413 746.132C515.146 742.905 515.843 739.275 516.503 735.242C517.163 731.209 518.226 728.019 519.693 725.672C518.226 724.352 516.063 723.472 513.203 723.032C510.343 722.592 507.336 722.555 504.183 722.922C501.029 723.289 498.243 724.022 495.823 725.122C493.403 726.222 491.973 727.579 491.533 729.192C491.239 731.245 490.543 733.042 489.443 734.582C488.343 736.122 487.133 737.625 485.813 739.092C484.199 740.999 482.696 743.015 481.303 745.142C479.909 747.269 479.433 749.872 479.873 752.952C477.673 753.979 476.536 754.895 476.463 755.702C476.389 756.509 476.499 757.352 476.793 758.232C477.086 758.965 477.233 759.552 477.233 759.992C476.646 762.045 475.399 764.465 473.493 767.252C471.586 770.039 469.313 771.945 466.673 772.972C464.913 770.919 463.959 768.792 463.813 766.592C463.666 764.392 463.666 762.045 463.813 759.552C463.959 757.792 464.033 755.959 464.033 754.052C464.033 752.145 463.813 750.165 463.373 748.112C464.546 747.525 465.243 746.462 465.463 744.922C465.683 743.382 466.086 741.732 466.673 739.972C467.259 738.212 468.653 736.672 470.853 735.352C472.026 730.219 474.703 725.452 478.883 721.052C483.063 716.652 487.059 712.619 490.873 708.952C492.926 708.365 494.906 707.742 496.813 707.082C498.719 706.422 500.186 705.285 501.213 703.672C502.826 703.965 504.073 704.002 504.953 703.782C505.833 703.562 506.713 703.305 507.593 703.012C507.886 702.865 508.216 702.719 508.583 702.572C508.949 702.425 509.426 702.279 510.013 702.132C516.906 703.892 523.653 706.605 530.253 710.272C536.853 713.939 543.013 718.559 548.733 724.132C551.079 726.332 553.536 729.009 556.103 732.162C558.669 735.315 560.979 738.615 563.033 742.062C565.086 745.509 566.259 748.699 566.553 751.632C566.699 752.805 566.663 753.942 566.443 755.042C566.223 756.142 565.966 757.279 565.673 758.452C565.233 759.919 564.903 761.422 564.683 762.962C564.463 764.502 564.646 766.079 565.233 767.692C562.446 772.092 559.733 776.199 557.093 780.012C554.453 783.825 550.713 786.099 545.873 786.832C544.846 789.179 542.976 790.755 540.263 791.562C537.549 792.369 535.093 793.505 532.893 794.972C531.719 793.505 530.106 792.955 528.053 793.322C525.999 793.689 524.826 794.899 524.533 796.952ZM528.493 774.732C530.546 775.172 532.563 774.952 534.543 774.072C536.523 773.192 538.466 772.165 540.373 770.992C541.693 770.259 542.903 769.635 544.003 769.122C545.103 768.609 546.166 768.279 547.193 768.132C547.486 766.079 548.256 764.465 549.503 763.292C550.749 762.119 551.813 760.505 552.693 758.452C549.759 751.705 545.909 745.362 541.143 739.422C536.376 733.482 530.619 729.192 523.873 726.552C524.606 730.072 524.973 733.849 524.973 737.882C524.973 741.915 524.899 745.912 524.753 749.872C524.606 753.979 524.533 757.939 524.533 761.752C524.533 765.565 524.973 768.939 525.853 771.872C527.173 771.872 527.759 772.275 527.613 773.082C527.466 773.889 527.759 774.439 528.493 774.732Z"/>
</g>
</g>
</svg>
