<?xml version="1.0" encoding="UTF-8" standalone="no"?>
<!DOCTYPE svg PUBLIC "-//W3C//DTD SVG 1.1//EN" "http://www.w3.org/Graphics/SVG/1.1/DTD/svg11.dtd">
<!-- Created with Vectornator (http://vectornator.io/) -->
<svg height="100%" stroke-miterlimit="10" style="fill-rule:nonzero;clip-rule:evenodd;stroke-linecap:round;stroke-linejoin:round;" version="1.1" viewBox="0 0 1024 1024" width="100%" xml:space="preserve" xmlns="http://www.w3.org/2000/svg" xmlns:xlink="http://www.w3.org/1999/xlink">
<defs>
<clipPath id="TextBounds">
<rect height="718.83" width="453.55" x="316.766" y="170.009"/>
</clipPath>
<clipPath id="TextBounds_2">
<rect height="453.551" width="392.89" x="301.674" y="328.754"/>
</clipPath>
</defs>
<g id="感謝">
<g opacity="1">
<path d="M325.119 114.631L791.774 116.07L789.068 497.858C789.068 497.858 788.399 640.877 763.39 762.353C737.41 888.543 698.479 970.632 698.479 970.632L205.626 958.25C205.626 958.25 250.732 917.206 271.748 877.181C312.516 799.536 315.043 729.272 315.043 729.272L325.119 114.631Z" fill="#aa7754" fill-rule="nonzero" opacity="1" stroke="#f3f4e1" stroke-linecap="butt" stroke-linejoin="round" stroke-width="12.7"/>
<path d="M141.467 678.597L127.173 648.845C127.173 648.845 159.164 681.971 185.131 535.633C211.099 389.294 231.043 63.4907 231.043 63.4907L877.171 59.9175C877.171 59.9175 935.381 199.515 906.956 592.883C894.626 763.518 865.336 744.134 865.336 744.134L846.758 717.317C846.758 717.317 868.757 705.774 877.478 555.705C894.344 265.486 854.77 116.082 854.77 116.082L264.442 115.155C264.442 115.155 253.243 414.543 222.499 555.404C191.755 696.264 141.467 678.597 141.467 678.597Z" fill="#aa7754" fill-rule="nonzero" opacity="1" stroke="#f3f4e1" stroke-linecap="butt" stroke-linejoin="round" stroke-width="12.7"/>
<g opacity="1">
<path d="M628.165 117.118L764.537 117.118L764.537 178.523L628.165 178.523L628.165 117.118Z" fill="#aa7754" fill-rule="nonzero" opacity="1" stroke="#f3f4e1" stroke-linecap="round" stroke-linejoin="round" stroke-width="12.7"/>
<g opacity="1">
<path d="M648.632 127.317L648.9 167.183" fill="#aa7754" fill-rule="nonzero" opacity="1" stroke="#f3f4e1" stroke-linecap="round" stroke-linejoin="round" stroke-width="5.56"/>
<path d="M650.613 147.302L666.137 127.421L650.613 147.302Z" fill="#aa7754" fill-rule="nonzero" opacity="1" stroke="#f3f4e1" stroke-linecap="round" stroke-linejoin="round" stroke-width="5.56"/>
<path d="M656.433 147.415L667.875 166.916" fill="#aa7754" fill-rule="nonzero" opacity="1" stroke="#f3f4e1" stroke-linecap="round" stroke-linejoin="round" stroke-width="5.56"/>
</g>
<path d="M743.888 132.756C743.888 132.756 736.591 122.882 730.056 131.645C721.461 143.17 753.577 154.933 744.621 164.389C734.592 174.98 725.149 158.894 725.149 158.894" fill="#aa7754" fill-rule="nonzero" opacity="1" stroke="#f3f4e1" stroke-linecap="round" stroke-linejoin="round" stroke-width="5.56"/>
<g opacity="1">
<path d="M688.216 127.945L688.347 147.406L688.484 167.811" fill="#aa7754" fill-rule="nonzero" opacity="1" stroke="#f3f4e1" stroke-linecap="round" stroke-linejoin="round" stroke-width="5.56"/>
<path d="M688.312 127.867L710.903 127.6" fill="#aa7754" fill-rule="nonzero" opacity="1" stroke="#f3f4e1" stroke-linecap="round" stroke-linejoin="round" stroke-width="5.56"/>
<path d="M689.163 144.058L704.588 144.109" fill="#aa7754" fill-rule="nonzero" opacity="1" stroke="#f3f4e1" stroke-linecap="round" stroke-linejoin="round" stroke-width="5.56"/>
</g>
</g>
</g>
<path d="M325.119 114.631L791.774 116.07L789.068 497.858C789.068 497.858 788.399 640.877 763.39 762.353C737.41 888.543 698.479 970.632 698.479 970.632L205.626 958.25C205.626 958.25 250.732 917.206 271.748 877.181C312.516 799.536 315.043 729.272 315.043 729.272L325.119 114.631Z" fill="#aa7754" fill-rule="nonzero" opacity="1" stroke="#f3f4e1" stroke-linecap="butt" stroke-linejoin="round" stroke-width="12.7"/>
<path d="M141.467 678.597L127.173 648.845C127.173 648.845 159.164 681.971 185.131 535.633C211.099 389.294 231.043 63.4907 231.043 63.4907L877.171 59.9175C877.171 59.9175 935.381 199.515 906.956 592.883C894.626 763.518 865.336 744.134 865.336 744.134L846.758 717.317C846.758 717.317 868.757 705.774 877.478 555.705C894.344 265.486 854.77 116.082 854.77 116.082L264.442 115.155C264.442 115.155 253.243 414.543 222.499 555.404C191.755 696.264 141.467 678.597 141.467 678.597Z" fill="#aa7754" fill-rule="nonzero" opacity="1" stroke="#f3f4e1" stroke-linecap="butt" stroke-linejoin="round" stroke-width="12.7"/>
<g opacity="1">
<path d="M628.165 117.118L764.537 117.118L764.537 178.523L628.165 178.523L628.165 117.118Z" fill="#aa7754" fill-rule="nonzero" opacity="1" stroke="#f3f4e1" stroke-linecap="round" stroke-linejoin="round" stroke-width="12.7"/>
<g opacity="1">
<path d="M648.632 127.317L648.9 167.183" fill="#aa7754" fill-rule="nonzero" opacity="1" stroke="#f3f4e1" stroke-linecap="round" stroke-linejoin="round" stroke-width="5.56"/>
<path d="M650.613 147.302L666.137 127.421L650.613 147.302Z" fill="#aa7754" fill-rule="nonzero" opacity="1" stroke="#f3f4e1" stroke-linecap="round" stroke-linejoin="round" stroke-width="5.56"/>
<path d="M656.433 147.415L667.875 166.916" fill="#aa7754" fill-rule="nonzero" opacity="1" stroke="#f3f4e1" stroke-linecap="round" stroke-linejoin="round" stroke-width="5.56"/>
</g>
<path d="M743.888 132.756C743.888 132.756 736.591 122.882 730.056 131.645C721.461 143.17 753.577 154.933 744.621 164.389C734.592 174.98 725.149 158.894 725.149 158.894" fill="#aa7754" fill-rule="nonzero" opacity="1" stroke="#f3f4e1" stroke-linecap="round" stroke-linejoin="round" stroke-width="5.56"/>
<g opacity="1">
<path d="M688.216 127.945L688.347 147.406L688.484 167.811" fill="#aa7754" fill-rule="nonzero" opacity="1" stroke="#f3f4e1" stroke-linecap="round" stroke-linejoin="round" stroke-width="5.56"/>
<path d="M688.312 127.867L710.903 127.6" fill="#aa7754" fill-rule="nonzero" opacity="1" stroke="#f3f4e1" stroke-linecap="round" stroke-linejoin="round" stroke-width="5.56"/>
<path d="M689.163 144.058L704.588 144.109" fill="#aa7754" fill-rule="nonzero" opacity="1" stroke="#f3f4e1" stroke-linecap="round" stroke-linejoin="round" stroke-width="5.56"/>
</g>
</g>
<path d="M325.119 114.631L791.774 116.07L789.068 497.858C789.068 497.858 788.399 640.877 763.39 762.353C737.41 888.543 698.479 970.632 698.479 970.632L205.626 958.25C205.626 958.25 250.732 917.206 271.748 877.181C312.516 799.536 315.043 729.272 315.043 729.272L325.119 114.631Z" fill="#aa7754" fill-rule="nonzero" opacity="1" stroke="#aa7754" stroke-linecap="butt" stroke-linejoin="round" stroke-width="12.7"/>
<path d="M141.467 678.597L127.173 648.845C127.173 648.845 159.164 681.971 185.131 535.633C211.099 389.294 231.043 63.4907 231.043 63.4907L877.171 59.9175C877.171 59.9175 935.381 199.515 906.956 592.883C894.626 763.518 865.336 744.134 865.336 744.134L846.758 717.317C846.758 717.317 868.757 705.774 877.478 555.705C894.344 265.486 854.77 116.082 854.77 116.082L264.442 115.155C264.442 115.155 253.243 414.543 222.499 555.404C191.755 696.264 141.467 678.597 141.467 678.597Z" fill="#aa7754" fill-rule="nonzero" opacity="1" stroke="#aa7754" stroke-linecap="butt" stroke-linejoin="round" stroke-width="12.7"/>
<g opacity="1">
<path d="M628.165 111.574L764.537 111.574L764.537 172.979L628.165 172.979L628.165 111.574Z" fill="#f3f4e1" fill-rule="nonzero" opacity="1" stroke="#f3f4e1" stroke-linecap="round" stroke-linejoin="round" stroke-width="12.7"/>
<g opacity="1">
<g opacity="1">
<path d="M648.632 121.774L648.9 161.64" fill="none" opacity="1" stroke="#aa7754" stroke-linecap="round" stroke-linejoin="round" stroke-width="5.56"/>
<path d="M650.613 141.758L666.137 121.877L650.613 141.758Z" fill="none" opacity="1" stroke="#aa7754" stroke-linecap="round" stroke-linejoin="round" stroke-width="5.56"/>
<path d="M656.433 141.871L667.875 161.373" fill="none" opacity="1" stroke="#aa7754" stroke-linecap="round" stroke-linejoin="round" stroke-width="5.56"/>
</g>
<path d="M743.888 127.212C743.888 127.212 736.591 117.339 730.056 126.102C721.461 137.626 753.577 149.389 744.621 158.846C734.592 169.436 725.149 153.35 725.149 153.35" fill="none" opacity="1" stroke="#aa7754" stroke-linecap="round" stroke-linejoin="round" stroke-width="5.56"/>
<g opacity="1">
<path d="M688.216 122.401L688.347 141.862L688.484 162.267" fill="none" opacity="1" stroke="#aa7754" stroke-linecap="round" stroke-linejoin="round" stroke-width="5.56"/>
<path d="M688.312 122.324L710.903 122.057" fill="none" opacity="1" stroke="#aa7754" stroke-linecap="round" stroke-linejoin="round" stroke-width="5.56"/>
<path d="M689.163 138.514L704.588 138.565" fill="none" opacity="1" stroke="#aa7754" stroke-linecap="round" stroke-linejoin="round" stroke-width="5.56"/>
</g>
</g>
</g>
<g fill="#f3f4e1" opacity="1" stroke="none">
<path clip-path="url(#TextBounds)" d="M624.306 399.085C625.932 404.29 626.176 409.618 625.038 415.067C623.899 420.516 621.947 425.518 619.182 430.073C616.416 434.628 613.163 438.45 609.422 441.541C609.91 443.493 609.503 444.998 608.202 446.055C606.9 447.112 605.436 448.129 603.81 449.105C602.671 449.756 601.654 450.366 600.76 450.935C599.865 451.504 599.174 452.196 598.686 453.009C597.384 452.196 596.53 451.057 596.124 449.593C595.717 448.129 595.188 446.665 594.538 445.201C595.026 444.225 595.717 443.452 596.612 442.883C597.506 442.314 597.954 441.216 597.954 439.589C601.858 436.498 605.518 432.676 608.934 428.121C612.35 423.566 614.139 418.605 614.302 413.237C614.464 406.893 612.634 401.403 608.812 396.767C604.989 392.131 601.044 387.942 596.978 384.201C595.514 383.062 594.172 381.883 592.952 380.663C591.732 379.443 590.634 378.264 589.658 377.125C589.658 377.125 590.186 377.125 591.244 377.125C592.301 377.125 593.399 377.532 594.538 378.345C594.7 377.206 594.538 376.434 594.05 376.027C593.562 375.62 593.074 375.336 592.586 375.173C592.098 375.01 591.854 374.848 591.854 374.685C591.854 374.522 592.26 374.116 593.074 373.465C592.748 372.652 592.016 372.489 590.878 372.977C590.552 373.302 590.146 373.506 589.658 373.587C589.17 373.668 588.682 373.628 588.194 373.465C588.519 372.489 588.478 371.635 588.072 370.903C587.665 370.171 587.462 369.805 587.462 369.805C587.136 369.968 586.73 370.13 586.242 370.293C585.754 370.618 585.225 370.862 584.656 371.025C584.086 371.188 583.558 371.025 583.07 370.537L583.07 367.121C582.094 366.796 581.077 366.389 580.02 365.901C578.962 365.413 577.946 364.844 576.97 364.193C574.692 363.054 572.374 362.038 570.016 361.143C567.657 360.248 565.42 360.045 563.306 360.533C562.98 360.533 562.492 360.858 561.842 361.509C561.516 361.834 560.988 362.2 560.256 362.607C559.524 363.014 558.588 363.054 557.45 362.729C557.124 362.729 556.962 362.322 556.962 361.509C556.962 360.858 556.718 360.533 556.23 360.533C554.115 360.208 551.309 360.167 547.812 360.411C544.314 360.655 541.671 360.94 539.882 361.265C538.906 363.868 538.296 367.772 538.052 372.977C537.808 378.182 537.686 382.981 537.686 387.373C537.686 388.674 537.686 389.894 537.686 391.033C537.686 392.172 537.686 393.148 537.686 393.961C538.174 393.636 538.743 393.351 539.394 393.107C540.044 392.863 540.695 392.578 541.346 392.253C544.599 390.626 548.34 388.918 552.57 387.129C556.799 385.34 561.15 384.242 565.624 383.835C570.097 383.428 574.286 384.445 578.19 386.885C577.864 387.698 577.824 388.593 578.068 389.569C578.312 390.545 578.596 391.602 578.922 392.741C579.247 393.554 579.491 394.205 579.654 394.693C577.864 395.344 576.644 396.32 575.994 397.621C575.343 398.922 574.692 400.305 574.042 401.769C573.391 403.233 572.171 404.453 570.382 405.429C571.195 408.032 570.951 410.309 569.65 412.261C568.348 414.213 566.966 415.921 565.502 417.385C564.851 418.036 564.363 418.524 564.038 418.849C563.875 419.5 564.038 420.15 564.526 420.801C564.851 420.964 565.054 421.208 565.136 421.533C565.217 421.858 565.095 422.428 564.77 423.241C561.191 425.681 558.141 427.999 555.62 430.195C553.098 432.391 549.235 434.058 544.03 435.197C543.867 435.034 543.704 434.872 543.542 434.709C543.054 434.058 542.606 433.611 542.2 433.367C541.793 433.123 541.02 433.245 539.882 433.733C537.279 430.968 535.124 427.348 533.416 422.875C531.708 418.402 530.691 414.213 530.366 410.309C523.371 414.05 516.702 417.71 510.358 421.289C504.014 424.868 497.507 428.121 490.838 431.049C490.512 431.049 490.512 431.293 490.838 431.781C491.326 432.432 491.326 432.92 490.838 433.245C487.747 433.896 485.266 434.384 483.396 434.709C481.525 435.034 479.451 435.929 477.174 437.393C475.059 437.23 473.31 436.661 471.928 435.685C470.545 434.709 468.959 433.896 467.17 433.245C468.308 431.456 468.349 429.87 467.292 428.487C466.234 427.104 465.055 426.25 463.754 425.925L465.95 425.193C464.323 423.892 462.94 422.468 461.802 420.923C460.663 419.378 459.443 417.792 458.142 416.165C459.606 413.237 461.273 409.78 463.144 405.795C465.014 401.81 467.129 398.028 469.488 394.449C471.846 390.87 474.408 388.349 477.174 386.885L475.71 385.421C476.36 384.608 477.174 383.754 478.15 382.859C479.126 381.964 480.508 381.192 482.298 380.541L480.834 379.809C485.226 375.742 489.943 371.391 494.986 366.755C500.028 362.119 505.559 357.727 511.578 353.579C517.596 349.431 524.184 346.137 531.342 343.697C531.504 340.118 531.748 335.808 532.074 330.765C532.399 325.722 532.806 321.493 533.294 318.077C527.6 315.637 521.541 313.522 515.116 311.733C508.69 309.944 502.956 307.504 497.914 304.413C498.727 300.997 500.313 298.72 502.672 297.581C505.03 296.442 507.674 295.629 510.602 295.141C513.53 294.653 516.132 293.758 518.41 292.457C519.223 292.457 520.036 292.376 520.85 292.213C521.663 292.05 522.558 291.888 523.534 291.725C525.323 291.4 527.275 291.115 529.39 290.871C531.504 290.627 533.782 290.668 536.222 290.993C537.035 288.716 537.645 285.706 538.052 281.965C538.458 278.224 538.824 274.564 539.15 270.985C541.752 272.286 543.013 274.645 542.932 278.061C542.85 281.477 542.566 284.893 542.078 288.309C541.915 289.122 541.834 289.773 541.834 290.261C546.551 290.912 551.309 291.359 556.108 291.603C560.906 291.847 565.583 292.457 570.138 293.433C574.692 294.409 578.759 296.442 582.338 299.533C582.5 301.16 582.419 302.502 582.094 303.559C581.768 304.616 581.362 305.633 580.874 306.609C580.548 307.422 580.182 308.317 579.776 309.293C579.369 310.269 579.084 311.489 578.922 312.953C574.042 313.604 569.731 314.336 565.99 315.149C562.248 315.962 558.507 316.694 554.766 317.345C551.024 317.996 546.714 318.484 541.834 318.809C541.183 320.924 540.776 324.218 540.614 328.691C540.451 333.164 540.207 337.272 539.882 341.013C542.647 340.85 546.266 340.85 550.74 341.013C555.213 341.176 559.646 341.42 564.038 341.745C568.43 342.07 571.683 342.477 573.798 342.965C574.611 343.128 575.099 343.494 575.262 344.063C575.424 344.632 575.668 345.161 575.994 345.649C579.247 344.836 580.874 345.568 580.874 347.845C582.5 347.52 583.761 347.601 584.656 348.089C585.55 348.577 586.404 349.065 587.218 349.553C587.868 350.041 588.519 350.488 589.17 350.895C589.82 351.302 590.634 351.505 591.61 351.505C599.092 357.036 605.68 363.908 611.374 372.123C617.067 380.338 621.378 389.325 624.306 399.085ZM529.878 363.461C528.251 363.949 525.811 365.006 522.558 366.633C519.304 368.26 516.946 370.293 515.482 372.733C511.578 373.709 508.934 375.295 507.552 377.491C506.169 379.687 504.583 382.574 502.794 386.153C503.932 386.316 504.949 386.234 505.844 385.909C506.738 385.584 507.186 385.421 507.186 385.421C505.071 388.186 502.672 390.952 499.988 393.717C497.304 396.482 494.864 399.41 492.668 402.501C490.472 405.592 489.13 408.926 488.642 412.505C489.943 412.668 490.797 413.156 491.204 413.969C491.61 414.782 492.627 415.27 494.254 415.433C499.784 413.644 505.559 411.041 511.578 407.625C517.596 404.209 523.452 401.118 529.146 398.353C529.146 395.1 529.146 391.277 529.146 386.885C529.146 382.493 529.227 378.142 529.39 373.831C529.552 369.52 529.715 366.064 529.878 363.461ZM558.914 401.037C554.522 401.037 550.618 401.728 547.202 403.111C543.786 404.494 540.939 405.836 538.662 407.137C538.824 409.414 539.312 412.18 540.126 415.433C540.939 418.686 541.996 421.289 543.298 423.241C547.852 420.638 551.228 417.548 553.424 413.969C555.62 410.39 557.45 406.08 558.914 401.037ZM588.926 376.393C588.112 377.206 586.608 377.044 584.412 375.905C582.216 374.766 580.06 373.465 577.946 372.001C577.132 371.513 576.319 371.025 575.506 370.537C574.692 370.049 573.96 369.642 573.31 369.317C574.774 368.341 576.319 368.341 577.946 369.317C579.572 370.293 581.199 371.432 582.826 372.733C583.802 373.546 584.818 374.278 585.876 374.929C586.933 375.58 587.95 376.068 588.926 376.393Z"/>
<path clip-path="url(#TextBounds)" d="M638.214 810.633C636.099 810.958 634.432 811.365 633.212 811.853C631.992 812.341 630.65 813.317 629.186 814.781C627.722 814.618 626.624 814.09 625.892 813.195C625.16 812.3 624.387 811.446 623.574 810.633C623.248 810.633 623.167 810.877 623.33 811.365C623.492 811.69 623.33 811.934 622.842 812.097C621.215 811.446 620.158 810.267 619.67 808.559C619.182 806.851 618.612 805.184 617.962 803.557C614.383 805.346 611.13 807.705 608.202 810.633C605.274 813.561 603.403 815.92 602.59 817.709C601.614 819.661 600.922 821.532 600.516 823.321C600.109 825.11 598.767 826.005 596.49 826.005C595.839 826.005 595.026 825.598 594.05 824.785C593.562 824.46 593.074 824.175 592.586 823.931C592.098 823.687 591.528 823.89 590.878 824.541C590.39 824.378 590.146 823.646 590.146 822.345C590.146 822.182 590.146 822.02 590.146 821.857C590.146 821.857 589.739 822.142 588.926 822.711C588.112 823.28 587.787 822.996 587.95 821.857C587.624 821.044 586.892 820.881 585.754 821.369C584.778 821.857 584.127 821.776 583.802 821.125C583.802 820.8 584.005 820.637 584.412 820.637C584.818 820.637 585.103 820.556 585.266 820.393C585.103 819.58 584.696 819.417 584.046 819.905C583.395 820.393 582.907 820.556 582.582 820.393C582.419 819.905 582.5 819.498 582.826 819.173C582.988 818.848 583.07 818.522 583.07 818.197C579.979 817.872 577.132 817.262 574.53 816.367C571.927 815.472 569.487 813.805 567.21 811.365C566.396 811.528 565.502 811.65 564.526 811.731C563.55 811.812 562.33 811.69 560.866 811.365C560.703 810.552 561.028 809.738 561.842 808.925C562.655 808.112 563.062 807.298 563.062 806.485C562.574 805.997 561.842 806.404 560.866 807.705C560.378 808.193 559.93 808.681 559.524 809.169C559.117 809.657 558.67 809.901 558.182 809.901C558.182 809.738 558.1 809.494 557.938 809.169C557.775 808.518 557.531 808.03 557.206 807.705C556.88 807.38 556.23 807.624 555.254 808.437C554.766 806.973 554.156 806.322 553.424 806.485C552.692 806.648 552.163 805.916 551.838 804.289C551.512 804.452 551.187 804.614 550.862 804.777C550.211 805.102 549.642 805.346 549.154 805.509C548.666 805.672 547.934 805.509 546.958 805.021C546.307 803.069 545.982 801.402 545.982 800.019C545.982 798.636 545.412 797.782 544.274 797.457C544.599 796.806 544.843 796.196 545.006 795.627C545.168 795.058 545.575 794.692 546.226 794.529C546.388 793.878 546.185 793.512 545.616 793.431C545.046 793.35 544.762 793.309 544.762 793.309C545.087 792.496 545.453 791.804 545.86 791.235C546.266 790.666 546.876 790.381 547.69 790.381C548.991 785.664 551.187 780.621 554.278 775.253C557.368 769.885 560.703 765.168 564.282 761.101C567.372 757.685 570.788 755.123 574.53 753.415C578.271 751.707 582.094 750.853 585.998 750.853C592.992 750.853 599.499 753.374 605.518 758.417C603.891 745.078 601.492 732.797 598.32 721.573C595.148 710.349 590.796 699.857 585.266 690.097C580.223 691.236 575.465 693.147 570.992 695.831C566.518 698.515 562.655 700.752 559.402 702.541C556.799 706.608 553.627 710.186 549.886 713.277C546.144 716.368 542.647 719.784 539.394 723.525C538.255 724.989 536.71 726.697 534.758 728.649C532.806 730.601 531.057 732.553 529.512 734.505C527.966 736.457 527.031 738.165 526.706 739.629C526.38 740.605 526.258 741.784 526.34 743.167C526.421 744.55 526.462 745.892 526.462 747.193C526.624 749.308 526.706 751.382 526.706 753.415C526.706 755.448 526.218 757.116 525.242 758.417C525.242 759.068 525.323 760.044 525.486 761.345C525.648 763.134 525.73 765.005 525.73 766.957C525.73 768.909 525.16 770.698 524.022 772.325C524.835 773.952 525.242 775.985 525.242 778.425C525.242 780.865 525.079 784.2 524.754 788.429C524.591 790.218 524.51 792.333 524.51 794.773C524.51 797.213 524.51 799.734 524.51 802.337C524.51 806.078 524.469 809.738 524.388 813.317C524.306 816.896 523.94 819.742 523.29 821.857C522.639 824.297 521.582 826.005 520.118 826.981C518.654 827.957 516.946 828.526 514.994 828.689C514.18 821.044 513.611 813.073 513.286 804.777C512.96 796.481 512.635 788.348 512.31 780.377C511.984 772.406 511.415 765.086 510.602 758.417C509.3 759.881 508.202 761.792 507.308 764.151C506.413 766.51 505.234 768.746 503.77 770.861C503.77 770.861 503.444 770.861 502.794 770.861C502.143 770.698 501.736 770.698 501.574 770.861C499.296 774.44 497.019 778.669 494.742 783.549C492.464 788.429 490.309 793.228 488.276 797.945C486.242 802.662 484.412 806.648 482.786 809.901C482.298 810.877 481.078 811.853 479.126 812.829C477.174 813.805 476.116 814.7 475.954 815.513C474.164 815.838 473.432 815.106 473.758 813.317C473.107 813.154 472.497 813.48 471.928 814.293C471.358 815.106 471.074 815.513 471.074 815.513C469.935 814.212 468.837 812.87 467.78 811.487C466.722 810.104 465.706 808.681 464.73 807.217C464.892 805.428 465.38 803.638 466.194 801.849C467.007 800.06 467.902 798.189 468.878 796.237C470.342 793.634 471.602 790.91 472.66 788.063C473.717 785.216 473.839 782.085 473.026 778.669C474.164 775.578 474.856 772.406 475.1 769.153C475.344 765.9 475.466 762.646 475.466 759.393C475.466 756.79 475.506 754.269 475.588 751.829C475.669 749.389 475.954 746.949 476.442 744.509C475.628 743.37 475.222 742.11 475.222 740.727C475.222 739.344 475.384 737.921 475.71 736.457C475.872 734.993 475.954 733.57 475.954 732.187C475.954 730.804 475.71 729.544 475.222 728.405L474.978 728.405C473.514 728.73 471.846 728.934 469.976 729.015C468.105 729.096 466.356 728.649 464.73 727.673C464.079 728.812 462.493 729.178 459.972 728.771C457.45 728.364 455.783 727.592 454.97 726.453C452.204 727.429 449.846 727.185 447.894 725.721C448.382 725.558 448.87 724.826 449.358 723.525C449.683 722.712 450.049 721.98 450.456 721.329C450.862 720.678 451.472 720.516 452.286 720.841C452.123 721.654 452.326 722.142 452.896 722.305C453.465 722.468 454.156 722.386 454.97 722.061C454.97 721.573 454.563 721.248 453.75 721.085C452.774 720.76 452.448 720.19 452.774 719.377C453.424 719.214 453.912 718.97 454.238 718.645C454.563 718.32 454.888 717.994 455.214 717.669C455.702 717.181 456.19 716.815 456.678 716.571C457.166 716.327 457.979 716.368 459.118 716.693C459.28 715.717 458.792 715.229 457.654 715.229C457.816 714.416 458.182 714.05 458.752 714.131C459.321 714.212 459.85 714.334 460.338 714.497C460.5 714.497 460.582 714.497 460.582 714.497C461.395 714.009 462.127 713.44 462.778 712.789C463.428 712.138 464.079 711.569 464.73 711.081C473.351 709.292 479.41 710.146 482.908 713.643C486.405 717.14 488.642 721.736 489.618 727.429C490.106 730.357 490.39 733.448 490.472 736.701C490.553 739.954 490.594 743.208 490.594 746.461C490.594 749.064 490.594 751.626 490.594 754.147C490.594 756.668 490.756 758.986 491.082 761.101C493.522 759.637 495.392 757.604 496.694 755.001C497.995 752.398 499.622 749.796 501.574 747.193C503.2 744.916 504.908 742.923 506.698 741.215C508.487 739.507 510.073 737.555 511.456 735.359C512.838 733.163 513.53 730.194 513.53 726.453C513.692 724.176 513.774 721.898 513.774 719.621C513.774 717.344 513.774 714.985 513.774 712.545C513.611 704.249 513.855 696.075 514.506 688.023C515.156 679.971 517.352 673.017 521.094 667.161C521.907 666.998 522.395 667.324 522.558 668.137C522.883 668.788 523.371 669.113 524.022 669.113C523.534 673.668 523.493 678.466 523.9 683.509C524.306 688.552 524.754 693.432 525.242 698.149C525.73 701.565 526.136 704.859 526.462 708.031C526.787 711.203 526.868 714.09 526.706 716.693C528.983 715.392 531.504 713.318 534.27 710.471C537.035 707.624 540.126 705.469 543.542 704.005C548.096 697.498 554.237 692.252 561.964 688.267C569.69 684.282 577.946 680.744 586.73 677.653C591.122 678.304 594.7 680.012 597.466 682.777C600.231 685.542 602.386 688.755 603.932 692.415C605.477 696.075 606.738 699.694 607.714 703.273C608.69 706.852 609.584 709.861 610.398 712.301C614.139 722.712 617.352 733.692 620.036 745.241C622.72 756.79 624.143 768.177 624.306 779.401C625.77 780.702 626.908 782.41 627.722 784.525C628.535 786.64 629.918 788.185 631.87 789.161C632.195 792.74 633.293 796.4 635.164 800.141C637.034 803.882 638.051 807.38 638.214 810.633ZM606.25 781.353C604.623 778.75 602.59 775.822 600.15 772.569C597.71 769.316 594.863 767.608 591.61 767.445C588.519 767.282 586.079 768.706 584.29 771.715C582.5 774.724 580.874 777.774 579.41 780.865C579.084 781.841 578.718 782.817 578.312 783.793C577.905 784.769 577.458 785.582 576.97 786.233C576.319 787.209 575.384 788.958 574.164 791.479C572.944 794 572.252 795.749 572.09 796.725C572.903 796.888 573.391 797.213 573.554 797.701C573.716 798.189 573.228 798.514 572.09 798.677C572.252 800.629 572.944 802.052 574.164 802.947C575.384 803.842 576.075 805.265 576.238 807.217C581.443 808.681 586.12 808.518 590.268 806.729C594.416 804.94 597.628 802.744 599.906 800.141C599.58 799.816 599.418 799.328 599.418 798.677C599.58 798.189 599.621 797.742 599.54 797.335C599.458 796.928 599.092 796.481 598.442 795.993C600.882 794.041 602.59 791.886 603.566 789.527C604.542 787.168 605.436 784.444 606.25 781.353Z"/>
</g>
<path clip-path="url(#TextBounds_2)" d="M539.764 641.329C536.43 640.529 534.13 638.529 532.864 635.329C531.597 632.129 530.897 628.863 530.764 625.529C530.63 622.863 530.497 620.029 530.364 617.029C530.23 614.029 530.03 610.929 529.764 607.729C529.364 600.529 528.997 593.196 528.664 585.729C528.33 578.263 528.364 571.729 528.764 566.129C529.03 561.863 529.13 557.663 529.064 553.529C528.997 549.396 528.897 545.329 528.764 541.329C528.497 535.196 528.397 529.096 528.464 523.029C528.53 516.963 529.23 510.929 530.564 504.929C531.897 499.063 533.464 493.563 535.264 488.429C537.064 483.296 539.63 478.729 542.964 474.729C543.63 478.996 544.23 483.763 544.764 489.029C545.297 494.296 545.73 499.596 546.064 504.929C546.397 510.263 546.63 515.229 546.764 519.829C546.897 524.429 546.83 528.196 546.564 531.129C545.497 543.796 544.964 556.663 544.964 569.729C544.964 582.796 545.097 594.463 545.364 604.729C545.364 608.196 545.397 611.396 545.464 614.329C545.53 617.263 545.564 619.929 545.564 622.329C545.564 626.196 544.93 629.629 543.664 632.629C542.397 635.629 541.097 638.529 539.764 641.329Z" fill="#f3f4e1" opacity="1" stroke="none"/>
</g>
</svg>
