<?xml version="1.0" encoding="UTF-8" standalone="no"?>
<!DOCTYPE svg PUBLIC "-//W3C//DTD SVG 1.1//EN" "http://www.w3.org/Graphics/SVG/1.1/DTD/svg11.dtd">
<!-- Created with Vectornator (http://vectornator.io/) -->
<!-- Funchan like 👀 -->
<svg height="100%" stroke-miterlimit="10" style="fill-rule:nonzero;clip-rule:evenodd;stroke-linecap:round;stroke-linejoin:round;" version="1.1" viewBox="0 0 1024 1024" width="100%" xml:space="preserve" xmlns="http://www.w3.org/2000/svg" xmlns:xlink="http://www.w3.org/1999/xlink">
<defs/>
<g id="eyes">
<path d="M307.568 102.731L774.223 104.169L771.516 485.957C771.516 485.957 770.847 628.976 745.838 750.452C719.858 876.643 680.927 958.731 680.927 958.731L188.074 946.35C188.074 946.35 233.181 905.305 254.196 865.28C294.964 787.636 297.491 717.371 297.491 717.371L307.568 102.731Z" fill="#094f6a" fill-rule="nonzero" opacity="1" stroke="#ffffff" stroke-linecap="butt" stroke-linejoin="round" stroke-width="12.7"/>
<path d="M123.915 666.697L109.622 636.945C109.622 636.945 141.612 670.071 167.579 523.732C193.547 377.394 213.491 51.5903 213.491 51.5903L859.619 48.0171C859.619 48.0171 917.829 187.615 889.405 580.983C877.075 751.618 847.784 732.233 847.784 732.233L829.206 705.417C829.206 705.417 851.205 693.873 859.926 543.805C876.792 253.586 837.218 104.182 837.218 104.182L246.89 103.255C246.89 103.255 235.692 402.643 204.948 543.503C174.204 684.364 123.915 666.697 123.915 666.697Z" fill="#094f6a" fill-rule="nonzero" opacity="1" stroke="#ffffff" stroke-linecap="butt" stroke-linejoin="round" stroke-width="12.7"/>
<path d="M525.526 470.273L526.574 559.745" fill="none" opacity="1" stroke="#ffffff" stroke-linecap="butt" stroke-linejoin="round" stroke-width="12.7"/>
<path d="M761.428 860.625C776.325 797.766 820.205 750.645 859.436 755.377C898.668 760.108 918.395 814.901 903.498 877.76C888.601 940.618 844.722 987.74 805.49 983.008C789.039 981.024 776.017 970.236 767.54 953.742C762.432 943.803 729.666 902.83 728.112 889.813C726.557 876.797 756.129 897.323 757.217 885.889C757.998 877.691 759.388 869.233 761.428 860.625Z" fill="#094f6a" fill-rule="nonzero" opacity="1" stroke="#ffffff" stroke-linecap="round" stroke-linejoin="round" stroke-width="12.7"/>
<g opacity="1">
<path d="M610.613 105.217L746.985 105.217L746.985 166.622L610.613 166.622L610.613 105.217Z" fill="none" opacity="1" stroke="#ffffff" stroke-linecap="round" stroke-linejoin="round" stroke-width="12.7"/>
<g opacity="1">
<path d="M631.08 115.417L631.348 155.283" fill="none" opacity="1" stroke="#ffffff" stroke-linecap="round" stroke-linejoin="round" stroke-width="5.56"/>
<path d="M633.061 135.401L648.585 115.521L633.061 135.401Z" fill="none" opacity="1" stroke="#ffffff" stroke-linecap="round" stroke-linejoin="round" stroke-width="5.56"/>
<path d="M638.881 135.514L650.323 155.016" fill="none" opacity="1" stroke="#ffffff" stroke-linecap="round" stroke-linejoin="round" stroke-width="5.56"/>
</g>
<path d="M726.337 120.855C726.337 120.855 719.039 110.982 712.504 119.745C703.909 131.27 736.025 143.032 727.069 152.489C717.04 163.079 707.597 146.994 707.597 146.994" fill="none" opacity="1" stroke="#ffffff" stroke-linecap="round" stroke-linejoin="round" stroke-width="5.56"/>
<g opacity="1">
<path d="M670.664 116.044L670.795 135.505L670.932 155.91" fill="none" opacity="1" stroke="#ffffff" stroke-linecap="round" stroke-linejoin="round" stroke-width="5.56"/>
<path d="M670.76 115.967L693.351 115.7" fill="none" opacity="1" stroke="#ffffff" stroke-linecap="round" stroke-linejoin="round" stroke-width="5.56"/>
<path d="M671.611 132.157L687.036 132.208" fill="none" opacity="1" stroke="#ffffff" stroke-linecap="round" stroke-linejoin="round" stroke-width="5.56"/>
</g>
</g>
<g opacity="1">
<path d="M830.858 778.775L869.233 786.482C869.233 786.482 859.357 801.957 849.977 809.274C840.596 816.591 832.127 814.05 832.127 814.05" fill="#094f6a" fill-rule="nonzero" opacity="1" stroke="#ffffff" stroke-linecap="round" stroke-linejoin="round" stroke-width="5.56"/>
<g opacity="1">
<path d="M814.706 834.224L826.128 839.276" fill="#094f6a" fill-rule="nonzero" opacity="1" stroke="#ffffff" stroke-linecap="round" stroke-linejoin="round" stroke-width="5.56"/>
<path d="M855.229 843.707C855.229 843.707 834.617 860.163 826.966 863.077C815.328 867.509 808.677 861.435 808.677 861.435" fill="#094f6a" fill-rule="nonzero" opacity="1" stroke="#ffffff" stroke-linecap="round" stroke-linejoin="round" stroke-width="5.56"/>
</g>
</g>
<g opacity="1">
<path d="M824.791 878.332L863.166 886.039C863.166 886.039 853.291 901.513 843.91 908.831C834.529 916.148 826.06 913.607 826.06 913.607" fill="#094f6a" fill-rule="nonzero" opacity="1" stroke="#ffffff" stroke-linecap="round" stroke-linejoin="round" stroke-width="5.56"/>
<g opacity="1">
<path d="M808.639 933.78L820.061 938.833" fill="#094f6a" fill-rule="nonzero" opacity="1" stroke="#ffffff" stroke-linecap="round" stroke-linejoin="round" stroke-width="5.56"/>
<path d="M849.162 943.263C849.162 943.263 828.55 959.72 820.899 962.633C809.262 967.066 802.611 960.992 802.611 960.992" fill="#094f6a" fill-rule="nonzero" opacity="1" stroke="#ffffff" stroke-linecap="round" stroke-linejoin="round" stroke-width="5.56"/>
</g>
</g>
<path d="M415.536 315.126C415.536 266.683 438.956 227.412 467.845 227.412C496.735 227.412 520.155 266.683 520.155 315.126C520.155 363.57 496.735 402.841 467.845 402.841C438.956 402.841 415.536 363.57 415.536 315.126Z" fill="#ffffff" fill-rule="nonzero" opacity="1" stroke="none"/>
<path d="M425.034 329.073C425.034 309.251 436.516 293.183 450.681 293.183C464.845 293.183 476.327 309.251 476.327 329.073C476.327 348.894 464.845 364.963 450.681 364.963C436.516 364.963 425.034 348.894 425.034 329.073Z" fill="#ffffff" fill-rule="nonzero" opacity="1" stroke="#094f6a" stroke-linecap="butt" stroke-linejoin="round" stroke-width="25.4"/>
<path d="M415.536 315.126C415.536 266.683 438.956 227.412 467.845 227.412C496.735 227.412 520.155 266.683 520.155 315.126C520.155 363.57 496.735 402.841 467.845 402.841C438.956 402.841 415.536 363.57 415.536 315.126Z" fill="#ffffff" fill-rule="nonzero" opacity="1" stroke="none"/>
<path d="M428.309 328.229C428.309 308.407 439.791 292.339 453.955 292.339C468.12 292.339 479.602 308.407 479.602 328.229C479.602 348.05 468.12 364.119 453.955 364.119C439.791 364.119 428.309 348.05 428.309 328.229Z" fill="#ffffff" fill-rule="nonzero" opacity="1" stroke="#094f6a" stroke-linecap="butt" stroke-linejoin="round" stroke-width="25.4"/>
<path d="M567.358 315.144C567.358 266.701 590.778 227.429 619.667 227.429C648.557 227.429 671.976 266.701 671.976 315.144C671.976 363.588 648.557 402.859 619.667 402.859C590.778 402.859 567.358 363.588 567.358 315.144Z" fill="#ffffff" fill-rule="nonzero" opacity="1" stroke="none"/>
<path d="M580.131 328.247C580.131 308.425 591.613 292.357 605.777 292.357C619.941 292.357 631.423 308.425 631.423 328.247C631.423 348.068 619.941 364.137 605.777 364.137C591.613 364.137 580.131 348.068 580.131 328.247Z" fill="#ffffff" fill-rule="nonzero" opacity="1" stroke="#094f6a" stroke-linecap="butt" stroke-linejoin="round" stroke-width="25.4"/>
</g>
</svg>
