<?xml version="1.0" encoding="UTF-8" standalone="no"?>
<!DOCTYPE svg PUBLIC "-//W3C//DTD SVG 1.1//EN" "http://www.w3.org/Graphics/SVG/1.1/DTD/svg11.dtd">
<!-- Created with Vectornator (http://vectornator.io/) -->
<!-- Funchan like 確認します -->
<svg height="100%" stroke-miterlimit="10" style="fill-rule:nonzero;clip-rule:evenodd;stroke-linecap:round;stroke-linejoin:round;" version="1.1" viewBox="0 0 1024 1024" width="100%" xml:space="preserve" xmlns="http://www.w3.org/2000/svg" xmlns:xlink="http://www.w3.org/1999/xlink">
<defs>
<clipPath id="TextBounds">
<rect height="431.006" width="352.315" x="454.119" y="245.533"/>
</clipPath>
<clipPath id="TextBounds_2">
<rect height="644.607" width="402.257" x="227.255" y="287.994"/>
</clipPath>
</defs>
<g id="i-will-check">
<path d="M307.568 102.731L774.223 104.169L771.516 485.957C771.516 485.957 770.847 628.976 745.838 750.452C719.858 876.643 680.927 958.731 680.927 958.731L188.074 946.35C188.074 946.35 233.181 905.305 254.196 865.28C294.964 787.636 297.491 717.371 297.491 717.371L307.568 102.731Z" fill="#094f6a" fill-rule="nonzero" opacity="1" stroke="#ffffff" stroke-linecap="butt" stroke-linejoin="round" stroke-width="12.7"/>
<path d="M123.915 666.697L109.622 636.945C109.622 636.945 141.612 670.071 167.579 523.732C193.547 377.394 213.491 51.5903 213.491 51.5903L859.619 48.0171C859.619 48.0171 917.829 187.615 889.405 580.983C877.075 751.618 847.784 732.233 847.784 732.233L829.206 705.417C829.206 705.417 851.205 693.873 859.926 543.805C876.792 253.586 837.218 104.182 837.218 104.182L246.89 103.255C246.89 103.255 235.692 402.643 204.948 543.503C174.204 684.364 123.915 666.697 123.915 666.697Z" fill="#094f6a" fill-rule="nonzero" opacity="1" stroke="#ffffff" stroke-linecap="butt" stroke-linejoin="round" stroke-width="12.7"/>
<g opacity="1">
<path d="M610.613 105.217L746.985 105.217L746.985 166.622L610.613 166.622L610.613 105.217Z" fill="none" opacity="1" stroke="#ffffff" stroke-linecap="round" stroke-linejoin="round" stroke-width="12.7"/>
<g opacity="1">
<path d="M631.08 115.417L631.348 155.283" fill="none" opacity="1" stroke="#ffffff" stroke-linecap="round" stroke-linejoin="round" stroke-width="5.56"/>
<path d="M633.061 135.401L648.585 115.521L633.061 135.401Z" fill="none" opacity="1" stroke="#ffffff" stroke-linecap="round" stroke-linejoin="round" stroke-width="5.56"/>
<path d="M638.881 135.514L650.323 155.016" fill="none" opacity="1" stroke="#ffffff" stroke-linecap="round" stroke-linejoin="round" stroke-width="5.56"/>
</g>
<path d="M726.337 120.855C726.337 120.855 719.039 110.982 712.504 119.745C703.909 131.27 736.025 143.032 727.069 152.489C717.04 163.079 707.597 146.994 707.597 146.994" fill="none" opacity="1" stroke="#ffffff" stroke-linecap="round" stroke-linejoin="round" stroke-width="5.56"/>
<g opacity="1">
<path d="M670.664 116.044L670.795 135.505L670.932 155.91" fill="none" opacity="1" stroke="#ffffff" stroke-linecap="round" stroke-linejoin="round" stroke-width="5.56"/>
<path d="M670.76 115.967L693.351 115.7" fill="none" opacity="1" stroke="#ffffff" stroke-linecap="round" stroke-linejoin="round" stroke-width="5.56"/>
<path d="M671.611 132.157L687.036 132.208" fill="none" opacity="1" stroke="#ffffff" stroke-linecap="round" stroke-linejoin="round" stroke-width="5.56"/>
</g>
</g>
<g fill="#ffffff" opacity="1" stroke="none">
<path clip-path="url(#TextBounds)" d="M667.012 298.091L651.673 296.636C641.234 295.646 635.269 295.08 634.123 295.831C631.617 297.314 629.867 308.97 630.864 316.589C631.861 324.207 632.825 325.373 637.178 327.076C639.461 327.937 642.677 328.027 647.272 327.173L654.697 325.943L655.44 304.517L665.24 305.447L663.447 313.015C660.905 323.952 653.474 336.575 643.992 343.629C639.134 347.252 636.983 347.263 637.286 344.068C637.468 342.15 636.078 340.944 633.369 340.042C630.66 339.14 625.587 338.229 618.151 337.309C610.714 336.388 605.642 335.477 602.466 334.961C599.291 334.445 596.988 333.797 595.304 333.422C593.62 333.047 592.808 332.54 593.041 332.348C593.355 331.303 594.977 327.802 598.099 322.079C601.222 316.357 603.126 309.873 604.046 302.437L605.543 291.186L613.081 291.041C618.468 290.907 624.24 291.24 629.992 291.785C641.71 292.897 647.745 290.46 648.757 284.322C649.293 280.933 634.055 278.413 631.651 278.83C630.565 278.942 628.953 280.079 627.28 281.855L623.467 285.792L571.403 281.714C570.764 281.654 571.556 282.374 573.332 284.047C575.108 285.72 577.177 286.561 579.521 286.783C581.864 287.006 583.082 287.766 583.58 289.318C584.647 293.933 578.63 316.578 573.713 325.355C568.796 334.132 556.019 346.463 551.596 347.763C549.385 348.413 547.813 349.124 546.9 349.682C545.967 350.454 545.48 351.052 545.42 351.692C545.319 352.757 546.536 353.517 549.073 353.973C554.125 355.097 562.342 354.586 567.931 352.322L575.518 349.387L573.558 370.052C572.285 383.474 571.091 391.529 569.763 394.198C568.435 396.867 568.466 398.804 569.877 399.798C572.911 401.805 616.726 404.456 622.914 402.678C626.038 401.47 628.157 399.521 629.079 396.599C630.001 393.677 631.621 385.663 633.726 372.535C635.831 359.407 637.35 352.457 638.476 351.919C640.495 351.036 641.58 350.924 642.158 351.624C643.082 353.216 642.964 363.523 641.379 382.504C639.794 401.485 639.21 412.178 639.241 414.115C639.272 416.053 640.023 417.199 641.535 417.127L713.553 421.593L720.835 417.34C730.236 411.138 727.201 404.616 719.32 408.383C715.496 410.17 710.029 411.156 702.937 411.128L691.991 410.95L693.487 395.185L705.904 395.717C712.569 395.705 717.763 395.338 721.952 394.23C726.141 393.123 728.2 391.813 728.382 389.896C728.523 388.405 727.945 387.705 726.454 387.563C724.962 387.422 721.493 387.738 715.599 388.684C709.706 389.629 705.171 389.844 701.549 389.501L695.584 388.935L696.837 375.726L709.62 376.938C716.224 377.565 721.164 377.603 724.015 377.014C726.865 376.424 728.498 375.075 728.467 373.137C728.761 372.305 728.182 371.605 726.711 371.251C724.002 370.349 705.945 370.356 701.583 371.017C699.392 371.454 698.134 371.12 698.001 370.248C697.869 369.375 697.919 366.585 698.15 361.878L699.08 352.078L713.78 353.472C723.367 354.382 728.987 354.055 730.407 352.685C730.893 352.086 731.36 351.7 731.613 351.295C735.668 344.8 713.157 344.17 712.357 345.814C712.063 346.646 710.531 346.93 707.975 346.688C705.418 346.445 703.947 346.091 703.328 345.817C703.135 345.584 703.216 344.732 703.956 343.727C704.696 342.723 705.405 339.78 706.489 335.154L707.501 329.016L694.779 327.165C693.927 327.084 693.034 327.429 692.294 328.434C691.554 329.438 690.479 331.701 689.051 335.435C686.193 342.902 684.733 344.698 673.867 343.668C663.002 342.637 662.231 341.704 670.567 335.401C678.903 329.098 682.118 324.674 684.852 313.971C687.587 303.267 684.616 305.135 697.266 305.475C703.485 305.635 707.127 305.765 708.212 305.653C709.298 305.541 710.576 305.662 712.047 306.017C713.518 306.371 714.583 306.472 714.796 306.492C715.435 306.553 716.998 308.206 716.705 309.038L714.455 314.629C714.161 315.461 712.873 317.703 710.785 321.589C706.629 329.148 707.521 328.803 714.44 328.385C721.358 327.966 728.712 325.224 731.318 322.677C734.35 320.17 741.061 308.339 740.218 305.894C740.127 304.596 737.651 303.501 733.217 302.651C728.784 301.8 720.688 301.032 708.93 300.347L687.758 299.199L689.314 282.795L681.015 279.643C670.026 275.376 669.437 272.526 668.043 287.226L667.012 298.091ZM611.447 342.262L610.26 368.374C609.476 385.712 608.627 394.66 608.394 394.853C607.694 395.431 595.135 396.39 594.131 395.649C593.512 395.376 593.633 394.097 594.454 392.241C595.275 390.384 596.357 381.243 597.893 365.052L600.156 341.191L611.447 342.262ZM681.976 351.101L681.847 359.257C681.709 369.777 681.05 369.929 671.777 367.975L664.847 366.243L666.504 348.774L681.976 351.101ZM677.251 385.046C676.552 385.625 673.975 385.595 669.268 385.364C664.753 385.366 662.197 385.123 662.004 384.89C661.212 384.17 663.745 375.597 664.972 373.994C665.692 373.202 666.351 373.05 667.143 373.77C667.935 374.489 669.832 374.884 673.027 375.187C679.206 375.773 679.033 375.327 678.548 380.44C678.306 382.997 677.951 384.468 677.251 385.046ZM679.395 391.913L677.674 400.993C676.489 406.685 675.76 409.84 675.486 410.459C674.827 410.612 671.357 410.927 665.118 410.981L655.877 410.964L659.491 393.25C659.633 391.759 660.373 390.754 661.458 390.642C662.544 390.53 665.334 390.58 669.381 390.964L679.395 391.913Z"/>
<path clip-path="url(#TextBounds)" d="M587.042 493.053C571.317 491.132 556.992 488.053 562.528 479.55C570.445 466.329 593.1 469.982 593.349 485.483C593.544 490.23 591.729 493.498 587.042 493.053ZM659.944 553.923C675.267 539.684 677.218 521.382 676.094 501.499L660.755 500.045C659.135 508.059 657.13 515.608 655.743 523.43C655.388 524.901 656.485 526.939 657.642 528.339C659.337 530.864 661.519 532.791 663.559 536.209C651.79 533.373 645.331 540.284 638.04 546.901C630.535 553.498 621.222 551.97 612.03 549.163C618.803 541.207 625.323 533.657 631.843 526.107L615.404 513.585C615.931 512.56 616.225 511.728 616.519 510.896L633.136 512.472C634.281 507.207 634.878 503.179 635.708 498.959C630.097 496.922 625.318 495.179 620.54 493.436L620.955 491.326C628.918 491.221 636.942 490.477 644.805 491.438C662.021 493.501 678.943 496.396 695.673 499.057C702.023 500.089 705.555 503.649 703.843 510.365C701.382 520.45 699.946 531.062 695.821 540.559C689.78 554.388 675.792 559.08 659.944 553.923ZM549.322 512.261C547.597 512.313 545.994 511.086 544.33 510.498C544.198 509.626 544.259 508.987 544.339 508.134C572.267 506.054 582.535 511.112 596.583 505.781C609.739 500.795 614.563 515.655 599.742 515.539C582.75 515.647 566.152 513.858 549.322 512.261ZM585.68 539.141C578.286 542.308 556.637 539.395 550.324 533.423C554.007 533.127 556.604 532.943 559.16 533.186C563.654 533.397 567.225 532.016 571.475 530.27C579.488 527.375 597.982 529.559 591.563 536.044C590.123 537.627 587.699 538.257 585.68 539.141ZM551.775 558.925C550.943 558.632 550.192 557.486 549.187 556.745C549.461 556.126 549.521 555.487 549.602 554.635C553.65 555.019 557.678 555.616 561.533 555.767C567.518 556.119 572.479 555.945 578.056 551.53C582.235 548.272 599.655 552.719 595.781 557.295C586.929 566.774 564.701 563.161 551.775 558.925ZM688.276 626.902C680.193 632.799 664.083 630.411 653.824 622.989C637.963 611.167 632.191 585.899 640.48 561.965C642.397 562.147 644.761 562.156 646.871 562.571C657.017 564.393 656.591 564.353 655.834 574.599C655.127 582.055 655.058 589.573 655.863 596.958C657.523 613.452 666.362 622.244 683.071 625.118C684.329 625.453 685.78 626.02 688.276 626.902ZM684.534 602.901C683.854 603.267 683.621 603.46 683.408 603.439C667.055 603.608 667.055 603.608 665.973 587.813C665.821 587.154 665.648 586.708 665.689 586.282C664.67 574.362 668.807 571.53 679.968 576.243C681.632 576.831 682.881 579.529 683.146 581.274C683.97 588.446 684.155 595.557 684.534 602.901ZM606.473 607.75C608.894 598.092 611.366 590.158 612.966 582.356C614.465 575.619 616.939 572.2 624.233 574.611C626.963 575.3 629.712 575.776 633.293 576.545C630.558 587.249 628.31 597.354 625.636 607.418C625.302 608.676 623.01 610.179 621.731 610.057C616.598 609.785 611.759 608.682 606.473 607.75ZM688.584 582.864C705.453 579.52 710.009 583.607 712.591 597.179C712.896 598.498 709.996 601.877 708.485 601.949C702.012 602.195 694.374 603.405 693.66 592.804C693.537 589.568 690.411 586.262 688.584 582.864ZM557.823 617.538C537.718 621.006 534.106 618.298 533.388 598.669C532.812 577.548 532.892 576.696 553.729 574.588C565.648 573.569 578.005 574.741 589.955 575.659C601.926 576.365 600.154 583.72 600.018 598.755L599.634 602.802C598.361 616.224 593.31 619.614 579.969 617.489C572.746 616.589 565.016 616.501 557.823 617.538ZM572.52 609.904C572.946 609.944 573.199 609.539 574.346 608.787C574.972 602.183 576.278 595.213 576.072 588.315C576.291 576.943 566.046 580.7 556.856 582.408C556.604 587.328 556.261 590.95 556.344 594.612C556.969 612.943 556.198 612.01 572.52 609.904Z"/>
</g>
<g fill="#ffffff" opacity="1" stroke="none">
<path clip-path="url(#TextBounds_2)" d="M410.93 393.121C411.697 413.588 414.637 425.511 416.576 428.405C417.114 429.137 417.977 430.568 419.167 432.698C420.715 435.316 421.546 436.959 422.116 437.479C428 448.553 448.234 459.224 465.774 460.607C474.268 461.689 477.392 461.084 483.815 457.303C490.206 453.734 515.203 426.166 513.379 423.938C512.841 423.207 510.676 421.793 506.933 420.788C499.723 418.387 497.772 419.82 488.492 430.958C484.137 436.786 480.708 440.808 478.205 443.023C473.344 447.909 468.352 450.826 463.407 452.018C451.728 454.779 441.733 449.354 435.035 437.939C433.846 435.808 433.061 432.441 433.432 428.601C434.109 421.344 441.413 367.906 447.569 357.374C453.547 346.597 452.021 332.509 444.076 327.83C440.104 325.491 437.695 324.257 437.663 324.468C437.175 324.827 436.508 324.941 434.686 325.529C432.929 325.693 430.978 327.127 429.206 328.804C424.931 332.697 418.707 340.837 417.02 346.208C416.388 348.926 414.865 356.054 413.086 367.688C411.275 379.535 410.648 387.882 410.93 393.121Z"/>
<path clip-path="url(#TextBounds_2)" d="M449.118 544.06C450.265 535.143 449.71 533.11 449.872 532.052C450.342 530.392 447.46 528.003 441.942 525.861C430.061 521.446 431.301 524.666 428.35 535.473L426.063 543.349L415.568 542.611C400.778 541.648 396.479 538.61 394.249 537.619C389.61 535.395 385.218 535.806 383.525 535.547C381.948 535.955 381.671 536.346 382.356 537.533C386.069 541.564 393.411 545.934 413.085 548.942L424.296 550.656L423.297 578.43L398.873 575.346C391.86 574.49 387.059 573.323 384.259 571.812C382.126 570.187 380.466 569.717 379.767 570.043C378.824 570.548 378.873 571.638 379.443 572.159C382.049 574.938 388.674 578.333 399.057 581.219C404.005 582.841 420.473 585.576 421.792 586.86C423.143 587.932 423.552 589.51 423.196 591.837C422.84 594.164 422.484 596.491 422.91 599.37C423.403 604.641 422.768 604.544 416.049 604.6C400.885 604.662 389.223 608.725 380.755 617.388C378.674 619.668 377.034 623.314 376.47 628.423C375.372 638.431 378.601 645.635 381.256 649.505C383.88 653.586 387.916 655.502 394.915 657.871C413.974 664.899 427.032 657.37 438.252 633.54C440.509 628.689 441.726 624.978 442.146 622.228C442.987 616.728 442.987 616.728 446.422 618.336C448.261 619.05 451.387 621.26 455.327 623.81C463.744 629.644 470.939 633.558 479.788 632.313C481.122 632.084 481.789 631.97 481.675 631.303C481.657 630.001 476.904 627.109 467.837 622.692L445.194 610.788L448.72 587.729L476.934 590.095C484.403 590.804 489.495 590.067 491.496 589.723C493.253 589.559 494.422 587.573 494.323 585.393C494.549 583.912 493.865 582.725 493.148 581.749C492.252 580.53 489.843 579.296 486.473 577.265C479.701 573.415 470.557 573.749 467.748 579.381C467.099 580.798 466.155 581.303 465.603 582.084C464.075 583.583 447.903 584.574 448.933 572.175L449.485 552.992L465.35 555.418C475.927 557.035 494.314 558.547 496.949 558.301C499.553 558.266 501.748 556.653 502.136 554.114C502.574 552.666 502.556 551.364 502.019 550.633C500.829 548.502 490.573 541.955 486.797 541.161C482.843 540.124 478.097 545.676 479.222 548.23C479.06 549.287 476.245 549.29 458.834 547.061C452.667 546.335 449.559 545.426 449.118 544.06ZM420.918 626.56C419.204 637.771 418.88 639.887 414.605 643.779C410.541 647.704 401.532 652.821 398.327 652.548C397.09 652.142 395.868 650.224 395.116 646.645C394.12 643.245 393.645 639.276 393.689 634.736C393.567 625.625 397.907 621.31 410.106 617.979C422.729 614.713 422.908 614.957 420.918 626.56Z"/>
<path clip-path="url(#TextBounds_2)" d="M404.554 726.511C401.498 729.507 400.784 731.346 400.207 740.784L399.485 752.58L377.144 750.03C351.386 747.174 340.891 746.436 335.067 747.71C323.177 750.439 341.178 757.304 345.976 755.656C348.465 754.954 356.209 755.272 380.455 758.113L398.988 760.081L399.897 775.374C399.915 776.676 399.753 777.733 399.559 779.003C399.089 780.663 398.959 781.509 398.927 781.72C398.83 782.355 396.244 783.692 395.154 783.741C394.308 783.612 391.249 783.794 386.011 784.075C375.533 784.638 365.952 786.421 359.549 794.318C353.081 802.638 352.803 818.615 361.352 826.417C369.869 834.43 390.473 841.261 395.319 837.888C396.538 836.992 397.416 836.91 397.287 837.756C396.996 839.66 389.707 857.597 388.229 860.185C387.971 861.877 387.841 862.723 388.167 863.423C389.275 864.674 395.591 868.671 399.202 867.708C402.928 867.411 414.843 856.027 418.579 848.589C422.493 841.394 424.767 819.443 423.634 808.445C422.538 802.866 422.384 793.966 424.227 781.908L426.912 764.35L462.386 770.207C470.815 771.712 476.315 772.553 479.309 772.794C482.303 773.036 484.483 772.936 485.068 771.943C489.344 768.051 480.319 756.279 470.62 754.58C468.928 754.321 466.945 755.966 464.1 758.995L460.932 764.14L435.888 759.445C422.805 757.228 423.945 758.268 425.821 745.999C426.726 740.075 427 736.87 427.129 736.024C426.624 735.081 412.98 725.201 409.596 724.684C408.115 724.457 406.261 725.256 404.554 726.511ZM385.551 796.994C389.826 793.102 394.022 791.145 398.676 791.857C399.522 791.986 400.451 792.994 400.597 793.45C400.941 795.45 402.6 829.909 381.023 826.61C379.542 826.384 378.743 824.53 378.203 820.983C377.63 817.648 377.399 813.5 378.045 809.269C378.725 804.827 381.308 800.675 385.551 796.994Z"/>
</g>
</g>
</svg>
